<svg xmlns="http://www.w3.org/2000/svg" width="605.621" height="747" viewBox="0 0 605.621 747">
  <g id="Creativity-pana" transform="translate(-80.782 -34.854)">
    <g id="freepik--background-complete--inject-5" transform="translate(143.002 106.606)">
      <path id="Path_473" data-name="Path 473" d="M332.18,102.657h111.9s-9.888-18.007-38.7-15.318c-27.5,2.5-28.933-8.867-42.889-10.212S336.843,86.335,332.18,102.657Z" transform="translate(33.469 -77.012)" fill="#e0e0e0"/>
      <path id="Path_474" data-name="Path 474" d="M161.87,266.533s-11.216,6.059,5.106,29.478,26.942,34.652,26.942,34.652,3.1,5.531-1.7,7.114-15.879,1.362-17.241,7.676c-1.413,6.57,3.949,11.914,13.854,15.743s31.316,13.241,33.239,14.092,4.034,3.319.936,4.919-27.112,7.506-23.64,18.722,32.882,17.564,36.081,18.313,4.1,1.94,4.085,3.642-8.272,2.927-15.045,4.885-14.262,5.429-11.709,11.743,21.036,17.768,61.849,16.152l18.858-1.974,8.033-17.275c14.926-38,10.212-59.228,5.106-63.721s-10.858,1.464-14.926,7.216-7.948,13.139-9.565,12.595-2.434-1.787-2.093-5.106,4.034-33.12-5.429-40.1-22.942,13.752-25.529,16.152-4.17-.425-4.34-2.5-1.957-25.376-2.383-36.031-3.642-17.428-10.3-18.245-9.837,9.735-12.918,13.752-7.284-.732-7.284-.732-7.131-13.718-23.827-36.83-26.38-14.16-26.38-14.16" transform="translate(-88.72 54.946)" fill="#ebebeb"/>
      <path id="Path_475" data-name="Path 475" d="M287.5,446.707c-12.237-17.02-33.461-47.655-51.825-73.848s-34.992-49.884-47.144-66.972c-6.076-8.51-10.978-15.42-14.4-20.2l-3.914-5.514-1-1.43c-.221-.323-.323-.511-.323-.511s.136.153.374.477l1.055,1.4,4,5.446c3.4,4.714,8.51,11.59,14.552,20.1,12.237,17.02,28.933,40.677,47.28,66.87s39.536,56.863,51.689,73.933" transform="translate(-81.154 64.234)" fill="#e0e0e0"/>
      <path id="Path_476" data-name="Path 476" d="M177.12,312.83a7.192,7.192,0,0,1,1.362.187c.868.153,2.11.408,3.659.749,3.081.664,7.3,1.7,11.914,2.927l11.914,3.183,3.608.953a5.629,5.629,0,0,1,1.311.392,6.187,6.187,0,0,1-1.362-.17c-.868-.153-2.11-.408-3.659-.766-3.064-.7-7.284-1.7-11.914-3.012l-11.914-3.1-3.608-.936a5.1,5.1,0,0,1-1.311-.408Z" transform="translate(-75.377 88.522)" fill="#e0e0e0"/>
      <path id="Path_477" data-name="Path 477" d="M197.625,333.18c-.17,0,1.583-8.85,3.9-19.675s4.34-19.59,4.493-19.556-1.583,8.833-3.914,19.675S197.778,333.18,197.625,333.18Z" transform="translate(-60.991 75.269)" fill="#e0e0e0"/>
      <path id="Path_478" data-name="Path 478" d="M213.12,354.513a5.7,5.7,0,0,1,.6-1.259l1.8-3.4c1.515-2.825,3.608-6.808,5.736-11.165s3.966-8.51,5.242-11.386l1.532-3.489a4.817,4.817,0,0,1,.63-1.259,7.618,7.618,0,0,1-.408,1.344c-.306.851-.766,2.059-1.362,3.557-1.191,3-2.944,7.08-5.106,11.505s-4.306,8.306-5.906,11.1c-.817,1.379-1.5,2.5-1.974,3.251A7.546,7.546,0,0,1,213.12,354.513Z" transform="translate(-50.106 95.345)" fill="#e0e0e0"/>
      <path id="Path_479" data-name="Path 479" d="M193.76,342.151a4.288,4.288,0,0,1,1.276-.153l3.523-.2c2.961-.153,7.063-.306,11.59-.46s8.629-.238,11.607-.272h3.523a7.49,7.49,0,0,1,1.293,0,4.8,4.8,0,0,1-1.293.17l-3.506.2c-2.978.136-7.08.306-11.607.442s-8.629.238-11.607.272h-3.506A5.536,5.536,0,0,1,193.76,342.151Z" transform="translate(-63.696 108.32)" fill="#e0e0e0"/>
      <path id="Path_480" data-name="Path 480" d="M204.71,365.744a7.813,7.813,0,0,1,1.7-.187l4.51-.272c3.8-.2,9.054-.459,14.858-.7s11.063-.408,14.858-.51l4.51-.1a10.633,10.633,0,0,1,1.7,0,10.5,10.5,0,0,1-1.7.187l-4.51.272c-3.8.2-9.054.459-14.858.7s-11.063.408-14.858.511l-4.51.1a10.356,10.356,0,0,1-1.7,0Z" transform="translate(-56.01 124.399)" fill="#e0e0e0"/>
      <path id="Path_481" data-name="Path 481" d="M228.81,380.717a10.509,10.509,0,0,1,.715-1.617l2.145-4.34c1.8-3.659,4.255-8.714,6.808-14.382s4.766-10.841,6.331-14.62l1.855-4.459a11.766,11.766,0,0,1,.732-1.6,8.811,8.811,0,0,1-.528,1.7c-.375,1.089-.936,2.638-1.7,4.527-1.464,3.812-3.608,9.037-6.178,14.7s-5.106,10.722-6.995,14.331c-.953,1.8-1.7,3.268-2.315,4.255a11.556,11.556,0,0,1-.868,1.5Z" transform="translate(-39.093 107.384)" fill="#e0e0e0"/>
      <path id="Path_482" data-name="Path 482" d="M328.421,277.07c-20.253-22.721-18.313-55.518-10.637-83.583,1.277-4.7,1.94-9.8,5.106-13.411s9.157-5.208,12.918-2.213c3.115,2.485,3.676,6.927,4.834,10.773a28.405,28.405,0,0,0,8.51,13.207c2.638,2.281,6.127,4.1,9.5,3.183,4.612-1.294,6.416-6.808,7.506-11.522q3.012-13.156,6.059-26.312a45.685,45.685,0,0,1,4.714-13.616c2.519-4.119,6.808-7.489,11.505-7.676s9.684,3.693,9.531,8.51a44.752,44.752,0,0,1-1.242,5.889,5.106,5.106,0,0,0,1.787,5.327c1.7,1,3.932.119,5.667-.936,5.974-3.591,10.722-8.918,15.233-14.279s8.969-10.859,14.6-14.994,12.68-6.808,19.5-5.582,13,7.08,13.139,14.075-5.31,12.85-10.79,17.207a107.857,107.857,0,0,1-26.687,15.641,8.816,8.816,0,0,0-4.578,3.064c-1.7,2.893.46,6.706,3.3,8.51,3.234,1.991,7.114,2.536,10.688,3.829s7.148,3.863,7.71,7.642c.783,5.259-4.425,9.344-9.157,11.709a92.636,92.636,0,0,1-30.193,9.02c-3.761.443-7.659.7-11.029,2.451s-6.042,5.6-5.106,9.31,4.97,5.8,8.748,5.974,7.489-1,11.25-1.481c7.029-.919,15.318,1.5,18.075,8.067a15.318,15.318,0,0,1-1.532,13.616,35.132,35.132,0,0,1-9.871,9.922,92.927,92.927,0,0,1-45,17.973c-16.2,1.7-30.431-.238-44.03-9.208" transform="translate(19.561 -40.144)" fill="#f5f5f5"/>
      <path id="Path_483" data-name="Path 483" d="M324.22,277.178c3.676-10.961-.17-5.463,7.4-18.722a432.839,432.839,0,0,1,27.453-41.392q3.914-5.31,7.744-10.467c2.553-3.4,5.106-6.808,7.761-10.025a218.731,218.731,0,0,1,16.458-17.36c5.5-5.276,10.91-10.076,16.015-14.535s9.94-8.51,14.5-12a172.855,172.855,0,0,1,22.755-14.926c2.808-1.549,5.106-2.672,6.552-3.4l1.7-.834.6-.255a3.28,3.28,0,0,1-.562.34l-1.7.919c-1.5.8-3.693,1.974-6.467,3.557a180.169,180.169,0,0,0-22.5,15.164c-4.527,3.523-9.327,7.591-14.4,12.05s-10.45,9.293-15.93,14.569a223.333,223.333,0,0,0-16.356,17.326c-2.655,3.166-5.106,6.553-7.71,9.991l-7.744,10.467a445.38,445.38,0,0,0-27.436,41.2c-7.591,13.224-3.778,7.642-7.523,18.534" transform="translate(27.881 -37.529)" fill="#e0e0e0"/>
      <path id="Path_484" data-name="Path 484" d="M354.022,192.472a10.672,10.672,0,0,1,0-2.11c0-1.362.221-3.4.442-5.736.443-4.851,1.294-11.505,2.247-18.841s1.7-13.99,2.059-18.824c.187-2.417.323-4.357.408-5.719a9.2,9.2,0,0,1,.221-2.093,10.353,10.353,0,0,1,.119,2.11c0,1.344,0,3.4-.119,5.736-.2,4.868-.851,11.556-1.821,18.909s-1.821,13.786-2.485,18.722c-.289,2.264-.527,4.17-.715,5.7A9.835,9.835,0,0,1,354.022,192.472Z" transform="translate(48.764 -33.394)" fill="#e0e0e0"/>
      <path id="Path_485" data-name="Path 485" d="M417.036,173.978a12.032,12.032,0,0,1-2.468-.272c-1.583-.238-3.881-.579-6.723-.919-5.668-.715-13.616-1.413-22.262-1.821s-16.628-.409-22.364-.255c-2.859,0-5.106.17-6.808.238a14.936,14.936,0,0,1-2.5,0,13.514,13.514,0,0,1,2.485-.374c1.6-.17,3.914-.374,6.808-.511,5.736-.323,13.616-.408,22.432,0a222.969,222.969,0,0,1,22.313,2.093c2.825.425,5.106.868,6.689,1.191A12.914,12.914,0,0,1,417.036,173.978Z" transform="translate(48.722 -11.888)" fill="#e0e0e0"/>
      <path id="Path_486" data-name="Path 486" d="M334.152,241.056a2.654,2.654,0,0,1-.238-.834c-.136-.664-.306-1.464-.528-2.434-.425-2.11-.987-5.106-1.617-8.986-1.277-7.608-2.706-18.177-4.136-29.869s-2.757-22.262-3.863-29.886c-.545-3.71-1-6.808-1.345-9.02-.136-.987-.255-1.8-.357-2.468a4.717,4.717,0,0,1,0-.868,3.2,3.2,0,0,1,.255.834l.511,2.434q.664,3.166,1.617,8.986c1.277,7.608,2.706,18.177,4.136,29.869s2.757,22.262,3.863,29.886c.562,3.71,1,6.808,1.345,9.037.153.97.255,1.787.357,2.451A3.4,3.4,0,0,1,334.152,241.056Z" transform="translate(26.357 -21.082)" fill="#e0e0e0"/>
      <path id="Path_487" data-name="Path 487" d="M415.6,202.241a2.856,2.856,0,0,1-.868.136l-2.519.238-9.259.749c-7.812.63-18.6,1.7-30.516,2.757s-22.738,2.025-30.635,2.5c-3.914.238-7.08.391-9.276.46h-2.519a2.993,2.993,0,0,1-.885,0,3.486,3.486,0,0,1,.868-.136l2.519-.238,9.259-.749c7.812-.63,18.6-1.7,30.516-2.757s22.721-2.025,30.635-2.485c3.932-.238,7.1-.409,9.293-.477h2.519A3.563,3.563,0,0,1,415.6,202.241Z" transform="translate(31.321 10.874)" fill="#e0e0e0"/>
      <path id="Path_488" data-name="Path 488" d="M459.588,304a3.661,3.661,0,0,1-.272.8l-.936,2.264c-.868,2.042-2.093,4.919-3.625,8.51l-13.122,30.346-.085.17h-.187L400.139,352.9l-13.82,2.263-.63.1.153-.613c3.4-13.258,6.451-25.529,9.089-35.826l.187.391L370.9,308.391l-6.689-3.047-1.7-.817a3.054,3.054,0,0,1-.579-.323l.613.221,1.787.732,6.808,2.876,24.338,10.552.272.119v.272c-2.587,10.382-5.633,22.6-8.935,35.877l-.477-.511,13.82-2.281,41.238-6.706-.289.221,13.395-30.21c1.617-3.608,2.91-6.467,3.829-8.51l1.021-2.229A5.658,5.658,0,0,1,459.588,304Z" transform="translate(54.352 82.324)" fill="#e0e0e0"/>
      <path id="Path_489" data-name="Path 489" d="M382.5,331.692l-1.14,2.961,1.8,2.621L380,337.122l-1.923,2.519-.834-3.064-3-1.055,2.655-1.736.085-3.166,2.468,1.991Z" transform="translate(63 101.01)" fill="#e0e0e0"/>
      <path id="Path_490" data-name="Path 490" d="M364.162,303.225l-.562,1.481.885,1.294-1.566-.085-.953,1.259-.426-1.515-1.481-.528,1.311-.868.051-1.583,1.225.987Z" transform="translate(53.039 81.397)" fill="#e0e0e0"/>
      <path id="Path_491" data-name="Path 491" d="M411.132,327.778l-.562,1.481.885,1.293-1.566-.068-.953,1.259-.426-1.532-1.481-.51,1.31-.868.034-1.583,1.242.987Z" transform="translate(86.01 98.644)" fill="#e0e0e0"/>
      <path id="Path_492" data-name="Path 492" d="M384.022,312.195l-.562,1.464.9,1.31-1.583-.085-.953,1.259-.409-1.532-1.5-.511,1.328-.868.034-1.583,1.225.987Z" transform="translate(66.98 87.694)" fill="#e0e0e0"/>
      <path id="Path_493" data-name="Path 493" d="M422.132,303.348l-.562,1.481.9,1.293-1.583-.068-.953,1.26-.408-1.532-1.5-.528,1.328-.851.034-1.583,1.225.987Z" transform="translate(93.732 81.495)" fill="#e0e0e0"/>
      <path id="Path_494" data-name="Path 494" d="M117.34,384.373h89.115s-7.88-14.347-30.822-12.254c-21.9,1.991-23.011-7.063-34.158-8.169S121.067,371.37,117.34,384.373Z" transform="translate(-117.34 124.338)" fill="#e0e0e0"/>
      <path id="Path_495" data-name="Path 495" d="M127.74,178.246h89.1s-7.88-14.331-30.822-12.254C164.128,168,163,158.946,151.874,157.84S131.45,165.26,127.74,178.246Z" transform="translate(-110.04 -20.343)" fill="#f5f5f5"/>
      <path id="Path_496" data-name="Path 496" d="M393.62,213.155H466.8s-6.468-11.778-25.308-10.076c-18.007,1.7-18.926-5.787-28.065-6.706S396.667,202.483,393.62,213.155Z" transform="translate(76.597 6.717)" fill="#f5f5f5"/>
    </g>
    <g id="freepik--Pencil--inject-5" transform="translate(208.645 34.854)">
      <path id="Path_497" data-name="Path 497" d="M395.211,379.84c3.642-27.419-15.641-50.055-39.741-63.653s-52.063-18.194-78.682-25.717c-25.1-7.131-50.072-17.547-68.657-35.86s-29.75-45.834-23.079-71.057c1.7-6.331,4.68-12.7,10.127-16.356s13.735-3.557,17.8,1.583c8.646,10.961-8.2,30.635,2.349,39.724,2.417,2.11,5.753,2.876,8.255,4.868,6.655,5.327,4.51,15.658,5.446,24.134,1.855,16.764,17.581,28.406,33.018,35.2,20.679,9.088,43.077,13.36,65,18.722s44.064,12.186,62.326,25.529,34.141,34.039,34.039,56.658c0,6.314-.834,14.075-4.8,18.977s-9,5.94-14.722,3.251-9.7-6.808-8.646-15.964" transform="translate(-136.817 56.263)" fill="#ff725e"/>
      <g id="Group_30" data-name="Group 30" transform="translate(46.289 220.922)" opacity="0.8">
        <path id="Path_498" data-name="Path 498" d="M395.211,379.84c3.642-27.419-15.641-50.055-39.741-63.653s-52.063-18.194-78.682-25.717c-25.1-7.131-50.072-17.547-68.657-35.86s-29.75-45.834-23.079-71.057c1.7-6.331,4.68-12.7,10.127-16.356s13.735-3.557,17.8,1.583c8.646,10.961-8.2,30.635,2.349,39.724,2.417,2.11,5.753,2.876,8.255,4.868,6.655,5.327,4.51,15.658,5.446,24.134,1.855,16.764,17.581,28.406,33.018,35.2,20.679,9.088,43.077,13.36,65,18.722s44.064,12.186,62.326,25.529,34.141,34.039,34.039,56.658c0,6.314-.834,14.075-4.8,18.977s-9,5.94-14.722,3.251-9.7-6.808-8.646-15.964" transform="translate(-183.107 -164.658)" fill="#fff"/>
      </g>
      <path id="Path_499" data-name="Path 499" d="M239.258,249c-.868-10.212,6.706-19.011,15.318-23.742s18.483-6.672,27.35-10.876c22.04-10.45,36.048-35.043,37.086-60.249s-9.906-50.429-26.993-68.946c-6.961-7.523-15.5-15.42-15.607-25.683-.1-10.722,10.212-19.164,20.662-19.028s19.947,7.1,26.159,15.828,9.633,19.1,12.986,29.308c-2.383-4.289,2.5-9.582,7.233-9.123s8.51,4.391,11.352,8.306a88.672,88.672,0,0,1,17.02,59.313,83.566,83.566,0,0,1-26.38,54.361c-16.8,15.318-39.009,22.483-60.556,29.291l-44.949,14.177" transform="translate(-97.449 -30.905)" fill="#ff725e"/>
      <g id="Group_31" data-name="Group 31" transform="translate(141.741 9.574)" opacity="0.8">
        <path id="Path_500" data-name="Path 500" d="M239.258,249c-.868-10.212,6.706-19.011,15.318-23.742s18.483-6.672,27.35-10.876c22.04-10.45,36.048-35.043,37.086-60.249s-9.906-50.429-26.993-68.946c-6.961-7.523-15.5-15.42-15.607-25.683-.1-10.722,10.212-19.164,20.662-19.028s19.947,7.1,26.159,15.828,9.633,19.1,12.986,29.308c-2.383-4.289,2.5-9.582,7.233-9.123s8.51,4.391,11.352,8.306a88.672,88.672,0,0,1,17.02,59.313,83.566,83.566,0,0,1-26.38,54.361c-16.8,15.318-39.009,22.483-60.556,29.291l-44.949,14.177" transform="translate(-239.19 -40.479)" fill="#fff"/>
      </g>
      <path id="Path_501" data-name="Path 501" d="M234.321,37.819a9.565,9.565,0,1,0,1.566-.494" transform="translate(-105.022 -33.281)" fill="#ff725e"/>
      <g id="Group_32" data-name="Group 32" transform="translate(123.38 3.813)" opacity="0.8">
        <path id="Path_502" data-name="Path 502" d="M234.321,37.819a9.565,9.565,0,1,0,1.566-.494" transform="translate(-228.402 -37.094)" fill="#fff"/>
      </g>
      <path id="Path_503" data-name="Path 503" d="M277.632,502.552c-5.514-11.42-.7-25.666,8.084-34.822s20.764-14.382,32.337-19.487c25.632-11.3,52.761-24.747,65.781-49.527,4.391-8.357,6.893-17.547,9.361-26.67,4.782-17.632,9.276-37.664-.34-53.2-2.774-4.476-6.927-8.51-12.1-9.361-5.906-1.055-11.914,2.2-15.59,6.944a34.431,34.431,0,0,0-5.94,16.73c-1.43,11.284-.238,22.772-1.43,34.039s-5.293,23.3-14.552,29.733c-11.352,7.914-27.538,6.144-38.549,14.5-8.9,6.808-12.288,18.449-19.232,27.231C279.607,446,271.42,451,263.932,456.65s-14.739,12.526-17.292,21.564a25.529,25.529,0,0,0,35.554,30.006" transform="translate(-92.9 157.784)" fill="#ff725e"/>
      <g id="Group_33" data-name="Group 33" transform="translate(152.77 467.067)" opacity="0.8">
        <path id="Path_504" data-name="Path 504" d="M277.632,502.552c-5.514-11.42-.7-25.666,8.084-34.822s20.764-14.382,32.337-19.487c25.632-11.3,52.761-24.747,65.781-49.527,4.391-8.357,6.893-17.547,9.361-26.67,4.782-17.632,9.276-37.664-.34-53.2-2.774-4.476-6.927-8.51-12.1-9.361-5.906-1.055-11.914,2.2-15.59,6.944a34.431,34.431,0,0,0-5.94,16.73c-1.43,11.284-.238,22.772-1.43,34.039s-5.293,23.3-14.552,29.733c-11.352,7.914-27.538,6.144-38.549,14.5-8.9,6.808-12.288,18.449-19.232,27.231C279.607,446,271.42,451,263.932,456.65s-14.739,12.526-17.292,21.564a25.529,25.529,0,0,0,35.554,30.006" transform="translate(-245.671 -309.283)" fill="#fff"/>
      </g>
      <path id="Path_505" data-name="Path 505" d="M170.241,118.26a35.486,35.486,0,0,1,1.021-57.713c5.242-3.591,11.437-5.8,16.1-10.212,4.136-3.846,6.808-9.174,11.454-12.407a16.679,16.679,0,0,1,25.325,19.3c-2.127,5.974-7.489,10.348-9.735,16.271-2.417,6.4-.851,13.616-1.7,20.321a28.065,28.065,0,0,1-37.579,22.6" transform="translate(-155.909 -34.854)" fill="#ff725e"/>
      <g id="Group_34" data-name="Group 34" transform="translate(0)" opacity="0.8">
        <path id="Path_506" data-name="Path 506" d="M170.241,118.26a35.486,35.486,0,0,1,1.021-57.713c5.242-3.591,11.437-5.8,16.1-10.212,4.136-3.846,6.808-9.174,11.454-12.407a16.679,16.679,0,0,1,25.325,19.3c-2.127,5.974-7.489,10.348-9.735,16.271-2.417,6.4-.851,13.616-1.7,20.321a28.065,28.065,0,0,1-37.579,22.6" transform="translate(-155.909 -34.854)" fill="#fff"/>
      </g>
      <path id="Path_507" data-name="Path 507" d="M164.71,62.42h20.917v43.111a9.208,9.208,0,0,1-9.208,9.208h-2.485a9.208,9.208,0,0,1-9.208-9.208V62.42Z" transform="translate(-149.731 -15.504)" fill="#ff725e"/>
      <path id="Path_508" data-name="Path 508" d="M164.71,70.331,175.16,51.15l10.467,19.181Z" transform="translate(-149.731 -23.415)" fill="#ffbe9d"/>
      <path id="Path_509" data-name="Path 509" d="M168.42,58.741s3.183,4.783,8.289,0l-4.136-7.591Z" transform="translate(-147.127 -23.415)" fill="#ff725e"/>
      <path id="Path_510" data-name="Path 510" d="M185.937,86.718a66.377,66.377,0,0,1-10.637.425,66.12,66.12,0,0,1-10.62-.425,66.122,66.122,0,0,1,10.62-.426A66.375,66.375,0,0,1,185.937,86.718Z" transform="translate(-149.752 1.216)" fill="#263238"/>
      <path id="Path_511" data-name="Path 511" d="M185.592,84.819a63.67,63.67,0,0,1-10.416.425,63.663,63.663,0,0,1-10.416-.426,67.394,67.394,0,0,1,10.416-.408,67.393,67.393,0,0,1,10.416.408Z" transform="translate(-149.696 -0.102)" fill="#263238"/>
      <path id="Path_512" data-name="Path 512" d="M168.5,62.6c.221,0,.425,8.34.425,18.636s-.2,18.722-.425,18.722-.426-8.357-.426-18.722S168.257,62.6,168.5,62.6Z" transform="translate(-147.373 -15.377)" fill="#fafafa"/>
      <path id="Path_513" data-name="Path 513" d="M173.465,62.6c.238,0,.426,8.34.426,18.636s-.187,18.722-.426,18.722-.425-8.357-.425-18.722S173.227,62.6,173.465,62.6Z" transform="translate(-143.884 -15.377)" fill="#fafafa"/>
    </g>
    <g id="freepik--Notebook--inject-5" transform="translate(305.097 655.816)">
      <path id="Path_514" data-name="Path 514" d="M303.415,408.72l95.02,4.068,2.3,5.531-62.292,101.1L226.01,516.131Z" transform="translate(-203.153 -393.377)" fill="#263238"/>
      <path id="Path_515" data-name="Path 515" d="M223.51,501.187l113.1,6.467L395.7,415.97,354.2,419.34,249.21,456.306Z" transform="translate(-204.908 -388.288)" fill="#e0e0e0"/>
      <path id="Path_516" data-name="Path 516" d="M215.283,500.777l103.82,1.7c-4.306-13.292,5.855-32,19.828-38.294,9.259-4.17,26.67-9.582,35.656-14.194,17.02-8.765,32.507-25.342,31.163-39.587l-42.685-1.413L308.6,406.88c-4.561,13.514-14.3,22.347-29.1,27.674-13.241,4.765-28.321,4.748-41.256,10.212-20.8,8.714-30.788,36.95-23.045,56.063" transform="translate(-212.577 -394.669)" fill="#ebebeb"/>
      <path id="Path_517" data-name="Path 517" d="M215.286,500.974s-.1-.221-.255-.681l-.715-1.992a24.182,24.182,0,0,1-.885-3.4,34.551,34.551,0,0,1-.715-4.732,48.612,48.612,0,0,1,.817-13.207,49.356,49.356,0,0,1,6.672-16.475,40.083,40.083,0,0,1,2.978-4.187c.562-.664,1.106-1.4,1.7-2.043l1.923-1.957a17.947,17.947,0,0,1,2.076-1.855c.732-.6,1.447-1.225,2.23-1.787a38.2,38.2,0,0,1,5.106-3.03c7.2-3.625,15.794-5.106,24.746-6.808,4.493-.817,9.122-1.7,13.752-2.944a64.315,64.315,0,0,0,13.7-5.514,45.253,45.253,0,0,0,6.382-4.187,38.335,38.335,0,0,0,5.667-5.361,40.847,40.847,0,0,0,7.9-13.922l.1-.289h.289l45.357,1.7c15.743.613,32.031,1.038,48.71,1.6l3.029.1h.375v.374a23.181,23.181,0,0,1-1.362,9.6,36.491,36.491,0,0,1-1.906,4.425,42.8,42.8,0,0,1-2.485,4.085A63.2,63.2,0,0,1,387.609,442.1a76.329,76.329,0,0,1-15.539,9.582c-5.48,2.468-11.029,4.476-16.458,6.484s-10.807,3.915-15.9,6.127a31.767,31.767,0,0,0-6.995,4.255c-1.106.783-2.025,1.787-3.03,2.655a18.664,18.664,0,0,0-2.672,3,38.564,38.564,0,0,0-7.267,13.616,25.358,25.358,0,0,0-.255,14.535l.153.459h-.477l-75.55-1.328-20.951-.425-5.48-.153h5.5l20.951.238,75.533,1.055-.323.443a25.869,25.869,0,0,1,.221-14.943,38.891,38.891,0,0,1,7.37-13.922c.8-1.089,1.8-2.025,2.706-3.047a19.088,19.088,0,0,1,3.1-2.74,31.448,31.448,0,0,1,7.148-4.34c5.106-2.246,10.518-4.17,15.947-6.178s10.961-4.034,16.39-6.484a74.646,74.646,0,0,0,15.318-9.5,62.169,62.169,0,0,0,12.7-13.412,45.789,45.789,0,0,0,2.468-3.949,35.745,35.745,0,0,0,1.855-4.306,22.484,22.484,0,0,0,1.328-9.242l.408.374-3.046-.085c-16.679-.562-32.967-1-48.693-1.7l-45.374-1.7.392-.272a42.006,42.006,0,0,1-8.067,14.177,38.81,38.81,0,0,1-5.787,5.446,44.229,44.229,0,0,1-6.5,4.238,63.873,63.873,0,0,1-13.854,5.548c-4.68,1.276-9.327,2.128-13.82,2.927-8.952,1.6-17.513,3.1-24.61,6.638a37,37,0,0,0-4.987,2.961c-.783.545-1.481,1.174-2.213,1.7a17.658,17.658,0,0,0-2.059,1.838l-1.974,1.957c-.613.647-1.14,1.362-1.7,2.025a37.618,37.618,0,0,0-2.978,4.119,48.678,48.678,0,0,0-6.689,16.3,47.778,47.778,0,0,0-.936,13.105,32.9,32.9,0,0,0,.647,4.714,24.226,24.226,0,0,0,.817,3.4c.289.885.493,1.549.647,2.025A2.705,2.705,0,0,0,215.286,500.974Z" transform="translate(-212.58 -394.865)" fill="#263238"/>
      <path id="Path_518" data-name="Path 518" d="M295.449,413.6a17.867,17.867,0,0,0,.238-1.855,10.47,10.47,0,0,0-.817-4.9,10.059,10.059,0,0,0-4.9-5.276,11.233,11.233,0,0,0-15.079,5.787,12.578,12.578,0,0,0-1,7.233,12.389,12.389,0,0,0,1.7,4.663c.647,1.021,1.123,1.5,1.072,1.549a4.9,4.9,0,0,1-1.328-1.362,11.387,11.387,0,0,1-2.093-4.748,12.78,12.78,0,0,1,.868-7.659,11.914,11.914,0,0,1,16.135-6.161,10.484,10.484,0,0,1,5.106,5.752,9.956,9.956,0,0,1,.579,5.106,7.3,7.3,0,0,1-.341,1.378C295.551,413.465,295.483,413.6,295.449,413.6Z" transform="translate(-170.168 -399.705)" fill="#263238"/>
      <path id="Path_519" data-name="Path 519" d="M305.021,413.6c-.085,0,.136-.664.238-1.855a10.689,10.689,0,0,0-.817-4.9,10.11,10.11,0,0,0-4.919-5.276,11.25,11.25,0,0,0-15.079,5.787,12.56,12.56,0,0,0-.987,7.233,12.117,12.117,0,0,0,1.7,4.663c.647,1.021,1.123,1.5,1.072,1.549a4.546,4.546,0,0,1-1.345-1.361,11.609,11.609,0,0,1-2.093-4.749,12.935,12.935,0,0,1,.885-7.659,11.914,11.914,0,0,1,16.118-6.161,10.482,10.482,0,0,1,5.106,5.752,10.213,10.213,0,0,1,.6,5.106,6.043,6.043,0,0,1-.357,1.379,1.211,1.211,0,0,1-.119.494Z" transform="translate(-163.453 -399.702)" fill="#263238"/>
      <path id="Path_520" data-name="Path 520" d="M312.257,413.862a17.323,17.323,0,0,0,.136-1.872,10.6,10.6,0,0,0-1.089-4.851,10.076,10.076,0,0,0-5.208-4.97,11.336,11.336,0,0,0-8.748.17,11.471,11.471,0,0,0-5.974,6.433,12.645,12.645,0,0,0-.6,7.284,12.2,12.2,0,0,0,2.042,4.561c.7.97,1.208,1.43,1.157,1.481a4.563,4.563,0,0,1-1.413-1.276,11.5,11.5,0,0,1-2.366-4.629,12.918,12.918,0,0,1,.443-7.693,11.914,11.914,0,0,1,15.76-7.063,10.484,10.484,0,0,1,5.429,5.446,9.973,9.973,0,0,1,.885,5.106,6.076,6.076,0,0,1-.272,1.4A.986.986,0,0,1,312.257,413.862Z" transform="translate(-158.366 -399.115)" fill="#263238"/>
      <path id="Path_521" data-name="Path 521" d="M320.1,414.074V412.2a10.413,10.413,0,0,0-1.345-4.782,10.041,10.041,0,0,0-5.463-4.7,11.233,11.233,0,0,0-14.348,7.387,12.525,12.525,0,0,0-.2,7.3,12.37,12.37,0,0,0,2.281,4.459c.749.919,1.276,1.345,1.225,1.413a4.76,4.76,0,0,1-1.481-1.208,11.588,11.588,0,0,1-2.6-4.493,12.918,12.918,0,0,1,0-7.71,12.05,12.05,0,0,1,5.974-7.25,11.913,11.913,0,0,1,9.395-.63,10.553,10.553,0,0,1,5.719,5.106,10.04,10.04,0,0,1,1.14,5.106,7.076,7.076,0,0,1-.187,1.4C320.186,413.921,320.135,414.074,320.1,414.074Z" transform="translate(-152.918 -398.578)" fill="#263238"/>
      <path id="Path_522" data-name="Path 522" d="M327.872,413.773V411.9a10.433,10.433,0,0,0-1.48-4.748,10.093,10.093,0,0,0-5.583-4.544,11.216,11.216,0,0,0-14.143,7.795,12.441,12.441,0,0,0,2.4,11.693c.783.9,1.327,1.31,1.276,1.362a4.341,4.341,0,0,1-1.515-1.14,11.777,11.777,0,0,1-2.723-4.425,12.883,12.883,0,0,1-.187-7.71,12.1,12.1,0,0,1,5.77-7.421,11.915,11.915,0,0,1,9.361-.885,10.587,10.587,0,0,1,5.872,4.97,10.094,10.094,0,0,1,1.277,5.106,6.677,6.677,0,0,1-.153,1.413C327.957,413.6,327.906,413.773,327.872,413.773Z" transform="translate(-147.413 -398.583)" fill="#263238"/>
      <path id="Path_523" data-name="Path 523" d="M334.48,414.813v-1.872a10.4,10.4,0,0,0-1.294-4.8,10.093,10.093,0,0,0-5.4-4.749,11.216,11.216,0,0,0-14.433,7.216,12.51,12.51,0,0,0,1.923,11.778c.749.936,1.259,1.362,1.225,1.43a4.645,4.645,0,0,1-1.464-1.225,11.352,11.352,0,0,1-2.553-4.527,12.85,12.85,0,0,1,.119-7.71,12.05,12.05,0,0,1,6.059-7.182,11.914,11.914,0,0,1,9.395-.511,10.433,10.433,0,0,1,5.651,5.208,9.991,9.991,0,0,1,1.089,5.106,6.813,6.813,0,0,1-.2,1.4C334.565,414.66,334.513,414.83,334.48,414.813Z" transform="translate(-142.822 -398.142)" fill="#263238"/>
    </g>
    <g id="freepik--air-balloon--inject-5" transform="translate(473.08 323.798)">
      <path id="Path_524" data-name="Path 524" d="M380.865,204.667a92.883,92.883,0,0,0-14.075.647,58.53,58.53,0,0,0-51.059,58.36,104.333,104.333,0,0,0,3.625,27.827c8.186,29.035,10.705,54.616,9.769,67.091l27.4,14.722s12.68-18.228,24.934-26.091,53.033-28.933,69.185-50.463c10.4-13.922,12.407-42.549-12.407-67.5A84.128,84.128,0,0,0,380.865,204.667Z" transform="translate(-308.157 -204.625)" fill="#ff725e"/>
      <path id="Path_525" data-name="Path 525" d="M319.143,313.71l24.746,13.377-16.1,20.458-16.509-7.489Z" transform="translate(-311.28 -128.053)" fill="#455a64"/>
      <path id="Path_526" data-name="Path 526" d="M316.616,327.615c-.221-.085,2.23-7.438,5.48-16.407s6.059-16.2,6.28-16.117-2.23,7.42-5.48,16.407S316.837,327.683,316.616,327.615Z" transform="translate(-307.544 -141.123)" fill="#263238"/>
      <path id="Path_527" data-name="Path 527" d="M329.533,333.635c-.2-.119,3.676-7.063,8.646-15.5S347.353,303,347.574,303s-3.676,7.063-8.663,15.5S329.72,333.72,329.533,333.635Z" transform="translate(-298.472 -135.571)" fill="#263238"/>
      <g id="Group_35" data-name="Group 35" transform="translate(29.647 0.795)" opacity="0.4">
        <path id="Path_528" data-name="Path 528" d="M379.929,205.122c-1.106,0-14.722,16-20.747,26.789-20.27,36.3-21.189,71.618-26.806,112.806-.8,5.889-3.727,18.568-3.676,18.279,3,2.349,13.071,7.029,13.071,7.029s9.514-11.471,13.292-17.241c15.113-23.1,31.537-41.119,44.489-65.508s25.41-45.953,13.428-70.9C412.981,216.372,392.183,204.424,379.929,205.122Z" transform="translate(-328.7 -205.093)"/>
      </g>
      <path id="Path_529" data-name="Path 529" d="M451,284.393a4.575,4.575,0,0,1-.357-.783c-.221-.51-.494-1.31-.953-2.3a41.131,41.131,0,0,0-4.783-8.05,41.863,41.863,0,0,0-10.5-9.8,40.2,40.2,0,0,0-17.241-6.382h-.2l-.1-.136a97.231,97.231,0,0,0-11.046-12.7,55.721,55.721,0,0,0-15.1-10.382,38.788,38.788,0,0,0-17.854-3.4,29.461,29.461,0,0,0-15.607,5.208l-.255.17-.221-.2a30.635,30.635,0,0,0-16.679-7.4,30.074,30.074,0,0,0-14.177,1.8,31.831,31.831,0,0,0-8.135,4.578c-.851.681-1.5,1.225-1.906,1.6a4.294,4.294,0,0,1-.664.545,7.436,7.436,0,0,1,.578-.63c.392-.408,1-.987,1.838-1.7a29.863,29.863,0,0,1,8.135-4.816,30.243,30.243,0,0,1,14.415-2.008,31.13,31.13,0,0,1,17.1,7.472h-.477a30.141,30.141,0,0,1,16.016-5.4,39.69,39.69,0,0,1,18.228,3.4,56.164,56.164,0,0,1,15.318,10.569,94.955,94.955,0,0,1,11.1,12.85l-.255-.153a40.216,40.216,0,0,1,17.5,6.6,42.019,42.019,0,0,1,10.535,10.059,38.7,38.7,0,0,1,4.629,8.238c.425,1,.664,1.821.851,2.349a6.612,6.612,0,0,1,.272.8Z" transform="translate(-308.514 -188.615)" fill="#263238"/>
      <path id="Path_530" data-name="Path 530" d="M396.873,297.4a17.667,17.667,0,0,0-2.366-5.94,16.168,16.168,0,0,0-5.259-5.106,14.722,14.722,0,0,0-9.071-2.145h-.341v-.34a23.874,23.874,0,0,0-34.8-17.36l-.255.136-.2-.221a17.36,17.36,0,0,0-9.514-5.106,19.18,19.18,0,0,0-8.51.272,19.962,19.962,0,0,0-6.808,3.4,2.146,2.146,0,0,1,.357-.374c.255-.221.63-.579,1.157-.97a17.174,17.174,0,0,1,5.106-2.468,19.233,19.233,0,0,1,8.765-.443A17.768,17.768,0,0,1,345.082,266l-.459-.085a24.764,24.764,0,0,1,9.769-2.825,25.086,25.086,0,0,1,10.995,1.7,24.168,24.168,0,0,1,10.5,8.2,24.457,24.457,0,0,1,4.561,10.944l-.391-.306a15.318,15.318,0,0,1,9.446,2.366,16.406,16.406,0,0,1,5.31,5.327,14.264,14.264,0,0,1,1.8,4.493,11.368,11.368,0,0,1,.187,1.259,1.992,1.992,0,0,1,.068.323Z" transform="translate(-305.341 -165.454)" fill="#263238"/>
      <path id="Path_531" data-name="Path 531" d="M336.988,329.965a2.458,2.458,0,0,0-.9-.613,4.476,4.476,0,0,0-2.893.1,8.742,8.742,0,0,1-2.2.391,3.4,3.4,0,0,1-2.451-1.072c-1.31-1.379-1.8-3.4-3.046-4.714a2.86,2.86,0,0,0-2.281-.97,14.257,14.257,0,0,0-2.587.528,5.8,5.8,0,0,1-2.587.136,4.953,4.953,0,0,1-3.659-3.8,1.974,1.974,0,0,1,0-1.157,3.111,3.111,0,0,0,.289,1.089,5,5,0,0,0,1.7,2.366,3.917,3.917,0,0,0,1.787.8,5.109,5.109,0,0,0,2.264-.2,13.608,13.608,0,0,1,2.74-.579,3.641,3.641,0,0,1,2.927,1.208c1.447,1.7,1.889,3.574,3,4.748a2.774,2.774,0,0,0,1.906.919,7.87,7.87,0,0,0,2.025-.289,4.459,4.459,0,0,1,3.183.2C336.92,329.471,337.022,329.965,336.988,329.965Z" transform="translate(-309.161 -124.48)" fill="#263238"/>
      <path id="Path_532" data-name="Path 532" d="M339.1,328.223a104.6,104.6,0,0,1-12.067-5.957,110.47,110.47,0,0,1-11.693-6.706,109.093,109.093,0,0,1,12.084,5.957A111.173,111.173,0,0,1,339.1,328.223Z" transform="translate(-308.43 -126.754)" fill="#263238"/>
      <path id="Path_533" data-name="Path 533" d="M335.379,330.607s-.34.17-.936.443c-.306.136-.647.34-1.123.545a4.188,4.188,0,0,1-1.7.221,7.08,7.08,0,0,1-4.085-1.583,5.6,5.6,0,0,1-1.549-2.127,7.743,7.743,0,0,0-1.208-2.23,5.736,5.736,0,0,0-4.476-1.293,10.31,10.31,0,0,1-4.306-.409,4.016,4.016,0,0,1-2.179-1.991c-.272-.664-.17-1.089-.136-1.072a5.9,5.9,0,0,0,.443.919,3.881,3.881,0,0,0,2.093,1.583,10.211,10.211,0,0,0,4.051.187,6.365,6.365,0,0,1,5.106,1.5,8.512,8.512,0,0,1,1.328,2.468,5.106,5.106,0,0,0,1.31,1.889,6.91,6.91,0,0,0,3.625,1.566,5.106,5.106,0,0,0,2.655-.477C334.988,330.556,335.379,330.556,335.379,330.607Z" transform="translate(-309.629 -122.858)" fill="#263238"/>
    </g>
    <g id="freepik--Character--inject-5" transform="translate(198.471 140.65)">
      <path id="Path_534" data-name="Path 534" d="M219.511,247.852l42.8-6.348L241.892,212.57l-10.961.647A19.555,19.555,0,0,0,214.1,224.994h0a19.622,19.622,0,0,0-1.242,11.471Z" transform="translate(-106.01 -15.9)" fill="#ff725e"/>
      <path id="Path_535" data-name="Path 535" d="M219.511,247.852l42.8-6.348L241.892,212.57l-10.961.647A19.555,19.555,0,0,0,214.1,224.994h0a19.622,19.622,0,0,0-1.242,11.471Z" transform="translate(-106.01 -15.9)" opacity="0.4"/>
      <path id="Path_536" data-name="Path 536" d="M343.017,308.809c.443,1.225.919,2.672,1.413,4.408a13.96,13.96,0,0,1,.459,4.6,21.311,21.311,0,0,1-.97,5.65c-.7,1.7.936,3.268,2.315,2.451s3.4-5.242,3.4-10.927,5.684,1.123,7.846,3.574,9.207,9.718,10.484,9.65c1.872-.1,2.111-2.127-.1-4.527s-8.357-10.042-7.012-11.131,12.169,11.556,12.169,11.556,1.872,3.081,3.4,1.889c2.893-2.161-9.616-14.739-10.841-15.9-.834-.817.579-2.042,1.447-1.123s10.518,12.85,13.48,10.671c2.264-1.7-10.212-10.433-10.824-14.007s8.782,7.608,10.876,5.94c.8-.63,1.294-1.208-5.106-6.808-3.063-2.757-14.739-10.927-14.739-10.927L325.589,193.28,298.46,208.819Z" transform="translate(-45.671 -29.441)" fill="#ffbe9d"/>
      <path id="Path_537" data-name="Path 537" d="M238.158,175.867l-39.247-46.838h0a27.333,27.333,0,0,0-1.923-4.68,14.722,14.722,0,0,0-9.259-7.727c-2.485-.545-5.344-.272-7.3-1.906-.868-.732-1.447-1.7-2.366-2.451s-2.434-.817-3.029.153a2.672,2.672,0,0,0,.17,2.349,21.836,21.836,0,0,0,6.808,8.782c-3.676,1.123-8.935,2.825-8.935,2.825s-8.288-9-12.543-8.986,3.4,8.05,3.4,8.05-6.808-6.3-8.918-4.527,3.3,6.45,3.3,6.45a9.02,9.02,0,0,0-5.531-1.549c-1.923.323-3.574,2.587-2.536,4.238a4.426,4.426,0,0,0,1.7,1.379l10.45,5.821a12.643,12.643,0,0,0,5.582,2.042c5.31.17,9.344-3.115,14.637-2.978,0,0,29.6,62.309,32.593,65.525s68.078,7.591,68.078,7.591l37.63-32.422Z" transform="translate(-149.932 -86.71)" fill="#ffbe9d"/>
      <path id="Path_538" data-name="Path 538" d="M275.437,348.83l40.081,17.445-21.445,49.987c-4.663-2.332-3.132-32.337-3.132-32.337L264.8,373.8Z" transform="translate(-69.299 79.749)" fill="#ff725e"/>
      <g id="Group_36" data-name="Group 36" transform="translate(225.672 446.518)" opacity="0.6">
        <path id="Path_539" data-name="Path 539" d="M282.941,360.169a2.229,2.229,0,0,1,2.944-.425,2.144,2.144,0,0,1,.426,2.91,2.332,2.332,0,0,1-3.1.425,2.213,2.213,0,0,1-.119-3.081" transform="translate(-282.527 -359.371)" fill="#fff"/>
      </g>
      <path id="Path_540" data-name="Path 540" d="M304.147,359.74l-4.119-1.6L281,406.663s0,2.655,1.7,3.064Z" transform="translate(-57.927 86.284)" fill="#fff" opacity="0.6"/>
      <path id="Path_541" data-name="Path 541" d="M279.818,371.32c.255.085.885-1.089,2.2-1.94s2.587-1.072,2.587-1.328-1.566-.511-3.114.562S279.58,371.269,279.818,371.32Z" transform="translate(-58.804 93.085)" fill="#263238"/>
      <path id="Path_542" data-name="Path 542" d="M279.756,374.392c.221.17,1.089-.715,2.485-1.106s2.57-.153,2.672-.391-1.225-1-2.944-.494S279.535,374.29,279.756,374.392Z" transform="translate(-58.828 96.174)" fill="#263238"/>
      <path id="Path_543" data-name="Path 543" d="M284.75,377.262c.153-.2-.936-1.072-2.536-1.021s-2.621.97-2.468,1.157,1.174-.2,2.5-.221S284.614,377.534,284.75,377.262Z" transform="translate(-58.818 98.988)" fill="#263238"/>
      <path id="Path_544" data-name="Path 544" d="M276.542,370.232c.272,0,.409-1.276,1.106-2.6s1.583-2.23,1.43-2.451-1.481.442-2.264,2.025S276.3,370.266,276.542,370.232Z" transform="translate(-61.23 91.194)" fill="#263238"/>
      <path id="Path_545" data-name="Path 545" d="M273.963,369.58a5.326,5.326,0,0,0,1.055-2.5,11.683,11.683,0,0,0,.324-2.961,12.965,12.965,0,0,0-.136-1.7,3.3,3.3,0,0,0-.272-1,1.14,1.14,0,0,0-1.243-.664,1.413,1.413,0,0,0-1.021.817,3.709,3.709,0,0,0-.272,1,9.546,9.546,0,0,0,.391,4.748c.562,1.617,1.31,2.4,1.4,2.332s-.391-.97-.783-2.519a11.3,11.3,0,0,1-.289-2.774,11.1,11.1,0,0,1,.17-1.7c.085-.579.272-1.038.579-1.072s.136,0,.255.17a3.412,3.412,0,0,1,.187.749,14.009,14.009,0,0,1,.187,1.7,14.542,14.542,0,0,1-.119,2.808,19.191,19.191,0,0,0-.408,2.57Z" transform="translate(-64.063 88.102)" fill="#263238"/>
      <path id="Path_546" data-name="Path 546" d="M277.156,366.905a5.357,5.357,0,0,0-2.127-1.7,8.676,8.676,0,0,0-2.893-.834,7.8,7.8,0,0,0-1.7,0,2.3,2.3,0,0,0-1.957,1.055,1.294,1.294,0,0,0,.255,1.345,3.88,3.88,0,0,0,.817.647,6.115,6.115,0,0,0,1.7.732,6.3,6.3,0,0,0,3.029,0c1.7-.425,2.451-1.31,2.383-1.362a22.968,22.968,0,0,1-2.5.715,6.227,6.227,0,0,1-2.689-.2,5.773,5.773,0,0,1-1.43-.681c-.494-.306-.834-.681-.7-.851a1.515,1.515,0,0,1,1.191-.528,8.808,8.808,0,0,1,1.7,0,9.815,9.815,0,0,1,2.706.579C276.237,366.36,277.071,367.007,277.156,366.905Z" transform="translate(-66.78 90.624)" fill="#263238"/>
      <path id="Path_547" data-name="Path 547" d="M252.91,392.764,269.487,427.5l5.191,31.35a3.932,3.932,0,0,0,4.8,3.183h0a3.9,3.9,0,0,0,2.74-2.349c3.046-7.54,14.126-35.367,12.765-37.834-1.566-2.859-15.062-37.8-15.062-37.8Z" transform="translate(-77.645 104.472)" fill="#ff725e"/>
      <path id="Path_548" data-name="Path 548" d="M268.52,447.369l14.433-42.549.681,1.481a5.941,5.941,0,0,1,.289,4.085c-1.055,3.625-4.17,13.616-12.561,34.584a3.914,3.914,0,0,1-2.842,2.4Z" transform="translate(-66.687 119.051)" fill="#fff" opacity="0.6"/>
      <g id="Group_37" data-name="Group 37" transform="translate(203.666 514.715)" opacity="0.6">
        <path id="Path_549" data-name="Path 549" d="M269.908,400.512a2.366,2.366,0,0,0,.681,3.1,2.3,2.3,0,0,0,3.1-.647,2.536,2.536,0,0,0-.749-3.285,2.366,2.366,0,0,0-3.132,1.038" transform="translate(-269.597 -399.44)" fill="#fff"/>
      </g>
      <path id="Path_550" data-name="Path 550" d="M272.767,419.6a8.51,8.51,0,0,0-8.7-.306,2.748,2.748,0,0,1,1.021-1.021,6.093,6.093,0,0,1,3.4-.868,6.18,6.18,0,0,1,3.319,1.089C272.563,419.036,272.835,419.53,272.767,419.6Z" transform="translate(-69.811 127.88)" fill="#263238"/>
      <path id="Path_551" data-name="Path 551" d="M272.061,422.554a29.351,29.351,0,0,0-3.778-.1,32.637,32.637,0,0,0-3.625,1.089c-.187-.136,1.174-1.7,3.506-1.94A4.357,4.357,0,0,1,272.061,422.554Z" transform="translate(-69.411 130.744)" fill="#263238"/>
      <path id="Path_552" data-name="Path 552" d="M275.093,414.508a38.361,38.361,0,0,0-5.821-.562,36.158,36.158,0,0,0-5.753,1.123,10.739,10.739,0,0,1,11.573-.562Z" transform="translate(-70.197 124.851)" fill="#263238"/>
      <path id="Path_553" data-name="Path 553" d="M271.727,407.561c0,.255-2.3.306-4.868,1.362s-4.289,2.536-4.459,2.349a7.659,7.659,0,0,1,4.153-3.149,7.573,7.573,0,0,1,5.174-.562Z" transform="translate(-70.983 120.82)" fill="#263238"/>
      <path id="Path_554" data-name="Path 554" d="M268.983,401.548a19.591,19.591,0,0,0-5.106,1.293,18.851,18.851,0,0,0-4.119,3.251c-.085,0,.085-.664.7-1.481a8.593,8.593,0,0,1,6.927-3.421C268.4,401.224,269,401.462,268.983,401.548Z" transform="translate(-72.852 116.503)" fill="#263238"/>
      <path id="Path_555" data-name="Path 555" d="M264.856,404.513a3.966,3.966,0,0,1-.647-1.31,10.3,10.3,0,0,1-.494-3.949,4.476,4.476,0,0,1,.868-2.74,1.583,1.583,0,0,1,1.7-.425,2.655,2.655,0,0,1,1.276,1.345,5.565,5.565,0,0,1-2.349,6.706,6.484,6.484,0,0,1-7.182-.476,2.23,2.23,0,0,1-.851-1.7,1.549,1.549,0,0,1,1.14-1.413,5.6,5.6,0,0,1,2.859.17,11,11,0,0,1,3.625,1.7c.766.528,1.106.919,1.072.97a17.021,17.021,0,0,0-4.834-2.042,4.985,4.985,0,0,0-2.5-.085.834.834,0,0,0-.63.766,1.6,1.6,0,0,0,.63,1.055,5.77,5.77,0,0,0,6.229.357,4.833,4.833,0,0,0,2.144-5.736,1.787,1.787,0,0,0-.851-.97.834.834,0,0,0-.97.2,3.949,3.949,0,0,0-.783,2.315A15.1,15.1,0,0,0,264.856,404.513Z" transform="translate(-74.648 112.857)" fill="#263238"/>
      <path id="Path_556" data-name="Path 556" d="M352.128,439.009l-45.459-30.635L321.714,260.66l-43.06-25.138L239.289,226.4s-16.441,34.209-23.827,56.165C199.905,329.147,189,345.843,191.5,379.576c.783,10.688,40.234,37.443,65.151,52.267a80.981,80.981,0,0,0,1.328,8.833c8.51,38.5,34.516,89.693,34.516,89.693l39.485-18.364L319.246,468.35l13.275,7.744ZM254.419,343.7l5.31-23.674c-1.123,15.062-2.145,30.771-2.876,45.834a47.042,47.042,0,0,1-2.434-22.108Z" transform="translate(-121.005 -6.192)" fill="#263238"/>
      <path id="Path_557" data-name="Path 557" d="M266.546,512.884a3.75,3.75,0,0,1-.306-.63l-.834-1.855-3.047-7.2c-2.621-6.28-6.382-15.318-10.893-26.636s-9.854-24.729-15.318-39.877c-1.345-3.8-2.655-7.693-3.9-11.727-.545-2.042-1.242-4.051-1.6-6.212-.1-.528-.221-1.072-.306-1.6l-.187-1.617L229.8,412.3q-.715-6.535-1.14-13.309c-.136-2.247-.255-4.527-.357-6.808a59.066,59.066,0,0,1,0-6.944c.681-18.551,2.23-36.15,3.523-52.165s2.536-30.414,3.557-42.549,1.7-21.9,2.042-28.7c.221-3.4.34-6.025.408-7.8l.119-2.042a2.576,2.576,0,0,1,0-.681,4.057,4.057,0,0,1,0,.681v2.042c0,1.787-.085,4.425-.238,7.812-.289,6.808-.885,16.611-1.787,28.729s-2.11,26.534-3.4,42.549-2.774,33.614-3.4,52.114c-.136,2.315,0,4.6,0,6.893s.2,4.544.357,6.808q.408,6.808,1.106,13.258l.357,3.251.187,1.6c.085.528.2,1.038.306,1.566.34,2.076,1.021,4.1,1.566,6.127,1.208,4,2.519,7.9,3.846,11.692,5.344,15.13,10.637,28.593,15.062,39.911s8.118,20.424,10.654,26.721c1.242,3.132,2.23,5.565,2.91,7.267.306.8.562,1.43.732,1.889A2.436,2.436,0,0,0,266.546,512.884Z" transform="translate(-94.991 11.294)" fill="#455a64"/>
      <path id="Path_558" data-name="Path 558" d="M234.888,261.735a7,7,0,0,1-1.021-.834,10.738,10.738,0,0,1-1.923-3.1,33.086,33.086,0,0,1-1.94-11.71,99.117,99.117,0,0,1,.562-11.914,27.06,27.06,0,0,1,.681-4.851,28.777,28.777,0,0,1,0,4.9c-.153,3.012-.391,7.182-.323,11.778a38.07,38.07,0,0,0,1.7,11.522,13.156,13.156,0,0,0,1.617,3.081A6.557,6.557,0,0,1,234.888,261.735Z" transform="translate(-93.73 -4.136)" fill="#455a64"/>
      <path id="Path_559" data-name="Path 559" d="M228.871,227.72a9.907,9.907,0,0,1,.34,4.119A19.062,19.062,0,0,1,218.336,247.8a10.058,10.058,0,0,1-3.966,1.191c0-.136,1.481-.545,3.693-1.7a20.152,20.152,0,0,0,10.552-15.471C228.9,229.3,228.718,227.72,228.871,227.72Z" transform="translate(-104.698 -5.266)" fill="#455a64"/>
      <path id="Path_560" data-name="Path 560" d="M268.787,278.18v.443a6.793,6.793,0,0,1-.1,1.31q-.2,1.838-.511,5.106c-.494,4.442-1.174,10.756-2.025,18.517-1.7,15.709-4.221,37.273-6.91,61.117a111.255,111.255,0,0,0,2.23,33.529,115.764,115.764,0,0,0,4.1,14.126c1.532,4.357,2.944,8.425,4.255,12.152,2.57,7.386,4.646,13.394,6.11,17.615.681,2.042,1.225,3.642,1.7,4.8l.408,1.259a1.362,1.362,0,0,1,.1.426.933.933,0,0,0-.187-.408,7.1,7.1,0,0,1-.477-1.226c-.442-1.14-1.021-2.723-1.7-4.748l-6.365-17.513c-1.327-3.71-2.791-7.778-4.357-12.118a114.98,114.98,0,0,1-4.2-14.211,110.524,110.524,0,0,1-2.332-33.767c2.655-23.912,5.31-45.459,7.165-61.1.97-7.761,1.7-14.075,2.3-18.5.272-2.145.494-3.812.664-5.106a7.3,7.3,0,0,1,.187-1.294,1.443,1.443,0,0,1-.051-.408Z" transform="translate(-73.983 30.155)" fill="#455a64"/>
      <path id="Path_561" data-name="Path 561" d="M219.43,233.6l6.978-17.82,15.913,23.725L221.1,234.212" transform="translate(-101.147 -13.647)" fill="#ffbe9d"/>
      <path id="Path_562" data-name="Path 562" d="M391.7,229.194,372.83,186.867c-2.264-6.808-6.5-7.863-10.042-11.812l-47.3-26.67c-34.482-14.126-53.254,33.222-53.254,33.222L230.9,253.09c-36.847,12.2-10.756,40.507-10.756,40.507s-10.025-17.428-.153-23.708c10.314-6.586,21.751,10.756,32.746,27.231,12.986,19.436,55.16,32.065,55.16,32.065,4.936-5.208,3.557-23.4,7.42-33.171,1.225-3.081,30.431-70.733,30.431-70.733L357.069,252.7s14.5-17.02,21.547-19.709A80.211,80.211,0,0,1,391.7,229.194Z" transform="translate(-106.935 -62.803)" fill="#ff725e"/>
      <path id="Path_563" data-name="Path 563" d="M284.566,215.017a7.067,7.067,0,0,1-1.43,1,27.638,27.638,0,0,1-4.306,2.025,30.789,30.789,0,0,1-29.886-4.612,26.491,26.491,0,0,1-3.489-3.234,5.547,5.547,0,0,1-1.055-1.379c.119-.119,1.7,1.8,4.9,4.136a31.98,31.98,0,0,0,29.325,4.527C282.4,216.226,284.566,214.881,284.566,215.017Z" transform="translate(-83.619 -18.535)" fill="#263238"/>
      <path id="Path_564" data-name="Path 564" d="M222.2,192.613h0l29.189,2.757,46.7-49.357-27.47-.953-48.9,4.834A126.865,126.865,0,0,1,222.2,192.613Z" transform="translate(-99.539 -63.29)" fill="#ff725e"/>
      <path id="Path_565" data-name="Path 565" d="M261.915,157.74a3.081,3.081,0,0,1-.357.9l-1.174,2.519c-1.055,2.281-2.536,5.429-4.323,9.242-3.625,7.829-8.51,18.722-13.616,30.805s-9.973,23.027-13.616,30.874c-1.787,3.931-3.268,7.08-4.323,9.259l-1.242,2.485a4.152,4.152,0,0,1-.494.851,5.627,5.627,0,0,1,.34-.919L224.2,241.2l4.085-9.361c3.4-8.016,8.152-18.926,13.326-30.976s10.212-22.942,13.9-30.72c1.889-3.88,3.4-7,4.578-9.139.545-.987.97-1.8,1.311-2.451A4.511,4.511,0,0,1,261.915,157.74Z" transform="translate(-98.802 -54.389)" fill="#263238"/>
      <path id="Path_566" data-name="Path 566" d="M304.522,166.17c.085.153-1.7,1.089-4.2,3.2a30.2,30.2,0,0,0-3.931,4.068,33.33,33.33,0,0,0-3.71,5.872,34.713,34.713,0,0,0-2.315,6.536,29.727,29.727,0,0,0-.749,5.634c-.119,3.234.255,5.242.085,5.259a4.935,4.935,0,0,1-.341-1.379,10.034,10.034,0,0,1-.238-1.7A17.69,17.69,0,0,1,289,191.41a26.689,26.689,0,0,1,.6-5.787,32.338,32.338,0,0,1,2.3-6.808,32.689,32.689,0,0,1,3.864-5.991,27.539,27.539,0,0,1,4.17-4.034,16.057,16.057,0,0,1,1.821-1.293,10.407,10.407,0,0,1,1.447-.868A4.458,4.458,0,0,1,304.522,166.17Z" transform="translate(-52.312 -48.471)" fill="#263238"/>
      <path id="Path_567" data-name="Path 567" d="M328.6,145.286l-27.384,51.195a18.075,18.075,0,0,1-23.3,7.965h0a18.058,18.058,0,0,1-8.51-24.917l4.714-8.884s-11.914-7.71-6.331-20.577c4.97-11.471,23.215-43.877,27.078-50.718l23.079,10.331a25.921,25.921,0,0,1,10.654,35.6Z" transform="translate(-68.242 -95.376)" fill="#ffbe9d"/>
      <path id="Path_568" data-name="Path 568" d="M271.525,141.13a32.661,32.661,0,0,0,18.807,2.723s-8.067,7.438-20.321.579Z" transform="translate(-65.641 -66.048)" fill="#eb996e"/>
      <path id="Path_569" data-name="Path 569" d="M276.146,117.506a2.008,2.008,0,0,0,.936,2.638,1.923,1.923,0,0,0,2.621-.8,2.008,2.008,0,0,0-.936-2.638,1.923,1.923,0,0,0-2.621.8Z" transform="translate(-61.463 -83.356)" fill="#263238"/>
      <path id="Path_570" data-name="Path 570" d="M276.133,116.463c.119.34,1.957,0,3.932.817s2.961,2.5,3.285,2.366.1-.6-.306-1.328a5.583,5.583,0,0,0-2.5-2.2,5.344,5.344,0,0,0-3.268-.357C276.473,115.953,276.065,116.242,276.133,116.463Z" transform="translate(-61.348 -83.931)" fill="#263238"/>
      <path id="Path_571" data-name="Path 571" d="M286.958,122.828a1.991,1.991,0,0,0,.936,2.638,1.923,1.923,0,0,0,2.621-.817,2.008,2.008,0,0,0-.936-2.621,1.906,1.906,0,0,0-2.621.8Z" transform="translate(-53.877 -79.624)" fill="#263238"/>
      <path id="Path_572" data-name="Path 572" d="M287.393,121.749c.119.34,1.957,0,3.932.817s2.961,2.519,3.285,2.383.119-.6-.306-1.345a5.565,5.565,0,0,0-2.5-2.179,5.226,5.226,0,0,0-3.268-.357C287.733,121.255,287.325,121.6,287.393,121.749Z" transform="translate(-53.444 -80.213)" fill="#263238"/>
      <path id="Path_573" data-name="Path 573" d="M281.241,134.7a14.813,14.813,0,0,0-2.927-1.991c-.477-.289-.919-.6-.851-.97a3.335,3.335,0,0,1,1-1.345l3.2-3.166a72.757,72.757,0,0,0,7.812-8.51,70.834,70.834,0,0,0-8.51,7.846l-3.149,3.217a3.183,3.183,0,0,0-1.14,1.855,1.446,1.446,0,0,0,.494,1.106,3.931,3.931,0,0,0,.8.494A13.034,13.034,0,0,0,281.241,134.7Z" transform="translate(-60.959 -81.779)" fill="#263238"/>
      <path id="Path_574" data-name="Path 574" d="M285.956,130.433c-.306-.153-1.259,1.974-3.761,2.672s-4.68-.545-4.834-.255.323.63,1.276,1.089a5.77,5.77,0,0,0,3.966.34,5,5,0,0,0,3.03-2.3C286.11,131.131,286.11,130.5,285.956,130.433Z" transform="translate(-60.501 -73.563)" fill="#263238"/>
      <path id="Path_575" data-name="Path 575" d="M289.12,116.971c0,.63,2.025,1.242,4.2,2.553s3.778,2.774,4.289,2.434c.238-.17.136-.817-.374-1.7a8.646,8.646,0,0,0-6.485-3.8C289.767,116.46,289.137,116.681,289.12,116.971Z" transform="translate(-52.227 -83.366)" fill="#263238"/>
      <path id="Path_576" data-name="Path 576" d="M278.054,113.4c.153.613,1.7.749,3.4,1.447s2.876,1.7,3.4,1.327.238-.715-.187-1.4a4.885,4.885,0,0,0-2.366-1.94,4.986,4.986,0,0,0-3.063-.289C278.395,112.686,277.969,113.06,278.054,113.4Z" transform="translate(-60.002 -86.195)" fill="#263238"/>
      <path id="Path_577" data-name="Path 577" d="M300.384,130.85c.272,0,9.956,1.328,5.77,9.956s-11.914,2.638-11.914,2.383S300.384,130.85,300.384,130.85Z" transform="translate(-48.633 -73.264)" fill="#ffbe9d"/>
      <path id="Path_578" data-name="Path 578" d="M296.753,139.466s.1.17.289.425a1.7,1.7,0,0,0,1.123.562,4.153,4.153,0,0,0,3.4-2.5,5.582,5.582,0,0,0,.63-2.349,1.941,1.941,0,0,0-.579-1.7.851.851,0,0,0-1.089,0c-.221.187-.255.374-.306.374s-.119-.238.119-.562a1.089,1.089,0,0,1,.613-.374,1.276,1.276,0,0,1,.936.187,2.366,2.366,0,0,1,.919,2.093,5.7,5.7,0,0,1-.647,2.655,4.357,4.357,0,0,1-4,2.672,1.924,1.924,0,0,1-1.277-.9C296.667,139.687,296.719,139.466,296.753,139.466Z" transform="translate(-46.891 -71.533)" fill="#eb996e"/>
      <path id="Path_579" data-name="Path 579" d="M312.056,152.572a5.106,5.106,0,0,0-5.106.289c-1.123.987-1.889,2.349-3.012,3.4a3.4,3.4,0,0,1-4.119.647,2.944,2.944,0,0,1-.919-2.808,8.137,8.137,0,0,1,1.242-2.842c2.332-3.846,5-7.523,7.012-11.556a22.96,22.96,0,0,0,2.74-13.054,12.6,12.6,0,0,0-7.659-10.331c-2.808-.987-5.94-.7-8.816-1.515a11.76,11.76,0,0,1-7.557-6.944,20.453,20.453,0,0,0-1.123-1.94c.1-.2,1.123-1.94,2.127-2.281,7.591-2.57,17.853.374,24.134,5.327a27.9,27.9,0,0,1,10.756,20.9c.085,8-4.953,16.815-9.633,22.772" transform="translate(-55.302 -93.03)" fill="#263238"/>
      <path id="Path_580" data-name="Path 580" d="M315.379,155.622c2.4-4.085,6.28-7.029,9.242-10.705s5.106-8.867,2.893-13.088c-.715-1.447-1.872-2.655-2.468-4.153a20.588,20.588,0,0,1-.851-4.783,16.611,16.611,0,0,0-8.237-11.914c-3.029-1.7-6.518-2.383-9.6-4-4.851-2.553-8.408-7.284-13.616-9.31a6.467,6.467,0,0,0-5.293-.17,3.2,3.2,0,0,0-1.311,4.578,2.774,2.774,0,0,0-3.829-1.838,4.187,4.187,0,0,0-2.162,4.1A9.106,9.106,0,0,0,282,108.835a23.044,23.044,0,0,0,13.105,9.037l11.761-.919,9.633,7.131,7.114,11.352L310.7,152.218Z" transform="translate(-58.54 -97.015)" fill="#263238"/>
    </g>
    <g id="freepik--light-bulb--inject-5" transform="translate(298.897 93.459)">
      <path id="Path_581" data-name="Path 581" d="M291.844,108.113a41.494,41.494,0,1,0-56.624,41.272c.323,4.9.681,10.45.681,10.45l36.286-2.349s-.153-5.872-.425-11.114a41.46,41.46,0,0,0,20.083-38.26Z" transform="translate(-208.937 -69.288)" fill="#ff725e"/>
      <path id="Path_582" data-name="Path 582" d="M250.7,140.824V138.8c0-1.311.187-3.268.391-5.77s.493-5.582,1.055-9.105a62.829,62.829,0,0,1,3.012-11.778,40.241,40.241,0,0,1,3.013-6.416,7.71,7.71,0,0,1,2.672-2.723,4.272,4.272,0,0,1,3.932-.119,2.808,2.808,0,0,1,1.413,1.549,2.842,2.842,0,0,1,0,2.144,5.94,5.94,0,0,1-3.012,2.961,11.4,11.4,0,0,1-14.824-6.587,8.714,8.714,0,0,1-.562-4.766,3.727,3.727,0,0,1,3.591-3.115,2.621,2.621,0,0,1,2.2,1.328,3.727,3.727,0,0,1,.494,2.519,8.135,8.135,0,0,1-2.638,4.306,12.322,12.322,0,0,1-9.48,3.4,10.79,10.79,0,0,1-8.391-5.446,6.28,6.28,0,0,1-.6-5,3.029,3.029,0,0,1,4.255-1.872,4.22,4.22,0,0,1,1.872,1.7,6.6,6.6,0,0,1,.783,2.349,11.8,11.8,0,0,1-.323,4.765,12.322,12.322,0,0,1-5.4,7.318,12.56,12.56,0,0,1-8.51,1.7,6.621,6.621,0,0,1-3.846-1.7,3.2,3.2,0,0,1-.494-3.966,2.74,2.74,0,0,1,1.8-1.038,4.034,4.034,0,0,1,2.008.255,5.923,5.923,0,0,1,2.706,2.689c1.191,2.179,2.161,4.306,3.149,6.331,3.847,8.135,6.638,14.858,8.51,19.521.936,2.332,1.7,4.153,2.11,5.378.221.613.392,1.089.528,1.413a3.739,3.739,0,0,1,.153.494l-.2-.477-.579-1.379-2.2-5.361c-1.94-4.629-4.783-11.335-8.663-19.436-.987-2.008-1.991-4.17-3.166-6.3a5.6,5.6,0,0,0-2.519-2.5,2.859,2.859,0,0,0-3.319.647,2.808,2.808,0,0,0,.477,3.4A6.161,6.161,0,0,0,225.7,111.7a12.1,12.1,0,0,0,8.186-1.7,11.913,11.913,0,0,0,5.106-7.046,11.234,11.234,0,0,0,.306-4.578,4.476,4.476,0,0,0-2.366-3.659,2.587,2.587,0,0,0-2.162,0,2.638,2.638,0,0,0-1.413,1.7,5.77,5.77,0,0,0,.562,4.6,10.331,10.331,0,0,0,8,5.106,11.8,11.8,0,0,0,9.071-3.285,7.676,7.676,0,0,0,2.468-3.983,3.285,3.285,0,0,0-.426-2.2,2.179,2.179,0,0,0-1.787-1.089,3.013,3.013,0,0,0-2.025.8,3.4,3.4,0,0,0-1.055,1.923,8.152,8.152,0,0,0,.528,4.493,10.944,10.944,0,0,0,14.3,6.348,5.514,5.514,0,0,0,2.791-2.723,2.451,2.451,0,0,0-1.157-3.149,3.864,3.864,0,0,0-3.557.1,7.387,7.387,0,0,0-2.5,2.553,40.221,40.221,0,0,0-3,6.331,62.053,62.053,0,0,0-3.064,11.675c-.6,3.523-.919,6.587-1.157,9.088s-.357,4.425-.477,5.77c0,.63-.1,1.14-.119,1.5A4.63,4.63,0,0,1,250.7,140.824Z" transform="translate(-200.588 -51.944)" fill="#263238"/>
      <path id="Path_583" data-name="Path 583" d="M258.59,127.086l-31.146,2.025a2.366,2.366,0,0,1-2.5-2.2h0a2.349,2.349,0,0,1,2.2-2.485l31.163-2.008a2.332,2.332,0,0,1,2.485,2.179h0A2.349,2.349,0,0,1,258.59,127.086Z" transform="translate(-197.706 -31.993)" fill="#263238"/>
      <path id="Path_584" data-name="Path 584" d="M258.543,126.36l-31.163,2.025a2.337,2.337,0,1,0,.306,4.663l3.4-.221,5.106,8.357a3.047,3.047,0,0,0,2.774,1.43L250.1,141.9a3.081,3.081,0,0,0,2.57-1.8l3.847-8.9,2.332-.153a2.349,2.349,0,0,0-.306-4.68Z" transform="translate(-197.524 -29.225)" fill="#263238"/>
      <g id="Group_38" data-name="Group 38" transform="translate(4.645 8.364)" opacity="0.2">
        <path id="Path_585" data-name="Path 585" d="M220.216,82.674a30.158,30.158,0,0,1,7.948-6.042,22.414,22.414,0,0,1,6.2-2.281c1.566-.255,2.468-.17,2.57.153.221.749-2.842,2.059-6.808,5.106a34.141,34.141,0,0,0-13.36,34.448c.9,5.021,2.281,8.05,1.7,8.51-.306.187-1.021-.357-1.991-1.6a21.528,21.528,0,0,1-3.1-5.906,30.362,30.362,0,0,1-1.7-9.8A32.338,32.338,0,0,1,213.8,93.09" transform="translate(-211.667 -74.202)" fill="#fff"/>
      </g>
      <g id="Group_39" data-name="Group 39" transform="translate(34.644 4.721)" opacity="0.2">
        <path id="Path_586" data-name="Path 586" d="M234.666,77.165c-2.621.136-4.987-.425-5.344-1.8-.153-.681.289-1.447,1.191-2.076a8.408,8.408,0,0,1,7.829-.477c.987.528,1.5,1.242,1.43,1.94" transform="translate(-229.292 -72.062)" fill="#fff"/>
      </g>
      <path id="Path_587" data-name="Path 587" d="M247.051,135.463a18.167,18.167,0,0,1-2.2-.528,18.14,18.14,0,0,0-5.327-.323,18.381,18.381,0,0,0-5.106,1.311c-1.259.545-2.008.987-2.042.919a6.316,6.316,0,0,1,1.889-1.243,15.318,15.318,0,0,1,5.276-1.481,15.045,15.045,0,0,1,5.463.477A6.585,6.585,0,0,1,247.051,135.463Z" transform="translate(-192.481 -23.828)" fill="#455a64"/>
      <path id="Path_588" data-name="Path 588" d="M254.032,129.275c0,.136-5.617.613-12.577,1.072s-12.577.7-12.594.545,5.616-.613,12.56-1.055S254.015,129.139,254.032,129.275Z" transform="translate(-194.952 -27.205)" fill="#455a64"/>
      <path id="Path_589" data-name="Path 589" d="M251.3,131.515a18.725,18.725,0,0,1-3.046.494c-1.889.255-4.51.528-7.421.766s-5.531.357-7.438.408a17.017,17.017,0,0,1-3.081,0,17.155,17.155,0,0,1,3.064-.34l7.421-.562,7.421-.613A18.161,18.161,0,0,1,251.3,131.515Z" transform="translate(-193.934 -25.615)" fill="#455a64"/>
    </g>
    <g id="freepik--Book--inject-5" transform="translate(80.782 289.682)">
      <path id="Path_590" data-name="Path 590" d="M110.8,260.557l6.808,10.842s28.933-26.568,57.509-19.062C175.066,252.3,149.332,230.484,110.8,260.557Z" transform="translate(-59.711 -142.408)" fill="#ff725e"/>
      <path id="Path_591" data-name="Path 591" d="M148.56,259.737s21.189-23.01,52.267-17.768l8.51,1.276-2.689-4.885S152.543,219.843,148.56,259.737Z" transform="translate(-33.205 -149.841)" fill="#ff725e"/>
      <path id="Path_592" data-name="Path 592" d="M151.257,204.29s-42.447-7.3-70.257,7.761l44.251,83.192s36.184-34.873,70.8-13.394Z" transform="translate(-80.629 -171.987)" fill="#f5f5f5"/>
      <path id="Path_593" data-name="Path 593" d="M151.41,204.4a2.935,2.935,0,0,1,.238.34l.63,1.055,2.451,4.136,9.191,15.76,32.541,56.165a.374.374,0,0,1-.511.511,46.751,46.751,0,0,0-16.288-6.246,51.058,51.058,0,0,0-9.174-.647,57.691,57.691,0,0,0-9.395,1.191A80.674,80.674,0,0,0,126,295.384l-.374.34a.408.408,0,0,1-.6,0v-.085l-44.2-83.311a.323.323,0,0,1,.136-.46h0a85.591,85.591,0,0,1,28.287-8.425,143.874,143.874,0,0,1,22.653-.987c6.263.221,11.148.715,14.45,1.123,1.7.2,2.927.391,3.778.545l.97.17h-.017l-.97-.119c-.851-.1-2.11-.272-3.778-.442-3.4-.34-8.2-.766-14.45-.919a144.518,144.518,0,0,0-22.551,1.14,85.39,85.39,0,0,0-28.031,8.51l.136-.459L125.693,295.2l-.664-.119.374-.34a89.614,89.614,0,0,1,16.917-11.914,70.634,70.634,0,0,1,18.585-7.046,55.7,55.7,0,0,1,9.548-1.191,49.753,49.753,0,0,1,9.327.664,47.875,47.875,0,0,1,16.543,6.382l-.528.511-32.184-56.165-9.054-15.9-2.366-4.221c-.255-.477-.46-.834-.6-1.106A2.859,2.859,0,0,1,151.41,204.4Z" transform="translate(-80.782 -172.094)" fill="#263238"/>
      <path id="Path_594" data-name="Path 594" d="M188.772,195.823s-32.1-20.423-66.172,17.02l44.728,77.592s9.122-31.486,62.53-20.543Z" transform="translate(-51.428 -180.59)" fill="#f5f5f5"/>
      <path id="Path_595" data-name="Path 595" d="M188.91,195.956a1.5,1.5,0,0,1,.221.323c.136.255.34.579.579,1l2.264,3.949,8.51,15.045,29.835,53.663a.327.327,0,0,1-.391.494h0l-7.948-1.311a36.417,36.417,0,0,0-4.1-.46l-4.187-.34a35.732,35.732,0,0,0-4.272-.1l-4.306.017c-1.464,0-2.91.289-4.374.426a32.606,32.606,0,0,0-4.391.664l-4.374.987-4.306,1.515a45.563,45.563,0,0,0-4.153,1.923,12.992,12.992,0,0,0-2.008,1.14l-1.957,1.259c-1.294.868-2.451,1.923-3.659,2.893a38.64,38.64,0,0,0-3.217,3.4,26.806,26.806,0,0,0-4.766,8.169h0a.426.426,0,0,1-.545.255.408.408,0,0,1-.221-.187l-1.8-3.115c-15.811-27.487-30.635-53.1-42.872-74.495a.391.391,0,0,1,0-.425,75.3,75.3,0,0,1,24.219-18.211,48.368,48.368,0,0,1,22.857-4.289,46.935,46.935,0,0,1,14.62,3.268,36.186,36.186,0,0,1,3.574,1.7l.885.511.272.2-.306-.153-.9-.46c-.8-.391-1.991-.97-3.591-1.583a47.774,47.774,0,0,0-37.171,1.344,75.022,75.022,0,0,0-23.929,18.16v-.408l42.974,74.546,1.872,3.081-.783.1a28.013,28.013,0,0,1,4.919-8.51,46.2,46.2,0,0,1,3.3-3.523c1.259-1,2.434-2.093,3.761-2.961l1.991-1.293a13.621,13.621,0,0,1,2.059-1.157c1.43-.664,2.774-1.464,4.238-1.974l4.374-1.515,4.459-1a30.629,30.629,0,0,1,4.459-.664c1.481-.136,2.944-.409,4.408-.425H209.4a30.205,30.205,0,0,1,4.306.1l4.221.357a33.056,33.056,0,0,1,4.136.459l8,1.345-.391.545c-12.2-22.125-22.4-40.66-29.58-53.714-3.557-6.484-6.365-11.624-8.289-15.164l-2.178-4.017c-.221-.443-.408-.783-.545-1.038A2.785,2.785,0,0,1,188.91,195.956Z" transform="translate(-51.566 -180.724)" fill="#263238"/>
      <path id="Path_596" data-name="Path 596" d="M88,184.62l47.876,92.161s38.89-1.7,55.365,17.258l-44.353-77.184S120.882,184.62,88,184.62Z" transform="translate(-75.716 -184.552)" fill="#f5f5f5"/>
      <path id="Path_597" data-name="Path 597" d="M88.007,184.648h1.225l3.676.153H94.2l1.413.238,3.2.528a25.8,25.8,0,0,1,3.659.885,41.778,41.778,0,0,1,4.1,1.208c11.437,3.812,26.789,13.037,40.575,28.933h0l44.421,77.133a.426.426,0,0,1-.153.579.409.409,0,0,1-.511,0h0l-1.872-1.872a40.593,40.593,0,0,0-12.254-8.084,69.783,69.783,0,0,0-13.7-4.493,114.366,114.366,0,0,0-27.231-2.689h0a.409.409,0,0,1-.357-.2c-13.956-27.061-25.87-50.191-34.328-66.564-4.119-8.084-7.421-14.552-9.752-19.011-1.106-2.161-1.974-3.846-2.57-5.106l-.647-1.276-.2-.425a2.4,2.4,0,0,1,.255.46l.715,1.311,2.689,5.106,9.973,19.1,34.55,66.07-.357-.2a114.358,114.358,0,0,1,27.419,2.655,71.629,71.629,0,0,1,13.854,4.527,41.512,41.512,0,0,1,12.492,8.272l1.94,1.906-.7.493c-16.458-28.678-31.69-55.263-44.251-77.2h0a111.646,111.646,0,0,0-20.951-18.96,80.726,80.726,0,0,0-19.2-10.008,42.05,42.05,0,0,0-4.085-1.242,25.174,25.174,0,0,0-3.625-.919l-3.183-.579-1.379-.255-1.259-.1Z" transform="translate(-75.723 -184.58)" fill="#263238"/>
    </g>
    <g id="freepik--Stars--inject-5" transform="translate(140.994 154.24)">
      <path id="Path_598" data-name="Path 598" d="M178.741,338.2l1.021,1.7a11.745,11.745,0,0,0,4.834,4.459l1.7.885-1.7,1.021a11.914,11.914,0,0,0-4.459,4.834l-.885,1.787-1.021-1.7a11.744,11.744,0,0,0-4.833-4.459l-1.787-.885,1.7-1.021a11.625,11.625,0,0,0,4.459-4.834Z" transform="translate(-77.236 58.697)" fill="#ff725e"/>
      <path id="Path_599" data-name="Path 599" d="M123.308,131.93l1.021,1.7a11.709,11.709,0,0,0,4.834,4.442l1.7.885-1.7,1.038a11.539,11.539,0,0,0-4.459,4.834l-.885,1.7-1.021-1.7a11.675,11.675,0,0,0-4.851-4.459l-1.787-.885,1.7-1.021a11.913,11.913,0,0,0,4.459-4.851Z" transform="translate(-116.16 -86.096)" fill="#ff725e"/>
      <path id="Path_600" data-name="Path 600" d="M379.846,167.52l1.021,1.7a11.676,11.676,0,0,0,4.851,4.459l1.787.885-1.7,1.021a11.742,11.742,0,0,0-4.442,4.851l-.885,1.7-1.038-1.7A11.608,11.608,0,0,0,374.6,176l-1.8-.851,1.7-1.038a11.538,11.538,0,0,0,4.459-4.833Z" transform="translate(63.991 -61.114)" fill="#ff725e"/>
      <path id="Path_601" data-name="Path 601" d="M349.539,351.15l1.021,1.7a11.744,11.744,0,0,0,4.851,4.442l1.787.885-1.7,1.038a11.76,11.76,0,0,0-4.459,4.833l-.868,1.787-1.038-1.7a11.623,11.623,0,0,0-4.833-4.459l-1.787-.885,1.7-1.021a11.674,11.674,0,0,0,4.459-4.851Z" transform="translate(42.728 67.787)" fill="#ff725e"/>
      <path id="Path_602" data-name="Path 602" d="M352.522,389.74l.494.2a3.184,3.184,0,0,0,1.7.17l.528-.1-.2.494a3.183,3.183,0,0,0-.17,1.7l.1.528-.494-.2a3.2,3.2,0,0,0-1.7-.17l-.528.1.2-.494a3.181,3.181,0,0,0,.17-1.7Z" transform="translate(49.565 94.876)" fill="#ff725e"/>
      <path id="Path_603" data-name="Path 603" d="M369.972,128.81l.477.2a3.234,3.234,0,0,0,1.7.17l.511-.1-.187.493a3.028,3.028,0,0,0-.17,1.7l.1.528-.494-.2a3.234,3.234,0,0,0-1.7-.17l-.51.1.187-.494a3.028,3.028,0,0,0,.17-1.7Z" transform="translate(61.815 -88.286)" fill="#ff725e"/>
      <path id="Path_604" data-name="Path 604" d="M131.742,105l.494.187a3.03,3.03,0,0,0,1.7.17h.528l-.2.477a3.235,3.235,0,0,0-.17,1.7l.1.511-.494-.187a3.03,3.03,0,0,0-1.7-.17h-.528l.2-.477a3.234,3.234,0,0,0,.17-1.7Z" transform="translate(-105.413 -105)" fill="#ff725e"/>
      <path id="Path_605" data-name="Path 605" d="M161.112,308.16l.494.187a2.9,2.9,0,0,0,1.7.17l.528-.085-.2.494a3.182,3.182,0,0,0-.17,1.7l.1.511-.494-.187a3.029,3.029,0,0,0-1.7-.17l-.528.1.2-.494a3.233,3.233,0,0,0,.17-1.7Z" transform="translate(-84.796 37.61)" fill="#ff725e"/>
      <path id="Path_606" data-name="Path 606" d="M235.035,386.69l-.477.493-1.413,1.413-5.5,5.429-20.424,19.692v-.2c1.072,21.36,2.434,50.293,3.863,82.63v.715l-.613-.392-7.37-4.936-46.7-31.265h-.1v-.1c-6.978-20.815-12.85-38.379-17.02-50.769-2.042-6.161-3.642-11.029-4.765-14.4l-1.225-3.829q-.2-.613-.306-.97a.754.754,0,0,0-.085-.34l.136.306.357.97c.306.9.749,2.161,1.327,3.8l4.936,14.347c4.221,12.373,10.212,29.886,17.258,50.667l-.136-.17,46.753,31.214L210.9,495.9l-.579.323c-1.379-32.337-2.621-61.271-3.54-82.664v-.119h.085l20.56-19.5,5.6-5.259,1.464-1.345A3.011,3.011,0,0,1,235.035,386.69Z" transform="translate(-104.41 92.735)" fill="#ff725e"/>
      <path id="Path_607" data-name="Path 607" d="M184.229,445.25l-.153,4.817,3.9,2.859-4.629,1.344-1.515,4.578-2.723-3.982-4.817-.017,2.961-3.812-1.481-4.6,4.544,1.634Z" transform="translate(-75.355 133.841)" fill="#ff725e"/>
      <path id="Path_608" data-name="Path 608" d="M149.562,426.04l.1,3.114,2.621,1.7-2.944,1.038-.8,3.029-1.906-2.468-3.115.17,1.753-2.587-1.123-2.91,3,.885Z" transform="translate(-96.954 120.357)" fill="#ff725e"/>
      <path id="Path_609" data-name="Path 609" d="M134.711,385.11l2.349,3.03,3.829-.238-2.144,3.183,1.4,3.557-3.676-1.055L133.5,396.02l-.136-3.829-3.217-2.06,3.591-1.31Z" transform="translate(-106.34 91.626)" fill="#ff725e"/>
      <path id="Path_610" data-name="Path 610" d="M193.4,383.34l2.366,3.012,3.812-.221-2.144,3.166,1.4,3.574-3.676-1.072-2.961,2.434-.119-3.829-3.234-2.059,3.608-1.31Z" transform="translate(-65.142 90.383)" fill="#ff725e"/>
      <path id="Path_611" data-name="Path 611" d="M177.327,400.48l1.5,1.94,2.434-.153-1.361,2.025.885,2.281-2.349-.681-1.889,1.549-.085-2.434L174.4,403.68l2.3-.834Z" transform="translate(-75.278 102.415)" fill="#ff725e"/>
    </g>
    <g id="freepik--Planets--inject-5" transform="translate(97.269 136.916)">
      <circle id="Ellipse_2" data-name="Ellipse 2" cx="33.937" cy="33.937" r="33.937" transform="translate(21.752 323.625)" fill="#ff725e"/>
      <g id="Group_40" data-name="Group 40" transform="translate(40.185 362.617)" opacity="0.3">
        <path id="Path_612" data-name="Path 612" d="M125.177,313.411a5.548,5.548,0,1,1-5.531-5.531,5.548,5.548,0,0,1,5.531,5.531Z" transform="translate(-114.08 -307.88)" fill="#fff"/>
      </g>
      <g id="Group_41" data-name="Group 41" transform="translate(36.985 348.967)" opacity="0.3">
        <path id="Path_613" data-name="Path 613" d="M118.667,303.077a3.234,3.234,0,1,1-3.234-3.217A3.234,3.234,0,0,1,118.667,303.077Z" transform="translate(-112.2 -299.86)" fill="#fff"/>
      </g>
      <path id="Path_614" data-name="Path 614" d="M113.226,331.746c.153.6-29.052,28.61-21.513,34.584s39.145-9.344,66.189-31.146,51.654-48.284,44.9-55.3-40.49,13.735-40.49,13.735l4.034,2.587s20.423-13.088,26.857-8.016-11.914,24.917-37.9,43.876-51.059,32.235-54.922,27.044,14.467-22.5,14.467-22.5Z" transform="translate(-90.469 34.071)" fill="#ff725e"/>
      <g id="Group_42" data-name="Group 42" transform="translate(0 312.51)" opacity="0.3">
        <path id="Path_615" data-name="Path 615" d="M113.226,331.746c.153.6-29.052,28.61-21.513,34.584s39.145-9.344,66.189-31.146,51.654-48.284,44.9-55.3-40.49,13.735-40.49,13.735l4.034,2.587s20.423-13.088,26.857-8.016-11.914,24.917-37.9,43.876-51.059,32.235-54.922,27.044,14.467-22.5,14.467-22.5Z" transform="translate(-90.469 -278.44)"/>
      </g>
      <g id="Group_43" data-name="Group 43" transform="translate(24.249 333.624)" opacity="0.3">
        <path id="Path_616" data-name="Path 616" d="M117.453,290.87c.272.323-2.025,2.281-4.629,6.2a31.231,31.231,0,0,0-.681,34.329c2.451,4.034,4.663,6.076,4.374,6.382s-2.893-1.328-5.923-5.344a29.857,29.857,0,0,1,.732-36.456C114.509,292.1,117.3,290.632,117.453,290.87Z" transform="translate(-104.717 -290.845)" fill="#fff"/>
      </g>
      <circle id="Ellipse_3" data-name="Ellipse 3" cx="27.997" cy="27.997" r="27.997" transform="translate(390.154 38.799) rotate(-43.86)" fill="#ff725e"/>
      <g id="Group_44" data-name="Group 44" transform="translate(438.867 24.438)" opacity="0.4">
        <path id="Path_617" data-name="Path 617" d="M348.331,113.639a4.544,4.544,0,1,1,1.258,3.26A4.561,4.561,0,0,1,348.331,113.639Z" transform="translate(-348.329 -109.181)"/>
      </g>
      <g id="Group_45" data-name="Group 45" transform="translate(447.99 36.931)" opacity="0.4">
        <path id="Path_618" data-name="Path 618" d="M353.69,119.141a2.655,2.655,0,1,1,.735,1.9A2.672,2.672,0,0,1,353.69,119.141Z" transform="translate(-353.689 -116.52)"/>
      </g>
      <g id="Group_46" data-name="Group 46" transform="translate(443.43 47.72)" opacity="0.4">
        <path id="Path_619" data-name="Path 619" d="M352.014,122.86a.953.953,0,0,1,.953.987,1,1,0,0,1-1,.97.987.987,0,0,1-.953-1,.97.97,0,0,1,1-.953Z" transform="translate(-351.01 -122.86)"/>
      </g>
    </g>
  </g>
</svg>
