<svg xmlns="http://www.w3.org/2000/svg" width="995.585" height="1080" viewBox="0 0 995.585 1080">
  <path id="Path_1" data-name="Path 1" d="M1027.895,1080c-16.974-16.184-67.158-4.737-67.895-37.895s67.895-39.868,67.895-66.316S960,943.026,960,909.474s67.895-32.763,67.895-67.895S960,803.289,960,768.947s67.895-28.816,67.895-64.737S960,665.921,960,625.263s67.895-45.789,67.895-83.684S960,509.605,960,473.684s67.895-40.658,67.895-75.789S960,369.079,960,333.158s67.895-35.921,67.895-78.947S960,200.526,960,161.053s67.895-24.474,67.895-64.737S960,0,960,0h995.579V1080Z" transform="translate(-959.994)" fill="#f4efdb"/>
</svg>
