<svg xmlns="http://www.w3.org/2000/svg" width="995.585" height="1080" viewBox="0 0 995.585 1080">
  <path id="Path_837" data-name="Path 837" d="M1887.678,1080c16.974-16.184,67.158-4.737,67.895-37.895s-67.895-39.868-67.895-66.316,67.895-32.763,67.895-66.316-67.895-32.763-67.895-67.895,67.895-38.289,67.895-72.632-67.895-28.816-67.895-64.737,67.895-38.289,67.895-78.947-67.895-45.789-67.895-83.684,67.895-31.974,67.895-67.895-67.895-40.658-67.895-75.789,67.895-28.816,67.895-64.737-67.895-35.921-67.895-78.947,67.895-53.684,67.895-93.158-67.895-24.474-67.895-64.737S1955.573,0,1955.573,0H959.994V1080Z" transform="translate(-959.994)" fill="#ff725e"/>
</svg>
