<svg xmlns="http://www.w3.org/2000/svg" width="769" height="713.004" viewBox="0 0 769 713.004">
  <g id="Startup_life-pana" data-name="Startup life-pana" transform="translate(-19.85 -23.263)">
    <g id="freepik--background-complete--inject-7" transform="translate(93.108 23.263)">
      <path id="Path_620" data-name="Path 620" d="M429.671,132.346a8.019,8.019,0,0,1,2.506.785,10.728,10.728,0,0,1,4.327,15.387,10.173,10.173,0,0,1-2.038,2.372,10.022,10.022,0,0,1-2.757,1.671,10.976,10.976,0,0,1-6.683.668,10.843,10.843,0,0,1-5.814-3.492,9.875,9.875,0,0,1-1.671-2.757,9.708,9.708,0,0,1-.819-3.007,10.792,10.792,0,0,1,.819-5.663,10.609,10.609,0,0,1,9.656-6.4,7.852,7.852,0,0,1,2.606.351c0,.084-.936-.184-2.589-.117a10.541,10.541,0,0,0-6.4,2.523,10.24,10.24,0,0,0-2.823,3.842,10.509,10.509,0,0,0-.718,5.4,9.777,9.777,0,0,0,.8,2.84,9.621,9.621,0,0,0,1.671,2.606,10.175,10.175,0,0,0,5.5,3.341,10.324,10.324,0,0,0,6.365-.618,9.306,9.306,0,0,0,2.606-1.671,9.122,9.122,0,0,0,1.938-2.239,10.291,10.291,0,0,0,1.671-5.179,10.475,10.475,0,0,0-5.613-9.69C430.607,132.58,429.654,132.43,429.671,132.346Z" transform="translate(172.999 49.6)" fill="#e0e0e0"/>
      <path id="Path_621" data-name="Path 621" d="M446.045,128.669a2.954,2.954,0,0,1,0-.368v-5.6l.084.1-9.64-2.105.167-.084-2.539,5.4v.1H434a24.072,24.072,0,0,0-6.282,1.119h-.2l-4.394-4.227h.334l-8.353,5.313v-.3l2,5.613v.134l-.1.117a24.5,24.5,0,0,0-3.659,5.212v.134h-6.115l.251-.217c-.668,3.024-1.4,6.282-2.138,9.64l-.15-.317,5.38,2.539h.15v.167a24.325,24.325,0,0,0,1.086,6.265v.167l-.134.134-4.21,4.227v-.368l5.279,8.353-.351-.134,5.613-2h.167l.15.117a23.605,23.605,0,0,0,5.179,3.659h0c.084.117-.15-.267.167.267h0v5.948l-.234-.3,9.623,2.172-.334.167c.852-1.821,1.671-3.609,2.556-5.4l.083-.15h.184a23.79,23.79,0,0,0,6.248-1.086h.167l.134.134,4.227,4.21h-.368l8.353-5.263-.117.317-2-5.613v-.15l.117-.134a24.056,24.056,0,0,0,3.676-5.2v-.134H462.1l-.234.2c.768-3.341,1.487-6.582,2.172-9.64l.134.267-5.379-2.573h-.117v-.134a23.737,23.737,0,0,0-1.069-6.282v-.2c1.537-1.537,2.907-2.924,4.227-4.227v.234l-5.246-8.353h.167l-5.63,1.955h0a26.226,26.226,0,0,0-3.826-2.94l-1.036-.618-.334-.217.368.167,1.052.568a24.156,24.156,0,0,1,3.909,2.907h-.1l5.6-2.038h.1v.1l5.313,8.353.083.134-.1.1-4.009,4.043v-.2a23.925,23.925,0,0,1,1.119,6.4l-.117-.184,5.4,2.539.167.084v.184c-.668,3.041-1.387,6.232-2.138,9.623v.2h-6.2l.234-.134a25.058,25.058,0,0,1-3.742,5.329v-.284c.652,1.838,1.336,3.709,2,5.613l.083.217-.2.117-8.353,5.3-.2.117-.167-.167-4.193-4.16h.3a24.258,24.258,0,0,1-6.415,1.119l.251-.167c-.835,1.771-1.671,3.575-2.556,5.379l-.1.217h-.234l-9.623-2.055h-.234v-6.2h0c.317.535.083.15.167.267h0a24.225,24.225,0,0,1-5.313-3.742h.3l-5.613,1.988-.234.084-.117-.2-5.279-8.353-.134-.2.167-.167,4.21-4.227v.3a24.79,24.79,0,0,1-1.119-6.415l.167.251-5.346-2.64-.2-.1v-.217l2.172-9.623v-.217h6.165l-.234.134a24.823,24.823,0,0,1,3.759-5.3v.251l-1.988-5.63v-.167l.167-.117,8.353-5.263h.15l.117.117,4.227,4.227h-.2a24.109,24.109,0,0,1,6.382-1.086l-.15.1c.936-1.938,1.8-3.759,2.573-5.379V120.5h.117l9.606,2.222h.084v5.563a3.636,3.636,0,0,1-.134.384Z" transform="translate(165.112 41.949)" fill="#e0e0e0"/>
      <path id="Path_622" data-name="Path 622" d="M534.375,453.991v-7.1c0-4.628,0-11.427-.084-20.148,0-17.425-.083-42.568-.134-73.408l.267.267-173.965.084h0l.368-.351V453.991l-.334-.334,125.132.15,35.936.1h.134l-35.869.1-125.3.15h-.317V353H534.826v.284c0,30.924-.1,56.1-.134,73.509v25.26A5.418,5.418,0,0,1,534.375,453.991Z" transform="translate(135.154 197.875)" fill="#e0e0e0"/>
      <path id="Path_623" data-name="Path 623" d="M534.248,360.631c0,.2-38.909.351-86.874.351s-86.874-.15-86.874-.351,38.893-.351,86.874-.351S534.248,360.43,534.248,360.631Z" transform="translate(135.349 202.758)" fill="#e0e0e0"/>
      <path id="Path_834" data-name="Path 834" d="M0,0H53.745V53.745H0Z" transform="translate(510.617 579.995)" fill="#fff"/>
      <path id="Path_624" data-name="Path 624" d="M488.149,375.817a2.909,2.909,0,0,1-.785,0h-2.272l-8.353.1-27.5.117-27.5-.117-8.353-.1h-2.272a2.908,2.908,0,0,1-.785,0,3.585,3.585,0,0,1,.785,0h2.272l8.353-.117,27.5-.1,27.5.1,8.353.117h2.272a3.589,3.589,0,0,1,.785,0Z" transform="translate(168.767 213.032)" fill="#e0e0e0"/>
      <path id="Path_625" data-name="Path 625" d="M489.856,383.041a3.67,3.67,0,0,1-.8,0h-2.322l-8.52.117-28.1.1-28.117-.1-8.52-.117h-2.322a3.67,3.67,0,0,1-.8,0,2.973,2.973,0,0,1,.8-.083h2.322l8.52-.1,28.117-.117,28.1.117,8.52.1h2.322a2.976,2.976,0,0,1,.8.083Z" transform="translate(168.781 217.82)" fill="#e0e0e0"/>
      <path id="Path_626" data-name="Path 626" d="M489.856,390.187a2.973,2.973,0,0,1-.8,0h-2.322l-8.52.1-28.1.117-28.117-.117-8.52-.1h-2.322a2.973,2.973,0,0,1-.8,0,3.673,3.673,0,0,1,.8,0h2.322l8.52-.117,28.117-.1,28.151.05,8.52.117H489.1A3.671,3.671,0,0,1,489.856,390.187Z" transform="translate(168.781 222.669)" fill="#e0e0e0"/>
      <path id="Path_627" data-name="Path 627" d="M489.856,397.411a3.677,3.677,0,0,1-.8,0h-2.322l-8.52.117-28.1.1-28.117-.1-8.52-.117h-2.322a3.677,3.677,0,0,1-.8,0,2.968,2.968,0,0,1,.8-.084h2.322l8.52-.1,28.117-.117,28.1.117,8.52.1h2.322a2.973,2.973,0,0,1,.8.083Z" transform="translate(168.781 227.458)" fill="#e0e0e0"/>
      <circle id="Ellipse_4" data-name="Ellipse 4" cx="72.306" cy="72.306" r="72.306" transform="translate(64.206 102.256) rotate(-45)" fill="#fff"/>
      <path id="Path_628" data-name="Path 628" d="M196.527,102.868a15.573,15.573,0,0,1-2.556.167l-7.033.134c-5.964,0-14.267.15-23.64.15h-.468V98.19c0-10.475,0-19.948.134-26.73,0-3.341.117-6.048.15-8.136a17.059,17.059,0,0,1,.184-2.974,19.465,19.465,0,0,1,.184,2.974c0,2.088,0,4.828.15,8.136,0,6.866.134,16.339.134,26.73v4.695l-.451-.468c9.372,0,17.675,0,23.64.15l7.033.15a13.5,13.5,0,0,1,2.539.15Z" transform="translate(2.781 1.61)" fill="#e0e0e0"/>
      <path id="Path_629" data-name="Path 629" d="M163.44,48.3a20.315,20.315,0,0,1,.468,6.064,20.481,20.481,0,0,1-.468,6.081,20.482,20.482,0,0,1-.468-6.081,20.314,20.314,0,0,1,.468-6.064Z" transform="translate(2.84 -6.472)" fill="#e0e0e0"/>
      <path id="Path_630" data-name="Path 630" d="M186.4,54.13a19.546,19.546,0,0,1-3.909,4.578A19.329,19.329,0,0,1,177.93,62.6a19.665,19.665,0,0,1,3.909-4.561A20.181,20.181,0,0,1,186.4,54.13Z" transform="translate(12.908 -2.562)" fill="#e0e0e0"/>
      <path id="Path_631" data-name="Path 631" d="M198.6,66.73a24.959,24.959,0,0,1-5.012,3.341,25.446,25.446,0,0,1-5.246,2.89,16.138,16.138,0,0,1,4.761-3.692,15.637,15.637,0,0,1,5.5-2.539Z" transform="translate(19.89 5.888)" fill="#e0e0e0"/>
      <path id="Path_632" data-name="Path 632" d="M207.946,85.631a36.471,36.471,0,0,1-8.353.468,36.47,36.47,0,0,1-8.353-.468,37.657,37.657,0,0,1,8.353-.468,37.656,37.656,0,0,1,8.353.468Z" transform="translate(21.835 18.212)" fill="#e0e0e0"/>
      <path id="Path_633" data-name="Path 633" d="M138.767,84.97a33.514,33.514,0,0,1-7.819.468,33.631,33.631,0,0,1-7.819-.468,33.631,33.631,0,0,1,7.819-.468A33.514,33.514,0,0,1,138.767,84.97Z" transform="translate(-23.843 17.77)" fill="#e0e0e0"/>
      <path id="Path_634" data-name="Path 634" d="M142.343,98.68a35.751,35.751,0,0,1-5.914,5.363,35.334,35.334,0,0,1-6.5,4.628,34.13,34.13,0,0,1,5.914-5.363A32.978,32.978,0,0,1,142.343,98.68Z" transform="translate(-19.283 27.316)" fill="#e0e0e0"/>
      <path id="Path_635" data-name="Path 635" d="M152.676,109.44a54.027,54.027,0,0,1-4.026,6.967,55.47,55.47,0,0,1-4.26,6.833,25.912,25.912,0,0,1,3.458-7.317,26.078,26.078,0,0,1,4.828-6.482Z" transform="translate(-9.585 34.532)" fill="#e0e0e0"/>
      <path id="Path_636" data-name="Path 636" d="M163.441,130.027a37.655,37.655,0,0,1-.468-8.353,37.655,37.655,0,0,1,.468-8.353,37.655,37.655,0,0,1,.468,8.353,37.655,37.655,0,0,1-.468,8.353Z" transform="translate(2.839 37.134)" fill="#e0e0e0"/>
      <path id="Path_637" data-name="Path 637" d="M189.576,121.042a23.991,23.991,0,0,1-6.833-4.678,24.675,24.675,0,0,1-5.563-6.115,75.082,75.082,0,0,1,6.181,5.413A76.613,76.613,0,0,1,189.576,121.042Z" transform="translate(12.405 35.075)" fill="#e0e0e0"/>
      <path id="Path_638" data-name="Path 638" d="M198.768,110.048a28.853,28.853,0,0,1-5.5-4.811,28.851,28.851,0,0,1-4.811-5.5,28.986,28.986,0,0,1,5.48,4.828,28.986,28.986,0,0,1,4.828,5.48Z" transform="translate(19.97 28.027)" fill="#e0e0e0"/>
      <path id="Path_639" data-name="Path 639" d="M140.521,75.052a22,22,0,0,1-4.845-4.177A22,22,0,0,1,131.5,66.03a22,22,0,0,1,4.845,4.177,22,22,0,0,1,4.177,4.845Z" transform="translate(-18.23 5.419)" fill="#e0e0e0"/>
      <path id="Path_640" data-name="Path 640" d="M152.821,61.924a20.884,20.884,0,0,1-4.761-3.993A21.1,21.1,0,0,1,144,53.12a21.017,21.017,0,0,1,4.745,4.076,20.933,20.933,0,0,1,4.076,4.728Z" transform="translate(-9.847 -3.239)" fill="#e0e0e0"/>
      <g id="Group_47" data-name="Group 47" transform="translate(478.775 49.33)" opacity="0.8">
        <path id="Path_641" data-name="Path 641" d="M431.24,68.661A48.884,48.884,0,0,1,441.7,76l11.11-3.959,10.442,16.489L454.9,96.878a47.581,47.581,0,0,1,2.172,12.53l10.659,5.012-4.31,19.112H451.722a47.812,47.812,0,0,1-7.317,10.408l3.959,11.11-16.489,10.442-8.353-8.353a47.6,47.6,0,0,1-12.53,2.189l-5.012,10.642-19.045-4.26V153.914a47.312,47.312,0,0,1-10.408-7.334l-11.11,3.959L354.824,134.1l8.353-8.353a47.848,47.848,0,0,1-2.239-12.463l-10.659-5.012,4.277-19.045h11.795a47.315,47.315,0,0,1,7.334-10.408l-3.959-11.11,16.489-10.442,8.353,8.353a47.848,47.848,0,0,1,12.547-2.189l5.012-10.642,19.045,4.277V68.761Zm-16.79,22.42a20.916,20.916,0,1,0,13.125,9.24,20.933,20.933,0,0,0-13.125-9.24Z" transform="translate(-350.28 -52.79)" fill="#fff" fill-rule="evenodd"/>
      </g>
      <path id="Path_642" data-name="Path 642" d="M63.7,174H187.328s-10.926-19.881-42.735-16.991c-30.372,2.773-31.926-9.773-47.38-11.327S68.846,155.993,63.7,174Z" transform="translate(-63.7 58.748)" fill="#fff"/>
      <path id="Path_643" data-name="Path 643" d="M223.8,306.315H323.822s-8.838-16.088-34.582-13.749c-24.592,2.239-25.845-7.919-38.425-9.172S227.96,291.731,223.8,306.315Z" transform="translate(43.671 151.12)" fill="#fff"/>
    </g>
    <g id="freepik--Floor--inject-7" transform="translate(19.85 727.103)">
      <path id="Path_644" data-name="Path 644" d="M788.85,444.994c0,.234-172.077.434-384.483.434S19.85,445.3,19.85,444.994s172.077-.434,384.517-.434S788.85,444.76,788.85,444.994Z" transform="translate(-19.85 -444.56)" fill="#263238"/>
    </g>
    <g id="freepik--Screens--inject-7" transform="translate(60.196 226.209)">
      <rect id="Rectangle_54" data-name="Rectangle 54" width="242.712" height="162.521" transform="translate(444.242 0.652)" fill="#fff"/>
      <path id="Path_645" data-name="Path 645" d="M552.736,307.9V296.368c0-7.518,0-18.561-.1-32.678,0-28.251-.1-68.831-.184-118.3l.351.334-242.7.1h0l.434-.434V307.9l-.4-.4,174.867.2,49.952.1h.167l-49.869.1-175.118.2h-.4V144.74h.451l242.7.1h.351v.351c0,49.568-.134,90.215-.184,118.5,0,14.1,0,25.06-.084,32.611v8.52A16.825,16.825,0,0,1,552.736,307.9Z" transform="translate(134.218 -144.74)" fill="#ff725e"/>
      <path id="Path_646" data-name="Path 646" d="M309.91,153.984c0-.251,54.3-.434,121.256-.434s121.256.184,121.256.434-54.279.434-121.256.434S309.91,154.3,309.91,153.984Z" transform="translate(134.332 -138.832)" fill="#ff725e"/>
      <g id="Group_48" data-name="Group 48" transform="translate(449.906 5.881)" opacity="0.3">
        <path id="Path_647" data-name="Path 647" d="M317.209,150.215a1.938,1.938,0,1,1-.562-1.381A1.955,1.955,0,0,1,317.209,150.215Z" transform="translate(-313.3 -148.26)" fill="#ff725e"/>
      </g>
      <g id="Group_49" data-name="Group 49" transform="translate(456.572 5.881)" opacity="0.3">
        <path id="Path_648" data-name="Path 648" d="M321.2,150.215a1.938,1.938,0,1,1-.562-1.381,1.955,1.955,0,0,1,.562,1.381Z" transform="translate(-317.29 -148.26)" fill="#ff725e"/>
      </g>
      <g id="Group_50" data-name="Group 50" transform="translate(463.137 5.881)" opacity="0.3">
        <path id="Path_649" data-name="Path 649" d="M325.129,150.215a1.938,1.938,0,1,1-.562-1.381A1.955,1.955,0,0,1,325.129,150.215Z" transform="translate(-321.22 -148.26)" fill="#ff725e"/>
      </g>
      <rect id="Rectangle_55" data-name="Rectangle 55" width="64.738" height="64.738" transform="translate(465.109 32.093)" fill="#ff725e"/>
      <path id="Path_650" data-name="Path 650" d="M480.552,175.074c0,.251-25.26.434-56.4.434s-56.4-.184-56.4-.434,25.26-.434,56.4-.434S480.552,174.84,480.552,175.074Z" transform="translate(173.123 -124.688)" fill="#ff725e"/>
      <path id="Path_651" data-name="Path 651" d="M480.552,182.284c0,.234-25.26.434-56.4.434s-56.4-.2-56.4-.434,25.26-.434,56.4-.434S480.552,182.1,480.552,182.284Z" transform="translate(173.123 -119.852)" fill="#ff725e"/>
      <path id="Path_652" data-name="Path 652" d="M480.552,189.484c0,.234-25.26.434-56.4.434s-56.4-.2-56.4-.434,25.26-.434,56.4-.434S480.552,189.234,480.552,189.484Z" transform="translate(173.123 -115.023)" fill="#ff725e"/>
      <path id="Path_653" data-name="Path 653" d="M434.426,196.684a14.335,14.335,0,0,1-2.623.167l-7.15.134c-6.031.084-14.368.134-23.556.134s-17.542,0-23.573-.134l-7.15-.134a14.335,14.335,0,0,1-2.623-.167,14.335,14.335,0,0,1,2.623-.167l7.15-.134c6.031-.084,14.368-.134,23.573-.134s17.525,0,23.556.134l7.15.134A14.335,14.335,0,0,1,434.426,196.684Z" transform="translate(173.123 -110.195)" fill="#ff725e"/>
      <g id="Group_51" data-name="Group 51" transform="translate(469.152 118.666)" opacity="0.3">
        <rect id="Rectangle_56" data-name="Rectangle 56" width="30.423" height="30.423" fill="#ff725e"/>
      </g>
      <rect id="Rectangle_57" data-name="Rectangle 57" width="30.423" height="30.423" transform="translate(524.333 118.666)" fill="#ff725e"/>
      <rect id="Rectangle_58" data-name="Rectangle 58" width="30.423" height="30.423" transform="translate(579.515 118.666)" fill="#ff725e"/>
      <rect id="Rectangle_59" data-name="Rectangle 59" width="30.423" height="30.423" transform="translate(634.697 118.666)" fill="#ff725e"/>
      <g id="Group_52" data-name="Group 52" transform="translate(465.109 32.093)" opacity="0.3">
        <rect id="Rectangle_60" data-name="Rectangle 60" width="64.738" height="64.738" fill="#fff"/>
      </g>
      <g id="Group_53" data-name="Group 53" transform="translate(524.333 118.666)" opacity="0.3">
        <rect id="Rectangle_61" data-name="Rectangle 61" width="30.423" height="30.423" fill="#fff"/>
      </g>
      <g id="Group_54" data-name="Group 54" transform="translate(579.515 118.666)" opacity="0.3">
        <rect id="Rectangle_62" data-name="Rectangle 62" width="30.423" height="30.423" fill="#fff"/>
      </g>
      <g id="Group_55" data-name="Group 55" transform="translate(634.697 118.666)" opacity="0.3">
        <rect id="Rectangle_63" data-name="Rectangle 63" width="30.423" height="30.423" fill="#fff"/>
      </g>
      <rect id="Rectangle_64" data-name="Rectangle 64" width="216.215" height="87.826" transform="translate(0.351 59.191)" fill="#fff"/>
      <path id="Path_654" data-name="Path 654" d="M260.566,268.11V244.5c0-15.153,0-37.088-.134-64.22l.234.234-216.2.1h0l.351-.334V268.11l-.334-.334,155.02.15,44.974.1h.15l-44.89.084-155.253.15H44V180h.351l216.2.117h.251v.234c0,27.2-.1,49.167-.134,64.37v21.936A7.146,7.146,0,0,1,260.566,268.11Z" transform="translate(-44 -121.093)" fill="#ff725e"/>
      <path id="Path_655" data-name="Path 655" d="M44.34,187.4c0-.184,48.332-.351,107.924-.351s107.957.167,107.957.351-48.332.334-107.957.334S44.34,187.585,44.34,187.4Z" transform="translate(-43.772 -116.365)" fill="#ff725e"/>
      <g id="Group_56" data-name="Group 56" transform="translate(6.482 64.17)" opacity="0.3">
        <path id="Path_656" data-name="Path 656" d="M51.021,184.72a1.57,1.57,0,1,1-1.57-1.57A1.57,1.57,0,0,1,51.021,184.72Z" transform="translate(-47.88 -183.15)" fill="#ff725e"/>
      </g>
      <g id="Group_57" data-name="Group 57" transform="translate(11.895 64.17)" opacity="0.3">
        <path id="Path_657" data-name="Path 657" d="M54.261,184.72a1.57,1.57,0,1,1-1.57-1.57A1.57,1.57,0,0,1,54.261,184.72Z" transform="translate(-51.12 -183.15)" fill="#ff725e"/>
      </g>
      <g id="Group_58" data-name="Group 58" transform="translate(17.158 64.17)" opacity="0.3">
        <path id="Path_658" data-name="Path 658" d="M57.411,184.72a1.57,1.57,0,1,1-1.57-1.57A1.57,1.57,0,0,1,57.411,184.72Z" transform="translate(-54.27 -183.15)" fill="#ff725e"/>
      </g>
      <rect id="Rectangle_65" data-name="Rectangle 65" width="52.225" height="52.225" transform="translate(18.728 85.303)" fill="#ff725e"/>
      <path id="Path_659" data-name="Path 659" d="M212.873,204.314c0,.184-26.881.351-60.026.351s-60.026-.167-60.026-.351,26.881-.334,60.026-.334S212.873,204.13,212.873,204.314Z" transform="translate(-11.259 -105.011)" fill="#ff725e"/>
      <path id="Path_660" data-name="Path 660" d="M212.873,210.691c0,.184-26.881.334-60.026.334s-60.026-.15-60.026-.334,26.881-.351,60.026-.351S212.873,210.507,212.873,210.691Z" transform="translate(-11.259 -100.745)" fill="#ff725e"/>
      <path id="Path_661" data-name="Path 661" d="M170.131,217.007a5.762,5.762,0,0,1-.785,0H167.09l-8.27.1-27.332.1-27.315-.1-8.353-.1H93.565a6.2,6.2,0,0,1-.785,0,2.724,2.724,0,0,1,.785,0h2.255l8.353-.117,27.315-.1,27.332.1,8.27.117h2.255A2.623,2.623,0,0,1,170.131,217.007Z" transform="translate(-11.286 -96.42)" fill="#ff725e"/>
      <g id="Group_59" data-name="Group 59" transform="translate(18.728 85.303)" opacity="0.3">
        <rect id="Rectangle_66" data-name="Rectangle 66" width="52.225" height="52.225" fill="#f5f5f5"/>
      </g>
    </g>
    <g id="freepik--Rocket--inject-7" transform="translate(310.457 115.591)">
      <path id="Path_662" data-name="Path 662" d="M297.262,114.608c-3.625-2.422-8.6-.952-12.229,1.47s-6.683,5.73-10.776,7.3c-7.618,2.957-17.625-.551-23.539,5.012-3.759,3.575-4.143,9.456-7.017,13.783-4.845,7.284-16.473,10.024-17.458,18.711-.585,5.012,3.425,9.924,8.353,11.344a17.859,17.859,0,0,0,14.535-2.907c5.012-3.341,8.871-8.353,14.518-10.258s12.914-.317,17.475-4.344,3.876-11.461,7.15-16.606a33.412,33.412,0,0,1,6.933-6.783c2.456-2.122,4.795-4.745,5.212-7.969s-.9-8.721-3.124-8.838" transform="translate(-172.078 -55.162)" fill="#fff"/>
      <path id="Path_663" data-name="Path 663" d="M212.4,326.565c.217-.117.885.551,1.52,1.5s.986,1.854.785,1.988-.869-.535-1.52-1.5S212.2,326.7,212.4,326.565Z" transform="translate(-181.36 87.81)" fill="#263238"/>
      <path id="Path_664" data-name="Path 664" d="M208.1,317.54a10.708,10.708,0,0,1,1.988,3.709,10.592,10.592,0,0,1,1.186,4.026,20.481,20.481,0,0,1-3.174-7.735Z" transform="translate(-184.207 81.766)" fill="#263238"/>
      <path id="Path_665" data-name="Path 665" d="M205.811,307.82a20.332,20.332,0,0,1,1.52,8.22,10.325,10.325,0,0,1-1.186-4.026,10.559,10.559,0,0,1-.334-4.193Z" transform="translate(-185.794 75.247)" fill="#263238"/>
      <path id="Path_666" data-name="Path 666" d="M205.66,297.83a20.7,20.7,0,0,1-.117,8.353,9.924,9.924,0,0,1-.384-4.177,10.024,10.024,0,0,1,.5-4.177Z" transform="translate(-186.228 68.547)" fill="#263238"/>
      <path id="Path_667" data-name="Path 667" d="M207.723,288a10.425,10.425,0,0,1-.451,4.177,10.707,10.707,0,0,1-1.3,3.993,10.442,10.442,0,0,1,.451-4.177,10.825,10.825,0,0,1,1.3-3.993Z" transform="translate(-185.668 61.955)" fill="#263238"/>
      <path id="Path_668" data-name="Path 668" d="M211.981,278.652a19.664,19.664,0,0,1-3.341,7.618,10.543,10.543,0,0,1,1.32-3.993C210.912,280.156,211.764,278.535,211.981,278.652Z" transform="translate(-183.845 55.682)" fill="#263238"/>
      <path id="Path_669" data-name="Path 669" d="M218.156,270.314a10.592,10.592,0,0,1-2.138,3.625,12.045,12.045,0,0,1-2.823,3.107c-.234-.15.735-1.771,2.122-3.625S217.905,270.164,218.156,270.314Z" transform="translate(-180.814 50.086)" fill="#263238"/>
      <path id="Path_670" data-name="Path 670" d="M225.191,262.917c.184.167-.969,1.671-2.556,3.341s-3.024,2.874-3.208,2.723.969-1.671,2.573-3.341S225.024,262.733,225.191,262.917Z" transform="translate(-176.623 45.121)" fill="#263238"/>
      <path id="Path_671" data-name="Path 671" d="M232.27,255.8c.184.167-1,1.671-2.623,3.341s-3.074,2.84-3.241,2.673,1-1.671,2.623-3.341S232.1,255.629,232.27,255.8Z" transform="translate(-171.94 40.347)" fill="#263238"/>
      <path id="Path_672" data-name="Path 672" d="M238.623,248.254a10.491,10.491,0,0,1-2.322,3.508c-1.47,1.8-2.807,3.124-2.99,2.957a11.159,11.159,0,0,1,2.322-3.508C237.086,249.507,238.422,248.12,238.623,248.254Z" transform="translate(-167.3 35.293)" fill="#263238"/>
      <path id="Path_673" data-name="Path 673" d="M243.126,239.67a9.088,9.088,0,0,1-1.4,3.976A9.255,9.255,0,0,1,239.3,247.1a11.926,11.926,0,0,1,1.671-3.859,12.4,12.4,0,0,1,2.155-3.575Z" transform="translate(-163.283 29.542)" fill="#263238"/>
      <path id="Path_674" data-name="Path 674" d="M244.559,230a8.5,8.5,0,0,1-.084,4.21,8.821,8.821,0,0,1-1.286,4.026,12.715,12.715,0,0,1,.434-4.16,13.031,13.031,0,0,1,.936-4.076Z" transform="translate(-160.69 23.057)" fill="#263238"/>
      <path id="Path_675" data-name="Path 675" d="M243.3,220.07a8.57,8.57,0,0,1,1.236,4.026,8.8,8.8,0,0,1,0,4.227,12.663,12.663,0,0,1-.9-4.093,12.931,12.931,0,0,1-.334-4.16Z" transform="translate(-160.631 16.397)" fill="#263238"/>
      <path id="Path_676" data-name="Path 676" d="M239.35,210.923c.2-.134,1.42,1.32,2.523,3.341a8.771,8.771,0,0,1,1.437,3.976,13.183,13.183,0,0,1-2.205-3.558,13.632,13.632,0,0,1-1.754-3.759Z" transform="translate(-163.249 10.257)" fill="#263238"/>
      <path id="Path_677" data-name="Path 677" d="M232.384,203.82a8.838,8.838,0,0,1,3.609,2.189c1.788,1.5,2.957,3.007,2.79,3.174s-1.671-1.036-3.341-2.506S232.234,204.02,232.384,203.82Z" transform="translate(-167.928 5.499)" fill="#263238"/>
      <path id="Path_678" data-name="Path 678" d="M223.29,199.767a8.7,8.7,0,0,1,4.143.768,8.587,8.587,0,0,1,3.759,1.938,13.365,13.365,0,0,1-4.043-1.119,12.346,12.346,0,0,1-3.859-1.587Z" transform="translate(-174.02 2.77)" fill="#263238"/>
      <path id="Path_679" data-name="Path 679" d="M213.35,199.7a8.354,8.354,0,0,1,4.127-.869,8.57,8.57,0,0,1,4.21.434,13.949,13.949,0,0,1-4.16.434A13.365,13.365,0,0,1,213.35,199.7Z" transform="translate(-180.686 2.089)" fill="#263238"/>
      <path id="Path_680" data-name="Path 680" d="M204.134,204.583c-.15-.2,1.286-1.453,3.341-2.556a8.02,8.02,0,0,1,3.993-1.387,14.638,14.638,0,0,1-3.592,2.138A13.95,13.95,0,0,1,204.134,204.583Z" transform="translate(-186.874 3.367)" fill="#263238"/>
      <path id="Path_681" data-name="Path 681" d="M197.26,212.835a8.5,8.5,0,0,1,2.055-3.692c1.42-1.854,2.89-3.074,3.057-2.907s-.986,1.671-2.372,3.442S197.46,212.952,197.26,212.835Z" transform="translate(-191.477 7.109)" fill="#263238"/>
      <path id="Path_682" data-name="Path 682" d="M193.946,222.779a8.22,8.22,0,0,1,.317-4.21,8.353,8.353,0,0,1,1.671-3.909,13.849,13.849,0,0,1-.785,4.11,13.665,13.665,0,0,1-1.2,4.01Z" transform="translate(-193.793 12.769)" fill="#263238"/>
      <path id="Path_683" data-name="Path 683" d="M195.94,232.629a8.353,8.353,0,0,1-1.671-3.909,8.136,8.136,0,0,1-.334-4.21,15.119,15.119,0,0,1,1.186,4.01A14.518,14.518,0,0,1,195.94,232.629Z" transform="translate(-193.798 19.375)" fill="#263238"/>
      <path id="Path_684" data-name="Path 684" d="M202.108,240.655c-.184.167-1.57-1.136-2.924-3.041a8.8,8.8,0,0,1-1.955-3.742c.217-.117,1.32,1.387,2.656,3.241A12.863,12.863,0,0,1,202.108,240.655Z" transform="translate(-191.497 25.65)" fill="#263238"/>
      <path id="Path_685" data-name="Path 685" d="M210.125,246.793a9.373,9.373,0,0,1-3.592-2.205c-1.821-1.453-3.074-2.874-2.907-3.057a12.312,12.312,0,0,1,3.441,2.389C208.855,245.356,210.275,246.592,210.125,246.793Z" transform="translate(-187.217 30.789)" fill="#263238"/>
      <path id="Path_686" data-name="Path 686" d="M219.171,251.172a20.048,20.048,0,0,1-7.451-3.792,10.825,10.825,0,0,1,3.926,1.5,10.475,10.475,0,0,1,3.525,2.289Z" transform="translate(-181.779 34.713)" fill="#263238"/>
      <path id="Path_687" data-name="Path 687" d="M228.953,253.518a9.155,9.155,0,0,1-4.193-.5,8.939,8.939,0,0,1-3.909-1.587,12.748,12.748,0,0,1,4.126.752,11.894,11.894,0,0,1,3.976,1.336Z" transform="translate(-175.656 37.429)" fill="#263238"/>
      <path id="Path_688" data-name="Path 688" d="M239.013,253.306a15.22,15.22,0,0,1-8.353.167,12.28,12.28,0,0,1,4.16-.368A12.713,12.713,0,0,1,239.013,253.306Z" transform="translate(-169.077 38.493)" fill="#263238"/>
      <path id="Path_689" data-name="Path 689" d="M248.432,250.62a14.936,14.936,0,0,1-7.852,2.823,12.494,12.494,0,0,1,3.843-1.671,12.264,12.264,0,0,1,4.01-1.153Z" transform="translate(-162.424 36.886)" fill="#263238"/>
      <path id="Path_690" data-name="Path 690" d="M256.279,245.15c.167.184-1.1,1.671-2.957,3.007a9.039,9.039,0,0,1-3.659,2.088c-.134-.217,1.32-1.37,3.141-2.773a13.2,13.2,0,0,1,3.475-2.322Z" transform="translate(-156.338 33.217)" fill="#263238"/>
      <path id="Path_691" data-name="Path 691" d="M262.15,237.593a9.055,9.055,0,0,1-2.055,3.675c-1.387,1.871-2.773,3.158-2.957,3.007s.9-1.671,2.272-3.525S261.933,237.46,262.15,237.593Z" transform="translate(-151.333 28.144)" fill="#263238"/>
      <path id="Path_692" data-name="Path 692" d="M265.714,228.59a8.855,8.855,0,0,1-1.019,4.093c-.869,2.172-1.888,3.776-2.1,3.659a12.427,12.427,0,0,1,1.286-3.976A12.846,12.846,0,0,1,265.714,228.59Z" transform="translate(-147.663 22.111)" fill="#263238"/>
      <path id="Path_693" data-name="Path 693" d="M266.858,218.8a15.937,15.937,0,0,1-1.136,8.27,27.366,27.366,0,0,1,1.136-8.27Z" transform="translate(-145.566 15.546)" fill="#263238"/>
      <path id="Path_694" data-name="Path 694" d="M266.206,208.817a10.023,10.023,0,0,1,.768,4.126,10.725,10.725,0,0,1-.117,4.21,20.7,20.7,0,0,1-.651-8.353Z" transform="translate(-145.348 8.839)" fill="#263238"/>
      <path id="Path_695" data-name="Path 695" d="M264,199.05a10.207,10.207,0,0,1,1.52,3.926,10.376,10.376,0,0,1,.668,4.143,10.508,10.508,0,0,1-1.52-3.926A10.325,10.325,0,0,1,264,199.05Z" transform="translate(-146.722 2.3)" fill="#263238"/>
      <path id="Path_696" data-name="Path 696" d="M260.14,189.812c.217-.117,1.22,1.487,2.222,3.575a10.275,10.275,0,0,1,1.3,4.01A24.559,24.559,0,0,1,260.14,189.812Z" transform="translate(-149.306 -3.899)" fill="#263238"/>
      <path id="Path_697" data-name="Path 697" d="M255.22,181.1c.217-.134,1.32,1.387,2.489,3.341a10.293,10.293,0,0,1,1.671,3.826,10.74,10.74,0,0,1-2.489-3.341,10.858,10.858,0,0,1-1.671-3.826Z" transform="translate(-152.606 -9.741)" fill="#263238"/>
      <path id="Path_698" data-name="Path 698" d="M250.26,172.412c.217-.117,1.286,1.437,2.406,3.442a10.758,10.758,0,0,1,1.671,3.876,10.709,10.709,0,0,1-2.406-3.458A10.275,10.275,0,0,1,250.26,172.412Z" transform="translate(-155.932 -15.568)" fill="#263238"/>
      <path id="Path_699" data-name="Path 699" d="M246.35,163.21a20.131,20.131,0,0,1,2.924,7.835,10.025,10.025,0,0,1-1.871-3.776A10.391,10.391,0,0,1,246.35,163.21Z" transform="translate(-158.555 -21.736)" fill="#263238"/>
      <path id="Path_700" data-name="Path 700" d="M244.774,153.38a11.694,11.694,0,0,1,.735,4.126,12.177,12.177,0,0,1,.15,4.177,8.87,8.87,0,0,1-1-4.093A9.138,9.138,0,0,1,244.774,153.38Z" transform="translate(-159.818 -28.328)" fill="#263238"/>
      <path id="Path_701" data-name="Path 701" d="M246.067,143.43a12.631,12.631,0,0,1-.3,4.177,11.812,11.812,0,0,1-.919,4.093,9.322,9.322,0,0,1,0-4.227,9.055,9.055,0,0,1,1.22-4.043Z" transform="translate(-159.725 -35.001)" fill="#263238"/>
      <path id="Path_702" data-name="Path 702" d="M250.034,134a12.194,12.194,0,0,1-1.337,3.976,12.513,12.513,0,0,1-1.888,3.742A15.654,15.654,0,0,1,250.034,134Z" transform="translate(-158.246 -41.325)" fill="#263238"/>
      <path id="Path_703" data-name="Path 703" d="M256.362,125.715c.184.167-.919,1.671-2.322,3.492s-2.59,3.341-2.79,3.124a8.854,8.854,0,0,1,2.1-3.659C254.775,126.834,256.2,125.564,256.362,125.715Z" transform="translate(-155.268 -46.89)" fill="#263238"/>
      <path id="Path_704" data-name="Path 704" d="M264.482,119.13c.134.2-1.32,1.387-3.124,2.79a12.447,12.447,0,0,1-3.492,2.322c-.167-.184,1.119-1.671,2.957-3.007a9.088,9.088,0,0,1,3.659-2.105Z" transform="translate(-150.841 -51.298)" fill="#263238"/>
      <path id="Path_705" data-name="Path 705" d="M273.8,114.61a12.53,12.53,0,0,1-3.726,1.921,12.061,12.061,0,0,1-3.943,1.387c-.117-.217,1.47-1.253,3.609-2.172a8.771,8.771,0,0,1,4.06-1.136Z" transform="translate(-145.292 -54.329)" fill="#263238"/>
      <path id="Path_706" data-name="Path 706" d="M279.651,112.841c0,.234-.852.6-1.971.8s-2.088.2-2.138,0,.835-.6,1.971-.819S279.651,112.607,279.651,112.841Z" transform="translate(-138.979 -55.635)" fill="#263238"/>
      <path id="Path_707" data-name="Path 707" d="M298.38,86.551s19.613-14,46.778-5.012c0,0,2.222,22.487-19.547,40.363" transform="translate(-123.661 -78.528)" fill="#ff725e"/>
      <path id="Path_708" data-name="Path 708" d="M261.35,126.391c.835,1.253,22.136,35.485,22.136,35.485l63.936-39.394A22.387,22.387,0,0,0,353.67,90.1h0a22.37,22.37,0,0,0-30.456-5.246Z" transform="translate(-148.495 -76.836)" fill="#ff725e"/>
      <path id="Path_709" data-name="Path 709" d="M275.177,136.767l-1.437,24.091s41.432-20.048,31.091-42.368Z" transform="translate(-140.186 -51.727)" fill="#263238"/>
      <path id="Path_710" data-name="Path 710" d="M299.642,97.947s-28.1-12.4-51.222,5.78l21.6,14.1Z" transform="translate(-157.166 -68.272)" fill="#263238"/>
      <path id="Path_711" data-name="Path 711" d="M295.049,108.378l-39.979,25.06s1.37,4.31,2.439,3.943,30.957-18.043,40.7-23.807a3.007,3.007,0,0,0,.785-4.494h0a3.024,3.024,0,0,0-3.943-.7Z" transform="translate(-152.707 -58.806)" fill="#263238"/>
      <circle id="Ellipse_5" data-name="Ellipse 5" cx="12.797" cy="12.797" r="12.797" transform="translate(163.735 40.14) rotate(-76.76)" fill="#fafafa"/>
      <path id="Path_712" data-name="Path 712" d="M319.172,102.138a23.342,23.342,0,0,0-.568-3.074,12.663,12.663,0,0,0-4.678-6.85,12.4,12.4,0,0,0-5.263-2.289,12.564,12.564,0,0,0-6.516.568,12.362,12.362,0,0,0-5.814,18.962,12.413,12.413,0,0,0,5.747,4.344,12.58,12.58,0,0,0,6.515.568,12.4,12.4,0,0,0,5.263-2.289,12.731,12.731,0,0,0,4.678-6.85c.518-1.938.468-3.091.568-3.091a2.689,2.689,0,0,1,0,.835,10.312,10.312,0,0,1-.284,2.339,12.914,12.914,0,0,1-10.141,9.757,13.163,13.163,0,1,1,5.513-23.339,12.747,12.747,0,0,1,4.745,7.317,10.306,10.306,0,0,1,.284,2.339A2.523,2.523,0,0,1,319.172,102.138Z" transform="translate(-127.262 -71.528)" fill="#263238"/>
      <path id="Path_713" data-name="Path 713" d="M327.343,116.479c-.167,0-.351-2.489-1.336-6.382a50.115,50.115,0,0,0-2.222-6.683A48.9,48.9,0,0,0,314.5,89.031a49.427,49.427,0,0,0-5.162-4.778c-3.158-2.489-5.346-3.692-5.263-3.842a7.4,7.4,0,0,1,1.587.752,19.359,19.359,0,0,1,1.788,1.053c.668.451,1.453.919,2.255,1.554a41.419,41.419,0,0,1,5.363,4.711,44.689,44.689,0,0,1,9.456,14.635,43.294,43.294,0,0,1,2.088,6.833c.251.986.351,1.9.484,2.706a18.361,18.361,0,0,1,.217,2.055,6.161,6.161,0,0,1,.033,1.771Z" transform="translate(-119.846 -77.266)" fill="#263238"/>
      <path id="Path_714" data-name="Path 714" d="M325.417,117.821c-.167,0-.368-2.523-1.37-6.482a51.8,51.8,0,0,0-2.255-6.783,53.455,53.455,0,0,0-4.06-7.752,54.154,54.154,0,0,0-5.346-6.916,49.976,49.976,0,0,0-5.246-4.895c-3.191-2.556-5.413-3.792-5.329-3.943a7.52,7.52,0,0,1,1.671.785,17.124,17.124,0,0,1,1.788,1.086,18.157,18.157,0,0,1,2.289,1.671,45.862,45.862,0,0,1,5.413,4.728,49.771,49.771,0,0,1,5.5,7,50.9,50.9,0,0,1,4.06,7.919,44.753,44.753,0,0,1,2.122,6.95c.251,1,.351,1.938.484,2.74a16.2,16.2,0,0,1,.234,2.088,8.084,8.084,0,0,1,.05,1.8Z" transform="translate(-121.361 -76.836)" fill="#263238"/>
    </g>
    <g id="freepik--Plant--inject-7" transform="translate(48.66 459.949)">
      <path id="Path_715" data-name="Path 715" d="M86.655,466.631c-1.437-5.68,2.322-11.36,6.516-15.453s9.189-7.752,11.394-13.181c3.558-8.788-1.1-20.232,5.012-27.549,3.542-4.31,9.89-5.714,13.031-10.325a23.489,23.489,0,0,0,2.874-8.236,83.85,83.85,0,0,1,21.084-38.926,72.59,72.59,0,0,1-8.353,37.573c-2.456,4.611-5.463,9.105-6.282,14.267-1.37,8.353,3.341,17.024,1.169,25.243-2.422,9.389-13.014,15.637-13.582,25.31-.468,8.2,6.683,15.42,6.048,23.606a21.953,21.953,0,0,1-3.692,9.69c-6.549,10.441-15.854,17.642-29.938,17.325l-17.275.5Z" transform="translate(-11.902 -238.838)" fill="#ff725e"/>
      <g id="Group_60" data-name="Group 60" transform="translate(62.758 114.122)" opacity="0.3">
        <path id="Path_716" data-name="Path 716" d="M86.655,466.631c-1.437-5.68,2.322-11.36,6.516-15.453s9.189-7.752,11.394-13.181c3.558-8.788-1.1-20.232,5.012-27.549,3.542-4.31,9.89-5.714,13.031-10.325a23.489,23.489,0,0,0,2.874-8.236,83.85,83.85,0,0,1,21.084-38.926,72.59,72.59,0,0,1-8.353,37.573c-2.456,4.611-5.463,9.105-6.282,14.267-1.37,8.353,3.341,17.024,1.169,25.243-2.422,9.389-13.014,15.637-13.582,25.31-.468,8.2,6.683,15.42,6.048,23.606a21.953,21.953,0,0,1-3.692,9.69c-6.549,10.441-15.854,17.642-29.938,17.325l-17.275.5Z" transform="translate(-74.66 -352.96)"/>
      </g>
      <path id="Path_717" data-name="Path 717" d="M96.345,531.047a13.465,13.465,0,0,1-4.761-.134,29.072,29.072,0,0,1-5.6-1.437,24.144,24.144,0,0,1-6.916-3.842,9.54,9.54,0,0,1-2.823-3.809,17.944,17.944,0,0,1-.785-5.162,54.223,54.223,0,0,0-.368-5.6,15.3,15.3,0,0,0-2.088-5.563c-2-3.592-5.379-6.983-6.432-11.862s-.284-10.024.551-15.119,1.671-10.826-.317-16.239-5.58-10.308-7.434-16.406-.936-12.764-1.3-19.3a25.394,25.394,0,0,0-2.189-9.606c-1.387-3.057-3.341-5.948-4.795-9.172-3.024-6.532-3.525-13.9-4.327-21.134-.384-3.642-.785-7.334-1.169-11.043a53.911,53.911,0,0,0-1.871-11.06,96.133,96.133,0,0,0-4.06-10.709,35.085,35.085,0,0,1-1.971-5.6,55.748,55.748,0,0,1-.535-5.947,69.851,69.851,0,0,1,.535-11.945c.484-3.976,1.236-7.936,1.671-11.928v-.685l.084-.785.7.351a26.479,26.479,0,0,1,9.255,7.9,42.418,42.418,0,0,1,5.664,10.559c2.84,7.434,3.826,15.22,5.246,22.637s3.208,14.752,6.967,20.933c1.888,3.091,4.16,5.914,6.148,8.921a24.676,24.676,0,0,1,4.227,9.857c.969,7.317-3.091,13.716-2.289,20.181a22.537,22.537,0,0,0,3.208,8.971c1.554,2.773,3.341,5.329,5.112,7.919a49.606,49.606,0,0,1,4.594,7.986,25.06,25.06,0,0,1,2.122,8.687c.384,5.831-.468,11.344,0,16.573a37.974,37.974,0,0,0,4.177,14.217c2.055,4.26,4.36,8.119,6.282,11.845a58.481,58.481,0,0,1,2.59,5.53,26.378,26.378,0,0,1,1.487,5.463,34.264,34.264,0,0,1,0,9.857,24.809,24.809,0,0,1-5.012,12.547,11.365,11.365,0,0,1-1.4,1.5,6.584,6.584,0,0,1-1.136.952l-.986.685a21.963,21.963,0,0,0,3.341-3.341,25.059,25.059,0,0,0,4.761-12.446,34.182,34.182,0,0,0-.167-9.723,26.229,26.229,0,0,0-1.5-5.346c-.718-1.788-1.671-3.592-2.59-5.446-1.955-3.692-4.277-7.535-6.382-11.828a38.726,38.726,0,0,1-4.327-14.468c-.434-5.329.4-10.859,0-16.556a24.308,24.308,0,0,0-2.038-8.353,49.6,49.6,0,0,0-4.544-7.835c-1.671-2.573-3.575-5.146-5.179-7.969a23.657,23.657,0,0,1-3.241-9.356c-.785-6.9,3.241-13.365,2.239-20.131a23.389,23.389,0,0,0-4.11-9.389c-1.955-2.957-4.243-5.78-6.181-8.938-3.876-6.365-5.747-13.816-7.134-21.284s-2.422-15.169-5.212-22.454a41.2,41.2,0,0,0-5.513-10.274,25.478,25.478,0,0,0-8.854-7.568l.8-.451-.084.7c-.468,4.043-1.2,8-1.671,11.928a68,68,0,0,0-.535,11.778c.1,1.921.217,3.943.5,5.764a37.086,37.086,0,0,0,1.9,5.4,97.368,97.368,0,0,1,4.11,10.826,54.9,54.9,0,0,1,1.854,11.21c.4,3.709.785,7.4,1.169,11.043.785,7.267,1.286,14.518,4.193,20.816,1.453,3.141,3.341,6.031,4.778,9.205a26.73,26.73,0,0,1,2.272,10.024c.334,6.683-.568,13.181,1.2,19.1s5.5,10.792,7.368,16.389,1.119,11.461.267,16.623-1.671,10.258-.635,14.852,4.227,8.019,6.282,11.695a15.854,15.854,0,0,1,2.122,5.78A51.786,51.786,0,0,1,76,516.679a17.058,17.058,0,0,0,.7,5.012,9.256,9.256,0,0,0,2.656,3.659,23.773,23.773,0,0,0,6.683,3.842,29.353,29.353,0,0,0,5.513,1.537,23.641,23.641,0,0,0,3.508.368A12.449,12.449,0,0,1,96.345,531.047Z" transform="translate(-37.095 -262.975)" fill="#263238"/>
      <path id="Path_718" data-name="Path 718" d="M40.59,323.15a2.171,2.171,0,0,1,.167.518c.084.418.217.919.368,1.554.334,1.37.718,3.425,1.353,6s2.222,5.463,3.542,9.038,2.757,7.652,4.026,12.263,2.439,9.74,3.625,15.22a63.987,63.987,0,0,0,5.43,16.974c1.4,2.807,2.974,5.664,4.227,8.771a41.081,41.081,0,0,1,2.439,9.924,201.589,201.589,0,0,0,3.592,20.917c3.341,14.167,6.683,27.666,9.539,39.962s5.714,23.289,8,32.594,4.026,16.707,5.3,21.986l1.387,6c.134.635.251,1.153.334,1.57a2.591,2.591,0,0,1,0,.535,1.989,1.989,0,0,1-.184-.518l-.451-1.537c-.384-1.437-.919-3.425-1.671-5.948l-5.647-21.9c-2.339-9.289-5.129-20.315-8.22-32.528s-6.215-25.795-9.64-39.979a199.441,199.441,0,0,1-3.442-21.067,39.144,39.144,0,0,0-2.339-9.69c-1.2-3.024-2.757-5.864-4.16-8.7a64.8,64.8,0,0,1-5.4-17.091c-1.153-5.5-2.239-10.609-3.475-15.2s-2.539-8.721-3.859-12.263-2.74-6.5-3.341-9.155-.9-4.661-1.153-6.048c-.117-.635-.2-1.169-.267-1.587A2.156,2.156,0,0,1,40.59,323.15Z" transform="translate(-34.751 -258.83)" fill="#263238"/>
      <path id="Path_719" data-name="Path 719" d="M75.447,552.756C64.2,545.99,61.079,525.625,65.857,513.4s13.081-23.389,14.418-36.42c1.036-10.024-2.189-20.349.2-30.072,3.241-13.232,16.222-23.389,16.155-37.022,0-7.635-4.344-14.852-3.959-22.487.484-9.356,7.7-16.706,12.2-24.96,6.883-12.58,7.418-27.5,9.823-41.633s7.885-29.27,20.465-36.153c1.788,12.029,4.912,20.282,3.826,36.554-.4,5.831-7.251,16.99-8.253,29.788-.585,7.652-1.019,15.32-1.52,22.988s-1.036,15.036-3.742,22c-2.072,5.329-5.4,10.158-6.95,15.671-2.924,10.375.785,21.635-1.671,32.143-2,8.9-8.22,16.539-9.539,25.561-1.838,12.7,6.3,25.928,2.021,38.024-2.122,6-7.084,10.792-8.52,16.991-1.119,4.811,0,9.907-.969,14.735-1.671,7.785-16.539,13.75-24.475,13.232" transform="translate(-19.254 -284.65)" fill="#ff725e"/>
      <path id="Path_720" data-name="Path 720" d="M127.25,291.73a3.526,3.526,0,0,1,0,.685,17.745,17.745,0,0,1-.267,1.971c-.267,1.671-.568,4.277-1.169,7.568s-2.389,7.033-3.776,11.511-2.924,9.64-4.227,15.437-2.422,12.179-3.592,19.062-2.456,14.384-5.914,21.551c-1.671,3.592-3.341,7.2-4.745,11.026a50.117,50.117,0,0,0-2.456,12.179,244.261,244.261,0,0,1-3.458,26.263c-3.558,17.776-6.933,34.716-10.024,50.12L79,509.934c-2.489,11.561-4.511,20.933-5.914,27.5-.718,3.191-1.27,5.7-1.671,7.468l-.451,1.938a3.689,3.689,0,0,1-.2.652,3.959,3.959,0,0,1,0-.668c.1-.5.217-1.153.351-1.971.351-1.788.835-4.294,1.47-7.5,1.32-6.582,3.224-15.988,5.563-27.582s5.229-25.511,8.353-40.881l10.024-50.12A250.589,250.589,0,0,0,99.985,392.6a50.554,50.554,0,0,1,2.539-12.43c1.387-3.909,3.208-7.535,4.811-11.093,3.442-7.05,4.678-14.434,5.931-21.3s2.372-13.365,3.759-19.079,2.874-10.959,4.394-15.437,3.241-8.2,3.926-11.427,1.052-5.8,1.387-7.5c.15-.819.284-1.453.368-1.955A4.194,4.194,0,0,1,127.25,291.73Z" transform="translate(-14.523 -279.902)" fill="#263238"/>
    </g>
    <g id="freepik--Chart--inject-7" transform="translate(659.074 434.806)">
      <rect id="Rectangle_67" data-name="Rectangle 67" width="11.644" height="37.623" transform="translate(0 30.339)" fill="#ff725e"/>
      <rect id="Rectangle_68" data-name="Rectangle 68" width="11.644" height="53.093" transform="translate(21.434 14.852)" fill="#ff725e"/>
      <rect id="Rectangle_69" data-name="Rectangle 69" width="11.644" height="60.327" transform="translate(44.239 7.618)" fill="#ff725e"/>
      <rect id="Rectangle_70" data-name="Rectangle 70" width="11.644" height="67.962" transform="translate(67.06 0)" fill="#ff725e"/>
    </g>
    <g id="freepik--Gears--inject-7" transform="translate(192.178 418.768)">
      <path id="Path_721" data-name="Path 721" d="M172.771,317.143a8.018,8.018,0,0,1,2.506.785,10.728,10.728,0,0,1,4.327,15.387,10.91,10.91,0,0,1-4.795,4.127,10.776,10.776,0,0,1-12.547-2.823,10.275,10.275,0,0,1-1.671-2.757,9.707,9.707,0,0,1-.819-3.007,10.792,10.792,0,0,1,.819-5.664,10.609,10.609,0,0,1,9.656-6.4,7.736,7.736,0,0,1,2.606.351,12.268,12.268,0,0,0-2.59-.117,10.441,10.441,0,0,0-6.4,2.523,10.24,10.24,0,0,0-2.823,3.842,10.508,10.508,0,0,0-.718,5.4,9.774,9.774,0,0,0,.8,2.84,9.622,9.622,0,0,0,1.671,2.606,10.258,10.258,0,0,0,11.862,2.656,9.306,9.306,0,0,0,2.606-1.671,9.571,9.571,0,0,0,1.955-2.239,10.442,10.442,0,0,0-3.976-14.869A11.291,11.291,0,0,0,172.771,317.143Z" transform="translate(-98.394 -221.916)" fill="#263238"/>
      <path id="Path_722" data-name="Path 722" d="M189.178,313.5a2.941,2.941,0,0,1,0-.367v-5.6l.084.1-9.64-2.1.167-.084-2.539,5.4v.1h-.117a24.076,24.076,0,0,0-6.282,1.119h-.117l-.084-.084-4.243-4.193h.05L158.1,313.1l.1-.284,2,5.613v.134l-.1.117a24.507,24.507,0,0,0-3.659,5.212v.134h-5.964l.251-.217c-.668,3.024-1.4,6.282-2.138,9.623l-.15-.317,5.38,2.556.15.084v.167a25.062,25.062,0,0,0,1.086,6.265v.167l-.134.134-4.21,4.227v-.367L156,354.7l-.351-.134,5.613-2h.184l.134.117a23.6,23.6,0,0,0,5.179,3.659h0c.084.117-.15-.267.167.267h0v5.948l-.234-.3,9.623,2.172-.334.167c.852-1.821,1.671-3.609,2.556-5.4l.084-.15h.184a23.673,23.673,0,0,0,6.248-1.086h.184l.117.117,4.227,4.227h-.368l8.353-5.263-.117.317c-.685-1.9-1.337-3.776-2-5.613v-.15l.117-.134a24.057,24.057,0,0,0,3.675-5.2v-.134h6.115l-.234.2c.769-3.341,1.487-6.582,2.172-9.64l.134.267-5.379-2.573h-.117v-.134a23.74,23.74,0,0,0-1.069-6.282v-.2l4.227-4.227v.234l-5.246-8.353H200l-5.63,1.955h0a26.234,26.234,0,0,0-3.826-2.94l-1.036-.618-.334-.217.368.167,1.053.568a24.883,24.883,0,0,1,3.909,2.89h-.1l5.6-2.038h.1v.1l5.313,8.353v.117l-.1.117-4.193,4.227v-.2a23.921,23.921,0,0,1,1.119,6.4l-.117-.184,5.4,2.539.167.083v.184c-.668,3.041-1.387,6.232-2.138,9.623v.2h-6.165l.234-.134a24.494,24.494,0,0,1-3.742,5.313v-.267c.652,1.838,1.337,3.709,2,5.613l.084.217-.2.117-8.353,5.279-.2.134-.167-.167-4.227-4.21h.3a24.254,24.254,0,0,1-6.415,1.119l.251-.167c-.835,1.771-1.671,3.575-2.556,5.38l-.1.217h-.234l-9.623-2.155h-.234v-6.415h0c.317.535,0,.15.167.267h0a24.221,24.221,0,0,1-5.313-3.742h.3l-5.613,1.988-.234.083-.117-.2-5.279-8.353-.134-.2.167-.167,4.21-4.227v.3a24.791,24.791,0,0,1-1.119-6.415l.167.234-5.329-2.473-.2-.1V333.4l2.172-9.623v-.217h6.382l-.217.134a24.206,24.206,0,0,1,3.742-5.3v.251l-1.988-5.63v-.184l.167-.1,8.353-5.263.15-.083.134.117,4.21,4.227h-.2a24.108,24.108,0,0,1,6.382-1.086l-.15.1,2.59-5.38v-.117h.117l9.606,2.222h.084v5.563a3.616,3.616,0,0,1-.234.468Z" transform="translate(-106.314 -229.653)" fill="#263238"/>
      <path id="Path_723" data-name="Path 723" d="M179.874,268.9A27,27,0,0,1,185.688,273l6.215-2.205L197.734,280l-4.644,4.678a27.214,27.214,0,0,1,1.22,7.017l5.948,2.823-2.389,10.592h-6.582a27.065,27.065,0,0,1-4.11,5.814l2.222,6.215-9.222,5.831-4.678-4.494a27.213,27.213,0,0,1-7,1.22l-2.823,5.948-10.642-2.389v-6.582a26.731,26.731,0,0,1-5.814-4.11L143,314.781l-5.847-9.222,4.661-4.661a27.465,27.465,0,0,1-1.22-7.017l-5.948-2.823,2.372-10.642h6.566a26.6,26.6,0,0,1,4.093-5.814l-2.189-6.248,9.205-5.847,4.678,4.661a27.214,27.214,0,0,1,7.017-1.22L169.216,260l10.642,2.389v6.582Zm-9.389,12.53a11.695,11.695,0,1,0,7.326,5.156,11.695,11.695,0,0,0-7.326-5.156Z" transform="translate(-115.187 -260)" fill="#ff725e" fill-rule="evenodd"/>
      <g id="Group_61" data-name="Group 61" transform="translate(19.463 0)" opacity="0.8">
        <path id="Path_724" data-name="Path 724" d="M179.874,268.9A27,27,0,0,1,185.688,273l6.215-2.205L197.734,280l-4.644,4.678a27.214,27.214,0,0,1,1.22,7.017l5.948,2.823-2.389,10.592h-6.582a27.065,27.065,0,0,1-4.11,5.814l2.222,6.215-9.222,5.831-4.678-4.494a27.213,27.213,0,0,1-7,1.22l-2.823,5.948-10.642-2.389v-6.582a26.731,26.731,0,0,1-5.814-4.11L143,314.781l-5.847-9.222,4.661-4.661a27.465,27.465,0,0,1-1.22-7.017l-5.948-2.823,2.372-10.642h6.566a26.6,26.6,0,0,1,4.093-5.814l-2.189-6.248,9.205-5.847,4.678,4.661a27.214,27.214,0,0,1,7.017-1.22L169.216,260l10.642,2.389v6.582Zm-9.389,12.53a11.695,11.695,0,1,0,7.326,5.156,11.695,11.695,0,0,0-7.326-5.156Z" transform="translate(-134.65 -260)" fill="#fff" fill-rule="evenodd"/>
      </g>
      <path id="Path_725" data-name="Path 725" d="M149.2,304.976a15.537,15.537,0,0,1,3.341,2.372l3.625-1.286,3.341,5.363-2.706,2.723a15.8,15.8,0,0,1,.718,4.076l3.458,1.671-1.22,6.181h-3.842a15.8,15.8,0,0,1-2.372,3.341l1.286,3.609-5.379,3.341-2.706-2.706a16.037,16.037,0,0,1-4.093.7l-1.671,3.475-6.2-1.4v-3.826a15.3,15.3,0,0,1-3.341-2.389l-3.625,1.286-3.341-5.363,2.706-2.723a15.788,15.788,0,0,1-.7-4.076L123,317.673l1.387-6.2h3.625a16.12,16.12,0,0,1,2.389-3.341l-1.286-3.609,5.363-3.341,2.723,2.723a15.121,15.121,0,0,1,4.076-.718l1.671-3.458,6.2,1.387v3.842Zm-5.463,7.284a6.816,6.816,0,1,0,5.146,8.136A6.816,6.816,0,0,0,143.733,312.26Z" transform="translate(-123 -233.355)" fill="#ff725e" fill-rule="evenodd"/>
      <g id="Group_62" data-name="Group 62" transform="translate(0 66.375)" opacity="0.4">
        <path id="Path_726" data-name="Path 726" d="M149.2,304.976a15.537,15.537,0,0,1,3.341,2.372l3.625-1.286,3.341,5.363-2.706,2.723a15.8,15.8,0,0,1,.718,4.076l3.458,1.671-1.22,6.181h-3.842a15.8,15.8,0,0,1-2.372,3.341l1.286,3.609-5.379,3.341-2.706-2.706a16.037,16.037,0,0,1-4.093.7l-1.671,3.475-6.2-1.4v-3.826a15.3,15.3,0,0,1-3.341-2.389l-3.625,1.286-3.341-5.363,2.706-2.723a15.788,15.788,0,0,1-.7-4.076L123,317.673l1.387-6.2h3.625a16.12,16.12,0,0,1,2.389-3.341l-1.286-3.609,5.363-3.341,2.723,2.723a15.121,15.121,0,0,1,4.076-.718l1.671-3.458,6.2,1.387v3.842Zm-5.463,7.284a6.816,6.816,0,1,0,5.146,8.136A6.816,6.816,0,0,0,143.733,312.26Z" transform="translate(-123 -299.73)" fill="#fff" fill-rule="evenodd"/>
      </g>
    </g>
    <g id="freepik--Character--inject-7" transform="translate(272.72 320.941)">
      <path id="Path_727" data-name="Path 727" d="M362.789,297.112A16.339,16.339,0,0,0,374.6,280.823c-.2-3.341-1.42-6.449-1.286-9.723.217-5.012,3.592-9.372,6.131-13.783s4.227-10.208,1.27-14.351c-1.9-2.69-5.3-3.893-7.618-6.232s-3.341-5.463-4.578-8.453-2.79-6.081-5.6-7.668-7.1-.9-8.253,2.122" transform="translate(-48.173 -189.144)" fill="#263238"/>
      <path id="Path_728" data-name="Path 728" d="M381.254,227c5.012-3.191,6.215-10.559,3.492-15.821s-8.47-8.47-14.318-9.422a27.3,27.3,0,0,0-23.506,7.785c-3.224,3.341-5.847,7.668-10.224,9.189-3.842,1.353-8.1.134-12.146.668a18.377,18.377,0,0,0-12.847,9.255,39.494,39.494,0,0,0-4.561,15.621c-.585,5.012-.986,10.442-4.427,14.067s-8.7,4.294-12.881,6.816a17.642,17.642,0,0,0-5.246,24.091c1.671,2.406,4.043,4.628,4.227,7.551s-1.537,5.012-2.356,7.618a11.895,11.895,0,0,0,10.191,14.768c3.475.2,7.184-1.153,10.308.4s4.243,5.279,6.215,8.119a14.919,14.919,0,0,0,18.16,4.678c2.556-1.253,5.012-3.341,7.8-3.124s5.012,2.606,7.852,3.141c3.659.7,7.117-1.988,9.289-5.012s3.692-6.582,6.465-9.055c3.642-3.241,8.754-4.026,13.365-5.613a37.673,37.673,0,0,0,21.234-52.759" transform="translate(-96.976 -201.444)" fill="#263238"/>
      <path id="Path_729" data-name="Path 729" d="M374.878,225.052a8,8,0,0,1,7.134,8.136h0l-4.778,108.041c-.2,12.764-18.845,19.931-32.511,19.613h0c-13.8-.317-14.234-7.084-14.418-19.229-.284-20.282-.251-27.9-.267-27.783s-17.425-2.924-20.983-25.678c-1.771-11.327-1.169-29.871-.184-45.024.9-13.649,10.024-30.372,23.573-28.9Z" transform="translate(-79.524 -192.932)" fill="#ffbe9d"/>
      <path id="Path_730" data-name="Path 730" d="M311.44,241.357a2.94,2.94,0,0,0,2.807,2.957,2.79,2.79,0,0,0,3.007-2.623,2.907,2.907,0,0,0-2.79-2.957,2.807,2.807,0,0,0-3.024,2.623Z" transform="translate(-77.165 -176.442)" fill="#263238"/>
      <path id="Path_731" data-name="Path 731" d="M310.859,238.5c.368.384,2.573-1.253,5.714-1.236s5.43,1.587,5.78,1.2-.2-.852-1.2-1.587a8,8,0,0,0-4.628-1.437,7.635,7.635,0,0,0-4.544,1.453C311.01,237.629,310.676,238.33,310.859,238.5Z" transform="translate(-77.587 -178.645)" fill="#263238"/>
      <path id="Path_732" data-name="Path 732" d="M330.17,241.356a2.94,2.94,0,0,0,2.807,2.957,2.79,2.79,0,0,0,3.007-2.623,2.907,2.907,0,0,0-2.807-2.957,2.79,2.79,0,0,0-3.007,2.623Z" transform="translate(-64.604 -176.442)" fill="#263238"/>
      <path id="Path_733" data-name="Path 733" d="M329.329,238.887c.368.384,2.573-1.253,5.714-1.236s5.43,1.671,5.78,1.2-.2-.852-1.2-1.587a8,8,0,0,0-4.628-1.437,7.752,7.752,0,0,0-4.544,1.453C329.48,238.035,329.146,238.72,329.329,238.887Z" transform="translate(-65.2 -178.383)" fill="#263238"/>
      <path id="Path_734" data-name="Path 734" d="M325.628,262.076a20.7,20.7,0,0,0-5.012-.936c-.8-.083-1.57-.251-1.671-.785a4.026,4.026,0,0,1,.551-2.372c.752-1.938,1.554-3.976,2.372-6.1,3.341-8.687,5.714-15.838,5.363-15.955s-3.341,6.8-6.683,15.47c-.785,2.155-1.554,4.193-2.272,6.148a4.578,4.578,0,0,0-.434,3.141,1.988,1.988,0,0,0,1.32,1.169,5.529,5.529,0,0,0,1.37.2,20.68,20.68,0,0,0,5.1.017Z" transform="translate(-72.942 -178.317)" fill="#263238"/>
      <path id="Path_735" data-name="Path 735" d="M321.11,277.036A57.939,57.939,0,0,0,351.6,269s-7.718,16.038-30.489,13.85Z" transform="translate(-70.68 -156.138)" fill="#eb996e"/>
      <path id="Path_736" data-name="Path 736" d="M323.392,256.961a5.68,5.68,0,0,1,5.012-2.088,5.1,5.1,0,0,1,3.558,1.921,3.341,3.341,0,0,1,.251,3.742,3.843,3.843,0,0,1-4.127,1.036,12.229,12.229,0,0,1-4.01-2.406,3.909,3.909,0,0,1-.885-.936,1.053,1.053,0,0,1,0-1.169" transform="translate(-69.403 -165.633)" fill="#ff725e"/>
      <path id="Path_737" data-name="Path 737" d="M332.024,252.89c-.518,0-.535,3.341-3.458,5.8s-6.549,2.021-6.566,2.506c0,.2.8.652,2.339.7a8.353,8.353,0,0,0,5.48-1.9,7.351,7.351,0,0,0,2.673-4.845C332.609,253.725,332.224,252.873,332.024,252.89Z" transform="translate(-70.083 -166.942)" fill="#263238"/>
      <path id="Path_738" data-name="Path 738" d="M328.477,235.307c.3.852,3.442.451,7.117.9s6.683,1.47,7.15.7c.234-.368-.284-1.169-1.487-2a12.58,12.58,0,0,0-10.876-1.22C329.028,234.221,328.343,234.906,328.477,235.307Z" transform="translate(-65.75 -180.299)" fill="#263238"/>
      <path id="Path_739" data-name="Path 739" d="M311.57,233.112c.551.718,2.723,0,5.313,0s4.811.484,5.313-.251c.234-.368-.117-1.086-1.086-1.754a7.635,7.635,0,0,0-8.554.251C311.637,232.026,311.337,232.761,311.57,233.112Z" transform="translate(-77.128 -182.348)" fill="#263238"/>
      <path id="Path_740" data-name="Path 740" d="M340.873,217.845A22.1,22.1,0,0,1,358.9,214.5c6.065,1.671,11.093,7.217,11.31,13.365.134,4.01-1.671,8.353.184,11.912s5.864,4.845,8.838,7.351a13.566,13.566,0,0,1,3.141,16.406c-2.489,4.561-7.7,7.9-8.136,13.048-.418,4.845,3.659,8.938,4.661,13.7,1.086,5.246-1.821,10.675-5.981,14.167s-9.439,5.413-14.585,7.251c-4.01,1.453-8.353,2.924-12.48,1.971a12.78,12.78,0,0,1-9.356-10.659,17.392,17.392,0,0,1,4.728-13.733c2.924-3.224,7.033-5.948,7.735-10.208,1.086-6.683-6.8-12.045-6.315-18.728.251-3.442,2.69-6.3,4.711-9.138s3.792-6.4,2.539-9.623c-1.671-4.21-7.134-5.313-10.475-8.353a10.208,10.208,0,0,1-2.79-10.341,10.525,10.525,0,0,1,8.253-7.033" transform="translate(-60.555 -193.126)" fill="#263238"/>
      <path id="Path_741" data-name="Path 741" d="M368.45,215.851a15.554,15.554,0,0,1-18.377,15.37c-3.475-.635-7.284-2.389-10.291-.535s-3.341,6.683-6.1,9.138c-4.01,3.492-10.375.217-15.47,1.671-3.926,1.169-6.382,4.912-9,8.086s-6.516,6.165-10.458,5.012a46.16,46.16,0,0,1,1.57-10.492,15.52,15.52,0,0,1,5.948-8.537,57.36,57.36,0,0,0,5.012-2.94c3.341-2.623,4.026-7.217,6.031-10.893a17.074,17.074,0,0,1,13-8.621c4.477-.451,9.088.885,13.365-.217,3.224-.8,6.048-2.89,9.306-3.525,6.365-1.2,12.279,3.341,16.89,7.9" transform="translate(-85.675 -196.261)" fill="#263238"/>
      <path id="Path_742" data-name="Path 742" d="M380.891,265.544a4.779,4.779,0,0,0,.518-2.623,6.683,6.683,0,0,0-4.594-5.263,34.086,34.086,0,0,0-5.012-1.353,14.552,14.552,0,0,1-5.664-2.339,7.919,7.919,0,0,1-2.94-6.081,60.434,60.434,0,0,1,.351-7.15,16.21,16.21,0,0,0-.184-3.508,7.486,7.486,0,0,0-1.336-2.99,11.461,11.461,0,0,0-5.48-3.141,23.74,23.74,0,0,1-5.58-2.406,18.611,18.611,0,0,1-4.11-3.341,19.111,19.111,0,0,1-4.01-6.482,11.692,11.692,0,0,1-.585-1.988c-.1-.468-.134-.7-.1-.718s.3.952.986,2.59A20.231,20.231,0,0,0,356.8,230.361a12.046,12.046,0,0,1,5.881,3.341,8.352,8.352,0,0,1,1.537,3.341,17.227,17.227,0,0,1,.2,3.709,65.509,65.509,0,0,0-.368,7.067,7.134,7.134,0,0,0,2.589,5.513,14.083,14.083,0,0,0,5.329,2.255,32.936,32.936,0,0,1,5.012,1.487,8.12,8.12,0,0,1,3.542,2.64,6.164,6.164,0,0,1,1.153,3.124,4.093,4.093,0,0,1-.418,2.072C381.108,265.377,380.907,265.561,380.891,265.544Z" transform="translate(-56.568 -191.575)" fill="#455a64"/>
      <path id="Path_743" data-name="Path 743" d="M285.8,287.721l-.384-.184a2.691,2.691,0,0,1-.852-.852,4.594,4.594,0,0,1,.468-4.494,5.9,5.9,0,0,1,2.439-2.339,31.3,31.3,0,0,1,3.659-1.537,11.411,11.411,0,0,0,3.826-2.172,8.353,8.353,0,0,0,2.189-4.31c.367-1.671.484-3.575.8-5.513a12.011,12.011,0,0,1,2.255-5.747c2.64-3.475,6.983-5.329,10.224-8.6a15.971,15.971,0,0,0,3.559-6.031,42.026,42.026,0,0,0,1.671-7.284c.7-5.012,1.42-10.592,4.778-15.169a11.026,11.026,0,0,1,6.866-4.427,24.125,24.125,0,0,1,7.919.184,27.983,27.983,0,0,0,7.4.434,9.623,9.623,0,0,0,6.048-3.124c3.107-3.341,4.878-7.852,8.7-10.158a14.535,14.535,0,0,1,11.494-1.587,12.763,12.763,0,0,1,7.551,5.881,14.268,14.268,0,0,1,1.971,7.017,12.446,12.446,0,0,1-.718,4.544,7.4,7.4,0,0,1-.685,1.47s.2-.518.518-1.52a13.367,13.367,0,0,0,.551-4.477,14.2,14.2,0,0,0-2.038-6.783,12.279,12.279,0,0,0-7.318-5.53,13.9,13.9,0,0,0-10.943,1.671,16.021,16.021,0,0,0-4.394,4.527,52.228,52.228,0,0,1-4.11,5.563,11.508,11.508,0,0,1-2.907,2.289,11.025,11.025,0,0,1-3.625,1.119,29.17,29.17,0,0,1-7.618-.418,23.39,23.39,0,0,0-7.635-.2,10.275,10.275,0,0,0-6.332,4.11,21.1,21.1,0,0,0-3.258,7.134,70.68,70.68,0,0,0-1.387,7.652,41.914,41.914,0,0,1-1.671,7.418,16.489,16.489,0,0,1-3.776,6.315c-3.425,3.341-7.718,5.212-10.224,8.5a11.512,11.512,0,0,0-2.172,5.4c-.317,1.9-.451,3.776-.869,5.547a8.637,8.637,0,0,1-2.406,4.578,11.693,11.693,0,0,1-4.026,2.222,31.756,31.756,0,0,0-3.642,1.453,5.73,5.73,0,0,0-2.339,2.138,4.528,4.528,0,0,0-.6,4.243,3.926,3.926,0,0,0,1.036,1.052Z" transform="translate(-95.446 -199.551)" fill="#455a64"/>
      <path id="Path_744" data-name="Path 744" d="M255.637,382.1l40.346-3.692S320.809,313,351.415,297.15l19.831,34.633-42.451,79.74H245.93Z" transform="translate(-121.099 -137.259)" fill="#ff725e"/>
      <path id="Path_745" data-name="Path 745" d="M255.637,382.1l40.346-3.692S320.809,313,351.415,297.15l19.831,34.633-42.451,79.74H245.93Z" transform="translate(-121.099 -137.259)" opacity="0.3"/>
      <path id="Path_746" data-name="Path 746" d="M261.28,364.07a60.394,60.394,0,0,1,7.551-12.63A63.618,63.618,0,0,1,261.28,364.07Z" transform="translate(-110.805 -100.849)" fill="#fafafa"/>
      <path id="Path_747" data-name="Path 747" d="M282.079,363.111A62.165,62.165,0,0,1,272.89,351.7a29.049,29.049,0,0,1,4.928,5.43,31.743,31.743,0,0,1,4.26,5.981Z" transform="translate(-103.018 -100.675)" fill="#fafafa"/>
      <path id="Path_748" data-name="Path 748" d="M281.534,353.812a32.5,32.5,0,0,1,0-10.592,32.5,32.5,0,0,1,0,10.592Z" transform="translate(-97.512 -106.362)" fill="#fafafa"/>
      <path id="Path_749" data-name="Path 749" d="M275.756,365.448a10.727,10.727,0,0,1-3.859-1.988c-2-1.32-3.508-2.539-3.341-2.74a11.293,11.293,0,0,1,3.859,2C274.319,364.028,275.889,365.247,275.756,365.448Z" transform="translate(-105.934 -94.626)" fill="#fafafa"/>
      <path id="Path_750" data-name="Path 750" d="M289.285,327.57a35.784,35.784,0,0,1-2.79,7.284,35.266,35.266,0,0,1-3.575,6.933,33.987,33.987,0,0,1,2.773-7.284,35.839,35.839,0,0,1,3.592-6.933Z" transform="translate(-96.292 -116.858)" fill="#fafafa"/>
      <path id="Path_751" data-name="Path 751" d="M299.327,311.71c.134.184-1.3,1.52-3.224,2.99a11.444,11.444,0,0,1-3.759,2.289c-.134-.2,1.3-1.537,3.224-2.99A11.108,11.108,0,0,1,299.327,311.71Z" transform="translate(-89.978 -127.494)" fill="#fafafa"/>
      <path id="Path_752" data-name="Path 752" d="M332.64,404.932l20.816-84.05a28.568,28.568,0,0,1,32.812-21.267h0a28.618,28.618,0,0,1,23.189,32.528l-12.73,82.146a41.1,41.1,0,0,1-34.115,33.3l-16.539,2.573Z" transform="translate(-62.947 -135.914)" fill="#ff725e"/>
      <path id="Path_753" data-name="Path 753" d="M388.525,298.216a18.945,18.945,0,0,0-7.434-3.726,19.763,19.763,0,0,0-8.955,0,24.242,24.242,0,0,0-9.74,5.012c-6.1,5.112-9.406,11.694-11.695,16.406-1.119,2.356-1.971,4.294-2.573,5.63a12.659,12.659,0,0,1-1.019,2.055,11.874,11.874,0,0,1,.7-2.172c.518-1.387,1.27-3.341,2.322-5.78a66.7,66.7,0,0,1,4.277-8.2,36.606,36.606,0,0,1,7.4-8.6,24.392,24.392,0,0,1,10.107-5.2,19.831,19.831,0,0,1,9.289.117,15.955,15.955,0,0,1,5.647,2.723,10.269,10.269,0,0,1,1.253,1.153A4.893,4.893,0,0,1,388.525,298.216Z" transform="translate(-53.243 -139.946)" fill="#263238"/>
      <path id="Path_754" data-name="Path 754" d="M312.316,307.5a4.442,4.442,0,0,1-.585.785l-1.771,2.138c-1.554,1.854-3.742,4.561-6.248,8.053a86.088,86.088,0,0,0-14.217,30.172c-2.89,12.814-3.041,24.809-3.525,33.413-.217,4.31-.418,7.8-.6,10.208-.1,1.136-.184,2.055-.251,2.773a6.558,6.558,0,0,1-.134.969,3.341,3.341,0,0,1,0-.969c0-.735,0-1.671.084-2.79,0-2.523.184-5.981.317-10.208.334-8.587.368-20.633,3.341-33.58a83,83,0,0,1,14.551-30.322c2.589-3.475,4.862-6.148,6.482-7.936.8-.9,1.47-1.57,1.9-2.021a5.253,5.253,0,0,1,.651-.685Z" transform="translate(-94.931 -130.318)" fill="#263238"/>
      <path id="Path_755" data-name="Path 755" d="M446.223,328.412c-2.289-15.036-10.575-18.628-19.179-23.306-2.807-1.537-16.356-5.012-27.1-7.635-1.036-6.5-2.874-18.16-3.341-20.616-.568-3.458-54.73,5.179-55.415,6.482-.451.852-1.671,14.351-2.489,23.389l-12.964,4.527-16.857,21.518-8.8,12.5a67.226,67.226,0,0,0-10.909,24.024,130.743,130.743,0,0,0-2.422,29.1l-2.623,55.131,113.4,32.043,8.687-55.9,29.236-39.795C437.937,373.787,449.03,346.889,446.223,328.412Z" transform="translate(-95.487 -151.413)" fill="#ff725e"/>
      <path id="Path_756" data-name="Path 756" d="M324.394,305.87a17.056,17.056,0,0,1-.752-3.826c-.351-2.372-.785-5.664-1.2-9.305-.2-1.8-.384-3.525-.568-5.146a41.765,41.765,0,0,1-.3-4.243,5.012,5.012,0,0,1,.819-2.823c.434-.568.8-.718.835-.685s-.251.3-.551.869a5.464,5.464,0,0,0-.485,2.64c0,1.169.3,2.573.485,4.16s.4,3.341.635,5.129c.418,3.642.752,6.95.952,9.339A16.979,16.979,0,0,1,324.394,305.87Z" transform="translate(-70.371 -148.87)" fill="#263238"/>
      <path id="Path_757" data-name="Path 757" d="M333.115,303.379a13.267,13.267,0,0,1-1.2-3.508,55.366,55.366,0,0,1-1.671-17.742,13.63,13.63,0,0,1,.535-3.659c.267,0-.217,5.63.434,12.513S333.382,303.313,333.115,303.379Z" transform="translate(-64.641 -149.787)" fill="#263238"/>
      <path id="Path_758" data-name="Path 758" d="M349.7,300.758a58.02,58.02,0,0,0-.317-12.463,55.387,55.387,0,0,0-3.909-11.845,10.876,10.876,0,0,1,1.988,3.158,31.742,31.742,0,0,1,3.041,17.525A12.027,12.027,0,0,1,349.7,300.758Z" transform="translate(-54.343 -151.141)" fill="#263238"/>
      <path id="Path_759" data-name="Path 759" d="M302,325.778a51.789,51.789,0,0,1,9.94-13.248Q307.3,319.393,302,325.778Z" transform="translate(-83.496 -126.944)" fill="#fafafa"/>
      <path id="Path_760" data-name="Path 760" d="M320.583,312.373a53.463,53.463,0,0,1-8.353-10.893,28.632,28.632,0,0,1,4.494,5.179A27.5,27.5,0,0,1,320.583,312.373Z" transform="translate(-76.635 -134.355)" fill="#fafafa"/>
      <path id="Path_761" data-name="Path 761" d="M337.549,300.22a47.914,47.914,0,0,1-5.329,5.4,50.452,50.452,0,0,1-5.53,5.2A25.675,25.675,0,0,1,331.618,305,25.062,25.062,0,0,1,337.549,300.22Z" transform="translate(-66.937 -135.2)" fill="#fafafa"/>
      <path id="Path_762" data-name="Path 762" d="M331.822,293.517a15.6,15.6,0,0,1-4.16-3.174,16.371,16.371,0,0,1-3.592-3.842,16.606,16.606,0,0,1,4.177,3.191,16.105,16.105,0,0,1,3.575,3.826Z" transform="translate(-68.695 -144.401)" fill="#fafafa"/>
      <path id="Path_763" data-name="Path 763" d="M347.287,283.24a19.751,19.751,0,0,1-5.63,1.671,20.415,20.415,0,0,1-5.8.8,20.144,20.144,0,0,1,5.613-1.671,20.5,20.5,0,0,1,5.814-.8Z" transform="translate(-60.788 -146.588)" fill="#fafafa"/>
      <path id="Path_764" data-name="Path 764" d="M345.856,310.085a19.63,19.63,0,0,1-.735-5.831,20.283,20.283,0,0,1,.134-5.864,19.629,19.629,0,0,1,.735,5.831,20.283,20.283,0,0,1-.134,5.864Z" transform="translate(-54.678 -136.427)" fill="#fafafa"/>
      <path id="Path_765" data-name="Path 765" d="M342.425,321.519a31.238,31.238,0,0,1-2.94-6.683,32.241,32.241,0,0,1-2.105-7.067,63.786,63.786,0,0,1,5.012,13.816Z" transform="translate(-59.768 -130.137)" fill="#fafafa"/>
      <path id="Path_766" data-name="Path 766" d="M328.793,329.358a34.65,34.65,0,0,1-3.208-7.067,33.953,33.953,0,0,1-2.406-7.4,36.2,36.2,0,0,1,3.208,7.084,35.438,35.438,0,0,1,2.406,7.384Z" transform="translate(-69.291 -125.362)" fill="#fafafa"/>
      <path id="Path_767" data-name="Path 767" d="M314.667,337.747a59.328,59.328,0,0,1-2.907-14.167,30.5,30.5,0,0,1,1.871,7,30.823,30.823,0,0,1,1.036,7.167Z" transform="translate(-76.95 -119.534)" fill="#fafafa"/>
      <path id="Path_768" data-name="Path 768" d="M300.495,337.524a59.353,59.353,0,0,1-6.215-12.764A59.353,59.353,0,0,1,300.495,337.524Z" transform="translate(-88.673 -118.742)" fill="#fafafa"/>
      <path id="Path_769" data-name="Path 769" d="M303.277,342.34a37.2,37.2,0,0,1-6.783,3.826,34.83,34.83,0,0,1-7.184,3.057,35.417,35.417,0,0,1,6.8-3.842,34.952,34.952,0,0,1,7.167-3.041Z" transform="translate(-92.006 -106.952)" fill="#fafafa"/>
      <path id="Path_770" data-name="Path 770" d="M299.2,363.09a18.827,18.827,0,0,1-2.356-6.1,18.627,18.627,0,0,1-.986-6.432,34.251,34.251,0,0,1,1.821,6.215,34.767,34.767,0,0,1,1.52,6.315Z" transform="translate(-87.616 -101.44)" fill="#fafafa"/>
      <path id="Path_771" data-name="Path 771" d="M298.788,372.882a30.207,30.207,0,0,1-5.446-4.411,27.5,27.5,0,0,1-4.862-5.012,30.2,30.2,0,0,1,5.446,4.41,27.5,27.5,0,0,1,4.862,5.012Z" transform="translate(-92.563 -92.788)" fill="#fafafa"/>
      <path id="Path_772" data-name="Path 772" d="M321.609,361.56c0,.251-3.776,1.353-8.253,3.341s-7.885,4.026-8.036,3.809A26.462,26.462,0,0,1,313,364.1a26.046,26.046,0,0,1,8.6-2.539Z" transform="translate(-81.269 -94.063)" fill="#fafafa"/>
      <path id="Path_773" data-name="Path 773" d="M310.757,360.8a22.9,22.9,0,0,1-2.456-5.73,22.283,22.283,0,0,1-1.671-6,22.585,22.585,0,0,1,2.439,5.714,22,22,0,0,1,1.687,6.014Z" transform="translate(-80.391 -102.439)" fill="#fafafa"/>
      <path id="Path_774" data-name="Path 774" d="M325.174,342.57a48.744,48.744,0,0,1-4.561,8.069,50.281,50.281,0,0,1-5.313,7.685,100.251,100.251,0,0,1,9.874-15.671Z" transform="translate(-74.576 -106.798)" fill="#fafafa"/>
      <path id="Path_775" data-name="Path 775" d="M338.1,350.306a33.647,33.647,0,0,1-5.563-7.585,34.415,34.415,0,0,1-4.076-8.47c.234-.1,2.172,3.609,4.828,8.036S338.3,350.172,338.1,350.306Z" transform="translate(-65.75 -112.379)" fill="#fafafa"/>
      <path id="Path_776" data-name="Path 776" d="M347.137,331.008a16.539,16.539,0,0,1-6.365,1.136,16.708,16.708,0,0,1-6.432-.5,42.85,42.85,0,0,1,6.4-.367,44.594,44.594,0,0,1,6.4-.267Z" transform="translate(-61.807 -114.566)" fill="#fafafa"/>
      <path id="Path_777" data-name="Path 777" d="M367.237,316.39a97.1,97.1,0,0,1-16.707,7.986A100.489,100.489,0,0,1,367.237,316.39Z" transform="translate(-50.949 -124.356)" fill="#fafafa"/>
      <path id="Path_778" data-name="Path 778" d="M361.76,312.455a64.686,64.686,0,0,1,6.683-13.365,31.745,31.745,0,0,1-2.94,6.866,32.984,32.984,0,0,1-3.742,6.5Z" transform="translate(-43.418 -135.958)" fill="#fafafa"/>
      <path id="Path_779" data-name="Path 779" d="M375.438,320.526a55.75,55.75,0,0,1-2.539-7.6,55.263,55.263,0,0,1-2.239-7.685,44.824,44.824,0,0,1,4.778,15.286Z" transform="translate(-37.449 -131.833)" fill="#fafafa"/>
      <path id="Path_780" data-name="Path 780" d="M381.413,324.07a26.048,26.048,0,0,1-7.334,2.673,25.207,25.207,0,0,1-7.718,1.186,56.556,56.556,0,0,1,7.5-2.021A57.159,57.159,0,0,1,381.413,324.07Z" transform="translate(-40.333 -119.205)" fill="#fafafa"/>
      <path id="Path_781" data-name="Path 781" d="M355.231,343.267c-.251,0,.468-4.11.668-9.172s-.134-9.172.117-9.205a27.5,27.5,0,0,1,.752,9.239,27.115,27.115,0,0,1-1.537,9.138Z" transform="translate(-47.832 -118.655)" fill="#fafafa"/>
      <path id="Path_782" data-name="Path 782" d="M355.549,353.32a41.115,41.115,0,0,1-10.859-13.1c.217-.134,2.422,2.957,5.43,6.566a80.189,80.189,0,0,1,5.43,6.532Z" transform="translate(-54.866 -108.376)" fill="#fafafa"/>
      <path id="Path_783" data-name="Path 783" d="M377.127,345.51a33.853,33.853,0,0,1-6.967,3.341,35.3,35.3,0,0,1-7.3,2.573,70.261,70.261,0,0,1,14.267-5.964Z" transform="translate(-42.68 -104.86)" fill="#fafafa"/>
      <path id="Path_784" data-name="Path 784" d="M364.3,375.767a99.321,99.321,0,0,1,.184-18.377A95.594,95.594,0,0,1,364.3,375.767Z" transform="translate(-41.944 -96.859)" fill="#fafafa"/>
      <path id="Path_785" data-name="Path 785" d="M348.65,374.494A53.462,53.462,0,0,1,353.278,356c.234.083-1.036,4.143-2.306,9.239S348.9,374.544,348.65,374.494Z" transform="translate(-52.21 -97.791)" fill="#fafafa"/>
      <path id="Path_786" data-name="Path 786" d="M356.764,373.117c0,.251-4.143.652-9.222,1.5s-9.155,1.788-9.222,1.537a34.046,34.046,0,0,1,9.072-2.406,33.261,33.261,0,0,1,9.372-.635Z" transform="translate(-59.138 -86.373)" fill="#fafafa"/>
      <path id="Path_787" data-name="Path 787" d="M332.2,373.609a34.517,34.517,0,0,1,5.012-5.764,32.9,32.9,0,0,1,5.58-5.146,34.506,34.506,0,0,1-5.012,5.764,33.627,33.627,0,0,1-5.58,5.145Z" transform="translate(-63.242 -93.298)" fill="#fafafa"/>
      <path id="Path_788" data-name="Path 788" d="M322.934,385.238a56.417,56.417,0,0,1-2.255-6.532,59.109,59.109,0,0,1-2.339-6.516A26.732,26.732,0,0,1,322.934,385.238Z" transform="translate(-72.537 -86.933)" fill="#fafafa"/>
      <path id="Path_789" data-name="Path 789" d="M345.592,389.144a92.4,92.4,0,0,1-16.422-7.284,47.1,47.1,0,0,1,8.353,3.241A48.791,48.791,0,0,1,345.592,389.144Z" transform="translate(-65.274 -80.448)" fill="#fafafa"/>
      <path id="Path_790" data-name="Path 790" d="M307.76,389.205a22.553,22.553,0,0,1,1.57-6.115,23.258,23.258,0,0,1,2.389-5.831,22.705,22.705,0,0,1-1.57,6.115A24.376,24.376,0,0,1,307.76,389.205Z" transform="translate(-79.633 -83.533)" fill="#fafafa"/>
      <path id="Path_791" data-name="Path 791" d="M336.964,388.643c0,.251-4.795-.518-10.709-.819s-10.709,0-10.726-.334a38.042,38.042,0,0,1,10.776-.535A37.578,37.578,0,0,1,336.964,388.643Z" transform="translate(-74.422 -77.141)" fill="#fafafa"/>
      <path id="Path_792" data-name="Path 792" d="M332.65,385.625a2.355,2.355,0,0,1,0-.668,6.169,6.169,0,0,1,.284-1.888,4.144,4.144,0,0,1,1.8-2.489,5.831,5.831,0,0,1,4.076-.668l-.334.2c1.821-6.415,4.745-15.771,7.668-26.263,2.74-9.823,4.594-18.862,5.881-25.427.635-3.158,1.136-5.78,1.537-7.768a20.7,20.7,0,0,1,.652-2.823,16.519,16.519,0,0,1-.318,2.89c-.267,1.854-.7,4.527-1.27,7.819a257,257,0,0,1-5.647,25.544c-2.924,10.508-5.947,19.831-7.952,26.2l-.083.251H338.7a5.362,5.362,0,0,0-3.726.5,4.01,4.01,0,0,0-1.754,2.189A19.6,19.6,0,0,0,332.65,385.625Z" transform="translate(-62.957 -123.39)" fill="#263238"/>
      <path id="Path_793" data-name="Path 793" d="M367.876,383.956c-.134,0-1.169-2.205-3.341-5.58a57.654,57.654,0,0,0-22.721-20.649c-3.558-1.788-5.914-2.606-5.864-2.757a8.149,8.149,0,0,1,1.671.451,37.375,37.375,0,0,1,4.427,1.754,52.158,52.158,0,0,1,22.988,20.883,37.779,37.779,0,0,1,2.155,4.243,5.581,5.581,0,0,1,.685,1.654Z" transform="translate(-60.727 -98.482)" fill="#263238"/>
      <g id="Group_63" data-name="Group 63" transform="translate(275.757 255.268)" opacity="0.2">
        <path id="Path_794" data-name="Path 794" d="M336.738,354.24a58.24,58.24,0,0,1,17.609,3.191c6,2.239,11.544,6.549,13.749,12.563a4.093,4.093,0,0,1-.317,4.327,3.074,3.074,0,0,1-3.158.518,8.234,8.234,0,0,1-2.773-1.9c-3.675-3.341-7.5-6.415-11.294-9.69s-9.339-6.683-14.284-7.468" transform="translate(-336.27 -354.24)"/>
      </g>
      <path id="Path_795" data-name="Path 795" d="M347.414,352.542a7.6,7.6,0,0,1-1.671,1,29.2,29.2,0,0,1-5.129,1.938,34.265,34.265,0,0,1-33.647-8.738,30.588,30.588,0,0,1-3.542-4.193,7.487,7.487,0,0,1-1.036-1.671c.134-.1,1.671,2.339,5.012,5.48a35.435,35.435,0,0,0,33.045,8.587C344.808,353.779,347.33,352.375,347.414,352.542Z" transform="translate(-83.234 -107.933)" fill="#263238"/>
      <g id="Group_64" data-name="Group 64" transform="translate(219.974 234.185)" opacity="0.2">
        <path id="Path_796" data-name="Path 796" d="M302.88,341.62c2.823,6.115,6.115,12.279,11.461,16.389a18.377,18.377,0,0,0,10.542,4.411c5.58.1,10.375-3.709,14.635-7.317-13.8,2.172-29.337-4.093-36.637-13.482" transform="translate(-302.88 -341.62)"/>
      </g>
      <path id="Path_797" data-name="Path 797" d="M340.851,302.807c-.267,0,0-5.747-.635-12.747s-2.055-12.563-1.8-12.63a13.447,13.447,0,0,1,1.153,3.592,61.383,61.383,0,0,1,1.5,8.955,62.6,62.6,0,0,1,.234,9.088,14.381,14.381,0,0,1-.451,3.742Z" transform="translate(-59.096 -150.484)" fill="#263238"/>
      <path id="Path_798" data-name="Path 798" d="M254.793,426.44s-18.16,3.926-34.365,1.487c-15.2-2.272-49.234.083-49.217,20.048,0,22.337,45.392,16.823,63.084,13.282s35.334-6.683,35.334-6.683Z" transform="translate(-171.21 -50.551)" fill="#ff725e"/>
      <path id="Path_799" data-name="Path 799" d="M198.255,449.887a38.657,38.657,0,0,1-2.189-7.768,38.094,38.094,0,0,1-1.337-7.969,38.656,38.656,0,0,1,2.122,7.768A38.094,38.094,0,0,1,198.255,449.887Z" transform="translate(-155.436 -45.38)" fill="#263238"/>
      <path id="Path_800" data-name="Path 800" d="M201.435,450.2a75.082,75.082,0,0,1-2.205-16.072,37.827,37.827,0,0,1,1.537,7.969,39.062,39.062,0,0,1,.668,8.1Z" transform="translate(-152.418 -45.393)" fill="#263238"/>
      <path id="Path_801" data-name="Path 801" d="M204.832,447.983a29.6,29.6,0,0,1-1.27-6.967,28.4,28.4,0,0,1-.418-7.067,58.47,58.47,0,0,1,1.671,14.033Z" transform="translate(-149.834 -45.514)" fill="#263238"/>
      <path id="Path_802" data-name="Path 802" d="M210.981,445.969a16.322,16.322,0,0,1-2.322-5.981,16.055,16.055,0,0,1-.668-6.4,47.5,47.5,0,0,1,1.5,6.181,44.92,44.92,0,0,1,1.487,6.2Z" transform="translate(-146.594 -45.756)" fill="#263238"/>
      <path id="Path_803" data-name="Path 803" d="M211,441.673a7.617,7.617,0,0,1,2.372-.167,20.384,20.384,0,0,1,6.365,1.253,7.532,7.532,0,0,1,1.971,1.052,2.991,2.991,0,0,1,1.22,2.222,3.341,3.341,0,0,1-4.11,2.99,8.487,8.487,0,0,1-4.728-3.341,14.785,14.785,0,0,1-.685-17.158,2.406,2.406,0,0,1,1.337-.819,1.888,1.888,0,0,1,1.52.485,4.076,4.076,0,0,1,1.136,2.439,12.179,12.179,0,0,1-.234,4.528,12.463,12.463,0,0,1-3.074,5.73,8.949,8.949,0,0,1-1.32,1.186,1.873,1.873,0,0,1-.535.317s.635-.568,1.671-1.671a13.048,13.048,0,0,0,2.723-5.647,11.8,11.8,0,0,0,.117-4.294,3.441,3.441,0,0,0-.919-1.971,1.169,1.169,0,0,0-1.754.3,14.15,14.15,0,0,0,.752,16.088,7.7,7.7,0,0,0,4.21,3.107,2.606,2.606,0,0,0,3.241-2.172,2.306,2.306,0,0,0-.936-1.671,6.533,6.533,0,0,0-1.754-1,22.134,22.134,0,0,0-6.165-1.47C211.772,441.706,211,441.74,211,441.673Z" transform="translate(-144.529 -49.712)" fill="#263238"/>
      <path id="Path_804" data-name="Path 804" d="M266.727,451.483l-.451.15-1.37.334-5.263,1.2c-4.578,1-11.227,2.422-19.48,4.01s-18.11,3.341-29.17,4.895a78.25,78.25,0,0,1-17.525.885,38.42,38.42,0,0,1-9.172-1.754,25.98,25.98,0,0,1-4.41-1.971,13.365,13.365,0,0,1-3.859-3.107h0a9.255,9.255,0,0,1-1.57-1.888,11.7,11.7,0,0,1-.919-9.773,15.637,15.637,0,0,1,5.814-7.618,30.071,30.071,0,0,1,8.27-4.093c1.453-.418,2.857-.919,4.294-1.236s2.857-.668,4.277-.869c11.377-1.788,21.718-.885,30.339-.885,4.31.083,8.2,0,11.611-.234a80.624,80.624,0,0,0,8.687-1.1l3.141-.668,2.255-.635,1.387-.384a1.824,1.824,0,0,1,.484-.1,2.934,2.934,0,0,1-.451.184l-1.37.468-2.239.718-3.124.752a77.889,77.889,0,0,1-8.738,1.253c-3.425.251-7.334.418-11.695.367-8.621.083-18.962-.768-30.189,1.052-1.4.2-2.79.585-4.21.885s-2.79.819-4.227,1.22a29.136,29.136,0,0,0-8.036,3.993,14.819,14.819,0,0,0-5.5,7.2,10.909,10.909,0,0,0,.835,9.038,8.471,8.471,0,0,0,1.42,1.671h0a13.165,13.165,0,0,0,3.592,2.857,24.774,24.774,0,0,0,4.243,1.9,37.338,37.338,0,0,0,8.971,1.671,79.139,79.139,0,0,0,17.358-.819c11.026-1.453,20.9-3.208,29.153-4.711s14.919-2.84,19.53-3.742l5.3-1.036,1.37-.251A1.537,1.537,0,0,1,266.727,451.483Z" transform="translate(-170.096 -50.417)" fill="#263238"/>
      <path id="Path_805" data-name="Path 805" d="M191,460.622a29.423,29.423,0,0,1-.451-4.644c-.2-2.857-.535-6.816-1.119-11.143s-1.286-8.236-1.854-11.06a27.848,27.848,0,0,1-.785-4.594,21.717,21.717,0,0,1,1.387,4.461,101.548,101.548,0,0,1,2.122,11.076,104.219,104.219,0,0,1,.869,11.227,22.736,22.736,0,0,1-.167,4.678Z" transform="translate(-160.761 -48.713)" fill="#263238"/>
      <path id="Path_806" data-name="Path 806" d="M217.89,427.409,229.4,456.228l8.921-1.654L221.231,426.44Z" transform="translate(-139.904 -50.551)" opacity="0.4"/>
      <path id="Path_807" data-name="Path 807" d="M398.963,398.983c-1.854.6-120.755-32.711-168.836-46.227a45.625,45.625,0,0,0-37.189,5.63l-.585.368a45.642,45.642,0,0,0-19.664,48.7h0a45.709,45.709,0,0,0,20.616,28.6c31.742,19.43,98.819,60.294,100.874,59.492,2.69-1.036,86.49-3.208,86.49-3.208L279.846,419.816l47.964,31.007,71.153-51.79Z" transform="translate(-171.02 -101.113)" fill="#263238"/>
      <path id="Path_808" data-name="Path 808" d="M250.124,363.331,275.4,350.25l24.792,15.537,92.788,3.041,13.365,45.108-134.32-31.141s-24.442,2.172-26.279-3.341S250.124,363.331,250.124,363.331Z" transform="translate(-121.45 -101.648)" fill="#ffbe9d"/>
      <path id="Path_809" data-name="Path 809" d="M298.756,414.954l-12.5,41.065,1.554,12.513h0a64.2,64.2,0,0,0,84.669,5.7h0a62.9,62.9,0,0,0,24.592-50.119l-.184-42.869Z" transform="translate(-94.052 -80.864)" fill="#263238"/>
      <path id="Path_810" data-name="Path 810" d="M274.994,420.822c-.134.184-14.635-10.391-32.377-23.623s-32.026-24.124-31.876-24.308,14.635,10.375,32.394,23.606S275.144,420.621,274.994,420.822Z" transform="translate(-144.7 -86.465)" fill="#455a64"/>
      <path id="Path_811" data-name="Path 811" d="M272.373,355.15a100.085,100.085,0,0,1-12.363,4.427,103.579,103.579,0,0,1-12.63,3.592,98.813,98.813,0,0,1,12.363-4.427A102.576,102.576,0,0,1,272.373,355.15Z" transform="translate(-120.127 -98.361)" fill="#eb996e"/>
      <path id="Path_812" data-name="Path 812" d="M275.126,359.769a24.528,24.528,0,0,1-4.31.819c-2.656.434-6.315,1.086-10.325,2s-7.585,1.938-10.174,2.706a27.179,27.179,0,0,1-4.227,1.153,18.965,18.965,0,0,1,4.026-1.671,91.106,91.106,0,0,1,20.616-4.745A20.835,20.835,0,0,1,275.126,359.769Z" transform="translate(-120.992 -95.278)" fill="#eb996e"/>
      <path id="Path_813" data-name="Path 813" d="M273.447,364a113.962,113.962,0,0,1-13.917,3.208,117.733,117.733,0,0,1-14.1,2.356,117.638,117.638,0,0,1,13.933-3.208A118.38,118.38,0,0,1,273.447,364Z" transform="translate(-121.434 -92.426)" fill="#eb996e"/>
      <path id="Path_814" data-name="Path 814" d="M289.921,322.467l23.306,76.716a2.239,2.239,0,0,0,1.955,1.57l63.485,4.761a2.222,2.222,0,0,1,2.072,2.222V411.7a2.222,2.222,0,0,1-2.272,2.222l-173.748-3.341a2.222,2.222,0,0,1-2.038-1.437L172.14,329.133a2.222,2.222,0,0,1,1.971-3.024l113.454-5.3a2.239,2.239,0,0,1,2.356,1.654Z" transform="translate(-170.687 -121.395)" fill="#455a64"/>
      <path id="Path_815" data-name="Path 815" d="M214.669,341.726a5.513,5.513,0,0,0-3.442,3.909,5.279,5.279,0,0,0,2.255,4.778,5.714,5.714,0,0,0,6.348.234,5.279,5.279,0,0,0,1.671-6.4c-.769-2.122-4.644-3.609-6.883-2.523" transform="translate(-144.385 -107.608)" fill="#e0e0e0"/>
      <path id="Path_816" data-name="Path 816" d="M237.5,502.816,219.12,472.611l134.988-105.8A54.229,54.229,0,0,1,383.6,354.729h0A54.246,54.246,0,0,1,442.569,413.2l-2.155,25.812L350.9,467.866Z" transform="translate(-139.079 -98.793)" fill="#263238"/>
      <path id="Path_817" data-name="Path 817" d="M403.26,400.36a3.723,3.723,0,0,1-.351.334l-1.1.9-4.294,3.442-3.124,2.456c-1.136.9-2.489,1.671-3.876,2.723l-4.477,3.074c-.8.535-1.671,1.119-2.456,1.671l-2.69,1.671c-3.659,2.189-7.618,4.695-12.112,6.967-2.222,1.169-4.494,2.439-6.883,3.625l-7.468,3.525a364.883,364.883,0,0,1-34.131,13.6c-24.659,8.5-47.446,14.618-63.769,19.563-4.093,1.2-7.785,2.339-11.026,3.341s-6.014,1.854-8.353,2.623l-5.212,1.671-1.37.418a2.391,2.391,0,0,1-.484.117l.451-.2,1.337-.5,5.179-1.854c2.239-.819,5.012-1.671,8.253-2.773s6.9-2.239,10.976-3.475c16.289-5.112,39.06-11.31,63.668-19.8,12.329-4.193,23.807-8.871,34.081-13.5l7.451-3.492c2.406-1.169,4.678-2.422,6.9-3.575,4.494-2.239,8.453-4.711,12.129-6.85l2.69-1.587c.852-.535,1.671-1.1,2.473-1.671l4.661-3.024c1.387-.952,2.74-1.771,3.893-2.656l3.158-2.406,4.394-3.341,1.169-.835Z" transform="translate(-131.729 -68.041)" fill="#455a64"/>
      <path id="Path_818" data-name="Path 818" d="M350.884,408.81a5.26,5.26,0,0,1-1.353.718c-.9.4-2.222.952-3.876,1.554a97.791,97.791,0,0,1-13.232,3.842,99.629,99.629,0,0,1-13.649,1.938c-1.754.117-3.191.167-4.177.167a6.029,6.029,0,0,1-1.537-.084,52.228,52.228,0,0,1,5.663-.7,135.158,135.158,0,0,0,13.516-2.172c5.162-1.119,9.874-2.489,13.215-3.559A52.458,52.458,0,0,1,350.884,408.81Z" transform="translate(-76.078 -62.374)" fill="#455a64"/>
      <path id="Path_819" data-name="Path 819" d="M348.716,364.91c.15.2-28.735,22.9-64.52,50.7s-64.921,50.22-65.055,50.019,28.735-22.888,64.52-50.7S348.582,364.727,348.716,364.91Z" transform="translate(-139.066 -91.816)" fill="#455a64"/>
      <path id="Path_820" data-name="Path 820" d="M327.176,438.1c-6.465-3.442-13.733-1.4-19.931.685-4.127,1.387-8.353,3.592-12.6,2.406-3.024-.852-5.279-3.341-7.6-5.43a47.68,47.68,0,0,0-34.883-12.513,14.334,14.334,0,0,0-9.59,4.327c-6.365,6.9-1.57,15.854,4.126,21.718a62.766,62.766,0,0,0,37.94,18.377c11.845,1.236,28.134-.4,40.1-5.547,7.4-3.174,11.193-11.912,7.317-18.962A12.179,12.179,0,0,0,327.176,438.1Z" transform="translate(-125.378 -52.739)" fill="#ff725e"/>
      <g id="Group_65" data-name="Group 65" transform="translate(114.506 375.952)" opacity="0.4">
        <path id="Path_821" data-name="Path 821" d="M327.042,441.4c-6.482-3.442-13.75-1.4-19.948.685-4.127,1.387-8.353,3.592-12.6,2.406-3.024-.852-5.279-3.341-7.6-5.43a47.68,47.68,0,0,0-34.883-12.513,14.335,14.335,0,0,0-9.59,4.327,11.226,11.226,0,0,0-2.673,4.845,25.244,25.244,0,0,0,6.8,11.294,62.767,62.767,0,0,0,37.94,18.377c11.845,1.236,28.134-.4,40.1-5.547a14.652,14.652,0,0,0,8.537-10.174,12.363,12.363,0,0,0-6.131-8.2Z" transform="translate(-239.75 -426.477)"/>
      </g>
      <path id="Path_822" data-name="Path 822" d="M333.344,449.714a11.025,11.025,0,0,0-1.587-3.843,12.631,12.631,0,0,0-3.458-3.341,13.966,13.966,0,0,0-5.964-2.272c-4.795-.568-10.375,1.453-16.556,3.124-3.057.819-6.4,2.055-10.024,1.671a13.365,13.365,0,0,1-5.179-1.8,31.858,31.858,0,0,1-4.444-3.341,46.427,46.427,0,0,0-17.709-10.525,45.289,45.289,0,0,0-8.8-2.038,27.534,27.534,0,0,0-7.852,0,17.425,17.425,0,0,0-6.048,2.105,15.922,15.922,0,0,0-3.759,3.024c-1.671,2.088-2.289,3.508-2.389,3.442a13.666,13.666,0,0,1,2.138-3.659,15.035,15.035,0,0,1,3.709-3.341,17.173,17.173,0,0,1,6.232-2.306,27.28,27.28,0,0,1,8.019,0,46.561,46.561,0,0,1,8.971,1.988,53.139,53.139,0,0,1,9.289,4.11,38.043,38.043,0,0,1,4.527,2.94c1.453,1.136,2.807,2.372,4.21,3.575a31.737,31.737,0,0,0,4.327,3.341,12.647,12.647,0,0,0,4.828,1.671c3.341.451,6.683-.718,9.74-1.52,6.165-1.671,11.828-3.625,16.857-2.974a13.917,13.917,0,0,1,9.623,6.1,9.04,9.04,0,0,1,1.2,2.924,4.561,4.561,0,0,1,.1.952Z" transform="translate(-125.364 -50.636)" fill="#263238"/>
      <path id="Path_823" data-name="Path 823" d="M333.344,449.714a11.025,11.025,0,0,0-1.587-3.843,12.631,12.631,0,0,0-3.458-3.341,13.966,13.966,0,0,0-5.964-2.272c-4.795-.568-10.375,1.453-16.556,3.124-3.057.819-6.4,2.055-10.024,1.671a13.365,13.365,0,0,1-5.179-1.8,31.858,31.858,0,0,1-4.444-3.341,46.427,46.427,0,0,0-17.709-10.525,45.289,45.289,0,0,0-8.8-2.038,27.534,27.534,0,0,0-7.852,0,17.425,17.425,0,0,0-6.048,2.105,15.922,15.922,0,0,0-3.759,3.024c-1.671,2.088-2.289,3.508-2.389,3.442a13.666,13.666,0,0,1,2.138-3.659,15.035,15.035,0,0,1,3.709-3.341,17.173,17.173,0,0,1,6.232-2.306,27.28,27.28,0,0,1,8.019,0,46.561,46.561,0,0,1,8.971,1.988,53.139,53.139,0,0,1,9.289,4.11,38.043,38.043,0,0,1,4.527,2.94c1.453,1.136,2.807,2.372,4.21,3.575a31.737,31.737,0,0,0,4.327,3.341,12.647,12.647,0,0,0,4.828,1.671c3.341.451,6.683-.718,9.74-1.52,6.165-1.671,11.828-3.625,16.857-2.974a13.917,13.917,0,0,1,9.623,6.1,9.04,9.04,0,0,1,1.2,2.924,4.561,4.561,0,0,1,.1.952Z" transform="translate(-125.364 -50.636)" fill="#263238"/>
      <path id="Path_824" data-name="Path 824" d="M247.63,444.054a17.142,17.142,0,0,1,3.341-2.289,91.168,91.168,0,0,1,8.57-4.578,94.753,94.753,0,0,1,9-3.692,17.61,17.61,0,0,1,3.876-1.086,21.72,21.72,0,0,1-3.659,1.671c-2.289.952-5.43,2.289-8.854,3.893s-6.449,3.174-8.637,4.327a20.187,20.187,0,0,1-3.642,1.754Z" transform="translate(-119.959 -46.547)" fill="#263238"/>
      <path id="Path_825" data-name="Path 825" d="M249,448.243a117.482,117.482,0,0,1,12.647-6.6,118.788,118.788,0,0,1,13.031-5.814,117.489,117.489,0,0,1-12.647,6.6A115.688,115.688,0,0,1,249,448.243Z" transform="translate(-119.04 -44.253)" fill="#263238"/>
      <path id="Path_826" data-name="Path 826" d="M277.219,452.622c-.134.2-7.033-3.909-15.4-9.189s-15.036-9.74-15.036-9.94,7.017,3.909,15.4,9.205S277.386,452.421,277.219,452.622Z" transform="translate(-120.529 -45.825)" fill="#263238"/>
      <path id="Path_827" data-name="Path 827" d="M276.468,447.251A22.033,22.033,0,0,1,273.126,445c-2.021-1.47-4.828-3.492-7.969-5.664s-6-4.093-8.086-5.48a20.452,20.452,0,0,1-3.341-2.372,18.958,18.958,0,0,1,3.625,1.854c2.172,1.253,5.129,3.107,8.353,5.279s5.914,4.294,7.852,5.9a16.106,16.106,0,0,1,2.907,2.74Z" transform="translate(-115.868 -47.171)" fill="#263238"/>
    </g>
  </g>
</svg>
