<svg xmlns="http://www.w3.org/2000/svg" width="656.632" height="629.193" viewBox="0 0 656.632 629.193">
  <g id="Work_time-pana" data-name="Work time-pana" transform="translate(-38.38 -40.668)">
    <g id="freepik--background-complete--inject-2" transform="translate(51.986 40.668)">
      <rect id="Rectangle_3" data-name="Rectangle 3" width="11.419" height="85.49" transform="translate(74.466 565.404) rotate(-90)" fill="#e0e0e0"/>
      <path id="Path_302" data-name="Path 302" d="M104.247,405.8c.289,0,.531,2.4.531,5.36s-.243,5.345-.531,5.345-.547-2.4-.547-5.345S103.943,405.8,104.247,405.8Z" transform="translate(-18.119 148.641)" fill="#fafafa"/>
      <path id="Path_303" data-name="Path 303" d="M103.011,405.65c.3,0,.531,2.4.531,5.345s-.228,5.36-.531,5.36-.531-2.4-.531-5.36S102.708,405.65,103.011,405.65Z" transform="translate(-18.752 148.563)" fill="#fafafa"/>
      <path id="Path_304" data-name="Path 304" d="M148.511,405.8c.3,0,.547,2.4.547,5.36s-.243,5.345-.547,5.345-.531-2.4-.531-5.345S148.223,405.8,148.511,405.8Z" transform="translate(4.839 148.641)" fill="#fafafa"/>
      <path id="Path_305" data-name="Path 305" d="M147.3,405.65c.289,0,.531,2.4.531,5.345s-.243,5.36-.531,5.36-.547-2.4-.547-5.36S146.993,405.65,147.3,405.65Z" transform="translate(4.201 148.563)" fill="#fafafa"/>
      <path id="Path_306" data-name="Path 306" d="M154.682,409.661c0,.3-9.794.531-21.866.531s-21.866-.228-21.866-.531,9.794-.531,21.866-.531S154.682,409.358,154.682,409.661Z" transform="translate(-14.36 150.367)" fill="#fafafa"/>
      <rect id="Rectangle_4" data-name="Rectangle 4" width="22.838" height="85.49" transform="translate(74.101 628.239) rotate(-90)" fill="#e0e0e0"/>
      <path id="Path_307" data-name="Path 307" d="M182.656,455.117a2.72,2.72,0,0,1-.456.258c-.319.152-.79.38-1.427.653a24.573,24.573,0,0,1-5.8,1.655,15.063,15.063,0,0,1-9.4-1.336,12.361,12.361,0,0,1-4.464-4.039,9.43,9.43,0,0,1-1.518-6.575,6.939,6.939,0,0,1,1.518-3.4,4.434,4.434,0,0,1,3.6-1.64,5.163,5.163,0,0,1,3.629,1.944,7.122,7.122,0,0,1,1.655,3.9,10.386,10.386,0,0,1-2.946,8.093,13.058,13.058,0,0,1-8.215,4.024,22.079,22.079,0,0,1-9.536-1.184,17.645,17.645,0,0,1-8.336-5.6,9.111,9.111,0,0,1-1.944-4.935,6.423,6.423,0,0,1,1.822-5.132,4.221,4.221,0,0,1,2.673-1.169,4.873,4.873,0,0,1,2.794.79,7.334,7.334,0,0,1,3.143,4.555,10.751,10.751,0,0,1-3.371,10.067,16.794,16.794,0,0,1-9.627,3.918,23.7,23.7,0,0,1-9.976-.987,13.788,13.788,0,0,1-7.592-5.907,10.083,10.083,0,0,1-.941-9.111,4.722,4.722,0,0,1,3.477-2.946,5.527,5.527,0,0,1,4.312,1.032,7.137,7.137,0,0,1,2.035,7.7,13.332,13.332,0,0,1-4.312,6.074,19.284,19.284,0,0,1-11.723,4.555,18.722,18.722,0,0,1-14.122-5.694,14.638,14.638,0,0,1-1.033-1.184,3.031,3.031,0,0,1-.3-.44,21.868,21.868,0,0,0,6.362,4.844,18.6,18.6,0,0,0,9.111,1.883,18.89,18.89,0,0,0,11.267-4.555,12.648,12.648,0,0,0,4.009-5.74,6.286,6.286,0,0,0-1.777-6.742,4.662,4.662,0,0,0-3.6-.85,3.781,3.781,0,0,0-2.794,2.43,9.111,9.111,0,0,0,.926,8.185,12.8,12.8,0,0,0,7.076,5.436,22.776,22.776,0,0,0,9.536.911,15.9,15.9,0,0,0,9.02-3.66,9.733,9.733,0,0,0,3.037-9.111,6.332,6.332,0,0,0-2.657-3.933,3.265,3.265,0,0,0-4.176.243,5.345,5.345,0,0,0-1.518,4.282,8.109,8.109,0,0,0,1.716,4.373,16.7,16.7,0,0,0,7.82,5.269,21.26,21.26,0,0,0,9.111,1.169,12.148,12.148,0,0,0,7.592-3.675,9.475,9.475,0,0,0,2.748-7.365,5.436,5.436,0,0,0-4.434-5.117,3.69,3.69,0,0,0-2.961,1.336,6.2,6.2,0,0,0-1.412,3.037,8.64,8.64,0,0,0,1.382,6.074,11.859,11.859,0,0,0,4.176,3.9,14.79,14.79,0,0,0,9.111,1.443,27.328,27.328,0,0,0,5.77-1.443C181.988,455.36,182.64,455.071,182.656,455.117Z" transform="translate(-21.971 166.699)" fill="#fafafa"/>
      <rect id="Rectangle_5" data-name="Rectangle 5" width="39.632" height="77.852" transform="translate(81.739 605.355) rotate(-90)" fill="#ebebeb"/>
      <path id="Path_308" data-name="Path 308" d="M109.877,414.13c.289,0,.531,8.579.531,19.178s-.243,19.178-.531,19.178-.547-8.579-.547-19.178S109.573,414.13,109.877,414.13Z" transform="translate(-15.2 152.96)" fill="#e0e0e0"/>
      <path id="Path_309" data-name="Path 309" d="M113.767,413.8c.289,0,.531,8.488.531,18.935s-.243,18.935-.531,18.935-.547-8.473-.547-18.935S113.463,413.8,113.767,413.8Z" transform="translate(-13.183 152.789)" fill="#e0e0e0"/>
      <path id="Path_310" data-name="Path 310" d="M146.837,413c.289,0,.531,8.929.531,19.953s-.243,19.938-.531,19.938-.547-8.929-.547-19.937S146.533,413,146.837,413Z" transform="translate(3.962 152.374)" fill="#e0e0e0"/>
      <path id="Path_311" data-name="Path 311" d="M142.267,413.32c.289,0,.531,8.686.531,19.421s-.243,19.421-.531,19.421-.547-8.686-.547-19.421S141.963,413.32,142.267,413.32Z" transform="translate(1.593 152.54)" fill="#e0e0e0"/>
      <path id="Path_312" data-name="Path 312" d="M421.369,357.619c8.078-4.176,17.569-4.707,26.543-3.234,4.814.8,9.824,2.232,13.1,5.861s3.887,9.976.137,13.074c-2.247,1.853-5.36,2.141-8.276,2.1-7.015-.076-14.79-1.306-20.393,2.915-3.2,2.4-5.33,6.408-9.111,7.592s-7.957-1.048-9.931-4.419a15.428,15.428,0,0,1-1.124-11.4A17.387,17.387,0,0,1,421.369,357.619Z" transform="translate(141.573 121.598)" fill="#ebebeb"/>
      <path id="Path_313" data-name="Path 313" d="M407.482,357.723c4.935,7.046,14.532,4.707,18.981.41s6.332-10.538,8.033-16.491c3.918-13.575,7.851-27.833,4.95-41.667a23.006,23.006,0,0,0-5.33-11.328,12.148,12.148,0,0,0-11.464-3.827c-4.829,1.291-7.835,6.074-10.007,10.523a99.489,99.489,0,0,0-9.824,42.639c0,6.863.79,14.061,4.662,19.74" transform="translate(136.965 85.794)" fill="#ebebeb"/>
      <path id="Path_314" data-name="Path 314" d="M416.408,360.1c5.36-6.362,6.378-15.64,3.994-23.6s-7.775-14.76-13.985-20.287a75.27,75.27,0,0,0-25.04-14.775,26.83,26.83,0,0,0-11.252-1.913,11.8,11.8,0,0,0-9.445,5.725c-2.642,5.026-.106,11.115,2.627,16.1a191.971,191.971,0,0,0,16.43,25.024c4.935,6.362,10.629,12.634,18.085,15.5s15.321,2.521,19.3-2.688" transform="translate(114.539 93.529)" fill="#ebebeb"/>
      <path id="Path_315" data-name="Path 315" d="M405.7,424.913a15.85,15.85,0,0,0,.456-3.2c.228-2.323.5-5.254.85-8.731a127.794,127.794,0,0,1,1.959-12.831,98.479,98.479,0,0,1,4.662-15.185,56.188,56.188,0,0,1,7.729-13.666,28.851,28.851,0,0,1,9.764-8.124,28.046,28.046,0,0,1,8.23-2.566,14.529,14.529,0,0,0,3.189-.455,14.862,14.862,0,0,0-3.25,0,24.949,24.949,0,0,0-8.579,2.232,28.851,28.851,0,0,0-10.3,8.185,54.53,54.53,0,0,0-8.018,13.97,92.418,92.418,0,0,0-4.555,15.382,110.943,110.943,0,0,0-1.716,12.983c-.273,3.705-.38,6.712-.425,8.792a15.309,15.309,0,0,0,0,3.219Z" transform="translate(138.413 124.927)" fill="#e0e0e0"/>
      <path id="Path_316" data-name="Path 316" d="M406.3,447.7a6.334,6.334,0,0,0,.091-1.518v-4.252c0-3.675,0-9.02.182-15.61.334-13.18,1.518-27.332,3.66-47.376,2.08-18.8,4.859-40.695,7.8-54.923.623-3.234,1.26-6.15,1.868-8.7s1.048-4.753,1.518-6.529.729-3.037.987-4.13a8.536,8.536,0,0,0,.273-1.518,5.757,5.757,0,0,0-.516,1.4c-.334,1.063-.744,2.414-1.245,4.069s-1.109,3.948-1.746,6.5-1.367,5.451-2.05,8.686a481.362,481.362,0,0,0-8.215,50.96c-2.187,20.044-3.174,38.3-3.265,51.507-.076,6.605,0,11.95.228,15.64.106,1.731.2,3.143.258,4.252a6.287,6.287,0,0,0,.167,1.549Z" transform="translate(138.417 95.415)" fill="#e0e0e0"/>
      <path id="Path_317" data-name="Path 317" d="M422.2,408.8a28.306,28.306,0,0,0,0-4.434c-.167-2.855-.562-6.985-1.367-12.026a158.236,158.236,0,0,0-3.9-17.523,144.76,144.76,0,0,0-7.334-20.742,110.363,110.363,0,0,0-21.517-33.513,57.582,57.582,0,0,0-5.072-4.707c-.774-.653-1.518-1.306-2.156-1.822l-1.959-1.351a26.908,26.908,0,0,0-3.751-2.4c-.213.289,5.3,3.523,12.254,10.933a116.315,116.315,0,0,1,20.985,33.406,162.709,162.709,0,0,1,7.334,20.53c1.928,6.438,3.2,12.36,4.176,17.341s1.443,9.111,1.761,11.92A27.46,27.46,0,0,0,422.2,408.8Z" transform="translate(122.612 99.117)" fill="#e0e0e0"/>
      <path id="Path_318" data-name="Path 318" d="M382.17,412.53l3.538,48.318h62.06l3.538-48.318Z" transform="translate(126.258 152.13)" fill="#ebebeb"/>
      <rect id="Rectangle_6" data-name="Rectangle 6" width="82.529" height="19.042" transform="translate(502.43 545.619)" fill="#ebebeb"/>
      <path id="Path_319" data-name="Path 319" d="M378.22,443.13v5.284H459.4V443.13Z" transform="translate(124.21 167.995)" fill="#e0e0e0"/>
      <path id="Path_320" data-name="Path 320" d="M384.576,455.508l-3.8-9.278h74.329l-4.434,9.278Z" transform="translate(125.538 169.603)" fill="#e0e0e0"/>
      <path id="Path_321" data-name="Path 321" d="M449.779,425.216a1.99,1.99,0,0,1-.289.44c-.258.334-.562.729-.926,1.23l-3.629,4.631-.152.213-.152-.228c-2.278-3.143-5.315-7.334-8.883-12.284h.456l-8.746,12.391-.273.38-.3-.364-10.326-12.376h.592l-.562.714-9.232,11.662-.319.395-.273-.41c-3.158-4.449-6.074-8.625-8.762-12.375h.516l-10.781,12.284-.182.213-.152-.243-3.371-5.664c-.364-.623-.638-1.124-.866-1.518a2.49,2.49,0,0,1-.273-.531,2.464,2.464,0,0,1,.365.471l.957,1.518,3.538,5.573h-.334L398.044,418.9l.258-.3.243.334,8.838,12.33h-.607l9.263-11.647.562-.729.3-.364.3.364,10.341,12.36h-.577l8.837-12.33.258-.364.243.364,8.7,12.421h-.319c1.594-1.913,2.84-3.417,3.766-4.555l1-1.169C449.642,425.323,449.763,425.2,449.779,425.216Z" transform="translate(126.632 155.236)" fill="#f5f5f5"/>
      <path id="Path_322" data-name="Path 322" d="M452,412.45c0,.213-15.564.38-34.743.38s-34.743-.167-34.743-.38,15.549-.38,34.743-.38S452,412.237,452,412.45Z" transform="translate(126.435 151.892)" fill="#f5f5f5"/>
      <path id="Path_323" data-name="Path 323" d="M239.814,90.981a.965.965,0,0,1-.364-.106l-1-.395-3.827-1.594-14.046-6.074-46.161-20.1-1.61-.714h.334L127.9,81.415l-13.666,5.74L110.5,88.673a7.971,7.971,0,0,1-1.321.471,8.93,8.93,0,0,1,1.26-.623l3.675-1.67,13.666-6L172.91,61.28h.334l1.61.7,46.07,20.347,13.924,6.241,3.766,1.746.972.471A1.292,1.292,0,0,1,239.814,90.981Z" transform="translate(-15.278 -29.981)" fill="#e0e0e0"/>
      <rect id="Rectangle_7" data-name="Rectangle 7" width="296.541" height="222.045" transform="translate(0 54.379)" fill="#e0e0e0"/>
      <rect id="Rectangle_8" data-name="Rectangle 8" width="276.923" height="202.594" transform="translate(10.371 64.705)" fill="#fafafa"/>
      <path id="Path_324" data-name="Path 324" d="M94.45,141.57s.289,34,2.02,44.385l42.654-2.02s-3.735-33.406-2.293-42.365Z" transform="translate(-22.915 11.646)" fill="#e0e0e0"/>
      <path id="Path_325" data-name="Path 325" d="M111.526,144.756h.623a10.1,10.1,0,0,1,1.777.091,9.961,9.961,0,0,1,2.7.8,8.974,8.974,0,0,1,2.946,2.338,10.037,10.037,0,0,1,2.05,4.1,9.9,9.9,0,0,1-.44,5.269,15.762,15.762,0,0,1-1.2,2.642,24.3,24.3,0,0,0-1.367,2.657,23.263,23.263,0,0,0-1.731,6.074v.137h-8.929v-.152a12.619,12.619,0,0,0-2.05-5.831c-.516-.881-1.078-1.686-1.518-2.521a25.815,25.815,0,0,1-1.518-2.445,8.276,8.276,0,0,1-.668-5.193,10.978,10.978,0,0,1,1.655-4.252,8.336,8.336,0,0,1,2.764-2.505,11.434,11.434,0,0,1,4.373-1.291h0a11.69,11.69,0,0,0-1.716.334,10.508,10.508,0,0,0-2.566,1.048,8.017,8.017,0,0,0-2.688,2.475,11.024,11.024,0,0,0-1.518,4.176,7.957,7.957,0,0,0,.668,5.026,28.1,28.1,0,0,0,1.518,2.414c.531.8,1.093,1.64,1.61,2.521a12.694,12.694,0,0,1,2.111,5.983l-.167-.167h8.64l-.167.152a23.462,23.462,0,0,1,1.761-6.15,27.973,27.973,0,0,1,1.4-2.688,15.777,15.777,0,0,0,1.184-2.581,9.687,9.687,0,0,0,.471-5.117,10.174,10.174,0,0,0-1.959-4.024,8.883,8.883,0,0,0-2.87-2.323,9.581,9.581,0,0,0-2.657-.835,13.439,13.439,0,0,0-1.746-.152h-.471C111.587,144.771,111.526,144.771,111.526,144.756Z" transform="translate(-18.976 13.259)" fill="#fff"/>
      <path id="Path_326" data-name="Path 326" d="M112.2,165.676a1,1,0,0,1,0-.137v-.395c0-.349-.137-.866-.228-1.518-.2-1.336-.486-3.25-.668-5.634,0-.592-.091-1.215-.106-1.868a18.345,18.345,0,0,1,0-2.05,5.6,5.6,0,0,1,.471-2.126,3.235,3.235,0,0,1,1.64-1.625,2.141,2.141,0,0,1,2.323.44,1.519,1.519,0,0,1,.486,1.169,2.065,2.065,0,0,1-.425,1.215,2.885,2.885,0,0,1-1.033.835,5.315,5.315,0,0,1-1.26.41,16.171,16.171,0,0,1-5.406.182,4.814,4.814,0,0,1-1.291-.364,3.326,3.326,0,0,1-1.063-.759,2.46,2.46,0,0,1-.623-1.154,1.9,1.9,0,0,1,.152-1.26,1.67,1.67,0,0,1,.9-.866,1.519,1.519,0,0,1,1.2,0,2.232,2.232,0,0,1,.911.759,3.264,3.264,0,0,1,.456,1.063,13.833,13.833,0,0,1,.213,2.187l.213,3.9c.106,2.384.213,4.312.273,5.664v2.05a.937.937,0,0,0,0-.137v-.395a11.63,11.63,0,0,0-.091-1.518c0-1.351-.2-3.28-.334-5.664,0-1.184-.137-2.49-.213-3.9a11.829,11.829,0,0,0-.228-2.156,2.854,2.854,0,0,0-.425-1.017,2.369,2.369,0,0,0-.866-.729,1.412,1.412,0,0,0-1.108,0,1.594,1.594,0,0,0-.835.8,1.853,1.853,0,0,0-.137,1.184,2.445,2.445,0,0,0,.592,1.078,3.887,3.887,0,0,0,2.278,1.093,15.794,15.794,0,0,0,2.688.121,15.494,15.494,0,0,0,2.673-.3,4.889,4.889,0,0,0,1.23-.41,2.81,2.81,0,0,0,.987-.79,2,2,0,0,0,.41-1.139,1.519,1.519,0,0,0-.456-1.078,2.065,2.065,0,0,0-2.187-.425,3.037,3.037,0,0,0-1.518,1.518,5.679,5.679,0,0,0-.471,2.1v2.02a10.925,10.925,0,0,0,.106,1.883c.182,2.384.456,4.3.623,5.618.091.668.167,1.169.213,1.518v.395a.942.942,0,0,1-.061.213Z" transform="translate(-17.461 16.042)" fill="#fff"/>
      <path id="Path_327" data-name="Path 327" d="M106,160.6a11.617,11.617,0,0,1,.121,1.412q0,1.518.182,3.69v-.091l2.885,3.356h-.152l3.325-.182h-.137l1.64-2,.835-1.017v.137c0-1.959-.091-3.8-.121-5.466l.182.167H106a2.1,2.1,0,0,1,.592,0l1.746-.091,6.317-.243h.182v.182c0,1.685.106,3.523.167,5.466v.015h0c-.273.334-.547.683-.835,1.017l-1.655,2.02h-.091l-3.325.167h-.061l-2.824-3.356h0v-3.8A11.833,11.833,0,0,1,106,160.6Z" transform="translate(-16.927 21.342)" fill="#fff"/>
      <path id="Path_328" data-name="Path 328" d="M114.547,164.015a.637.637,0,0,1-.319-.137,8.856,8.856,0,0,0-.866-.334,8.261,8.261,0,0,0-3.037-.456,8.428,8.428,0,0,0-3.037.638l-.835.395-.3.152a.927.927,0,0,1,.273-.2,7.761,7.761,0,0,1,.835-.44,7.972,7.972,0,0,1,3.037-.683,7.729,7.729,0,0,1,3.037.5,6.075,6.075,0,0,1,.85.38Z" transform="translate(-16.849 22.729)" fill="#fff"/>
      <path id="Path_329" data-name="Path 329" d="M114.532,163.149l-.3-.137-.866-.349a8.671,8.671,0,0,0-3.037-.456,9.111,9.111,0,0,0-3.037.638c-.364.152-.638.288-.835.395l-.3.152.273-.2a5.922,5.922,0,0,1,.835-.425,7.957,7.957,0,0,1,3.037-.7,8.32,8.32,0,0,1,3.037.5c.364.152.653.289.85.395A2.381,2.381,0,0,1,114.532,163.149Z" transform="translate(-16.849 22.274)" fill="#fff"/>
      <path id="Path_330" data-name="Path 330" d="M114.482,162.3l-.3-.121c-.213-.091-.5-.228-.866-.349a8.7,8.7,0,0,0-3.037-.456,8.336,8.336,0,0,0-3.037.638c-.364.152-.638.289-.835.395l-.3.152.273-.2a6.52,6.52,0,0,1,.835-.44,8.291,8.291,0,0,1,3.037-.683,8.382,8.382,0,0,1,3.037.5,6.743,6.743,0,0,1,.85.395A.987.987,0,0,1,114.482,162.3Z" transform="translate(-16.875 21.844)" fill="#fff"/>
      <path id="Path_331" data-name="Path 331" d="M63.17,105s.289,34.014,2.02,44.385l42.654-2.02s-3.751-33.406-2.308-42.365Z" transform="translate(-39.133 -7.314)" fill="#ebebeb"/>
      <path id="Path_332" data-name="Path 332" d="M96.618,114.375a123.881,123.881,0,0,1-14.289,1.276,117.243,117.243,0,0,1-14.35.44,128.066,128.066,0,0,1,14.289-1.276,125.03,125.03,0,0,1,14.35-.44Z" transform="translate(-36.639 -2.476)" fill="#fff"/>
      <path id="Path_333" data-name="Path 333" d="M96.613,119.115a120.825,120.825,0,0,1-14.289,1.291,124.756,124.756,0,0,1-14.334.44,123.417,123.417,0,0,1,14.289-1.276,122.992,122.992,0,0,1,14.334-.456Z" transform="translate(-36.634 -0.018)" fill="#fff"/>
      <path id="Path_334" data-name="Path 334" d="M87.638,123.831a40.636,40.636,0,0,1-8.139.911,40.346,40.346,0,0,1-8.169,0,40.574,40.574,0,0,1,8.124-.911A40.469,40.469,0,0,1,87.638,123.831Z" transform="translate(-34.902 2.342)" fill="#fff"/>
      <path id="Path_335" data-name="Path 335" d="M61.84,170.85s.289,34,2.02,44.385l42.654-2.02s-3.751-33.406-2.308-42.365Z" transform="translate(-39.822 26.827)" fill="#ebebeb"/>
      <path id="Path_336" data-name="Path 336" d="M95.283,180.265a121.725,121.725,0,0,1-14.289,1.291A124.818,124.818,0,0,1,66.66,182a122.9,122.9,0,0,1,14.274-1.275,123.208,123.208,0,0,1,14.35-.456Z" transform="translate(-37.323 31.686)" fill="#fff"/>
      <path id="Path_337" data-name="Path 337" d="M95.283,185.015a122.994,122.994,0,0,1-14.289,1.276,124.763,124.763,0,0,1-14.334.44,123.415,123.415,0,0,1,14.289-1.276,124.784,124.784,0,0,1,14.334-.44Z" transform="translate(-37.323 34.148)" fill="#fff"/>
      <path id="Path_338" data-name="Path 338" d="M86.308,189.722a39.965,39.965,0,0,1-8.124.9,40.465,40.465,0,0,1-8.185.076,40.575,40.575,0,0,1,8.124-.911,39.749,39.749,0,0,1,8.185-.061Z" transform="translate(-35.592 36.517)" fill="#fff"/>
      <path id="Path_339" data-name="Path 339" d="M138.61,110.89l4.221,98.093,122.449,1.473-5.5-98.275Z" transform="translate(-0.019 -4.26)" fill="#ebebeb"/>
      <rect id="Rectangle_9" data-name="Rectangle 9" width="121.644" height="91.852" transform="translate(137.163 105.931)" fill="#f5f5f5"/>
      <path id="Path_340" data-name="Path 340" d="M259.465,202.412v-6.605c0-4.312,0-10.629-.091-18.586,0-16.02-.106-38.934-.182-66.661l.349.334H137.911l.425-.41v91.852l-.38-.38,87.737.182,24.964.106h6.712l-6.681.289-24.857.106-88.071.182h-.38V110.18H259.8v.349c0,27.8-.137,50.808-.182,66.813,0,7.972,0,14.213-.091,18.51v4.829C259.5,201.865,259.465,202.412,259.465,202.412Z" transform="translate(-0.657 -4.628)" fill="#e0e0e0"/>
      <rect id="Rectangle_10" data-name="Rectangle 10" width="49.305" height="62.06" transform="translate(151.847 125.383)" fill="#f5f5f5"/>
      <path id="Path_341" data-name="Path 341" d="M196.739,185.438a1.018,1.018,0,0,1,0-.319v-4.267c0-3.037,0-7.3-.091-12.74,0-10.918-.121-26.376-.2-44.734l.38.38h-49.3c-.106,0,.79-.79.41-.41h0v62.029l-.334-.349,35.7.182,10.007.091h3.6a5.95,5.95,0,0,1-.866,0H193.46l-9.946.091-35.912.182h-.349V123.408h0c-.38.364.5-.531.425-.425h49.684v.38c-.076,18.449-.152,34-.2,44.977l-.091,12.649v4.161a1.864,1.864,0,0,1-.334.289Z" transform="translate(4.412 2.005)" fill="#e0e0e0"/>
      <rect id="Rectangle_11" data-name="Rectangle 11" width="94.494" height="8.944" transform="translate(153.73 111.185)" fill="#f5f5f5"/>
      <path id="Path_342" data-name="Path 342" d="M243.188,123.067v-2.354c0-1.518,0-3.751-.106-6.59l.167.167c-15.929.152-52.25.258-94.494.258h0c.835-.85.228-.243.425-.425h0v8.913l-.41-.425,66.98.182,20.1.121h6.909a3.37,3.37,0,0,1,.5,0h-7.2l-20.013.137-67.283.167h-.41v-9.354h0l.425-.425h0c42.244,0,78.565.106,94.494.258h.182v.167c0,2.87,0,5.117-.091,6.7v1.685A2.413,2.413,0,0,1,243.188,123.067Z" transform="translate(5.036 -2.938)" fill="#e0e0e0"/>
      <rect id="Rectangle_12" data-name="Rectangle 12" width="41.044" height="37.4" transform="translate(207.18 125.383)" fill="#f5f5f5"/>
      <path id="Path_343" data-name="Path 343" d="M224.929,160.855v-2.748c0-1.822,0-4.388-.091-7.592,0-6.59-.106-15.868-.182-27.029l.349.364h-41l.41-.41h0v37.385l-.38-.364,29.61.182,8.4.106h2.247a4.689,4.689,0,0,1,.79,0,3.888,3.888,0,0,1-.714,0H222.2l-8.306.091-29.853.182h-.364V123.257h0c-.38.364.5-.516.425-.425h41.363v.349c-.076,11.252-.137,20.621-.182,27.332,0,3.189-.076,5.725-.091,7.592v1.959A3.038,3.038,0,0,1,224.929,160.855Z" transform="translate(23.295 1.928)" fill="#e0e0e0"/>
      <rect id="Rectangle_13" data-name="Rectangle 13" width="41.044" height="18.799" transform="translate(207.18 168.644)" fill="#f5f5f5"/>
      <path id="Path_344" data-name="Path 344" d="M224.925,170.766V169.4l-.076-3.766c0-3.325-.091-7.957-.167-13.666l.3.3-41,.121c-.38.38.5-.516.41-.41h0v18.783l-.41-.395,29.352.182,8.564.121h3.128a3.977,3.977,0,0,1-.729,0H222.07l-8.458.121-29.625.182h-.395V151.8h0c-.091,0,.79-.8.425-.425l41,.106h.2v.3c0,5.785-.121,10.493-.152,13.848v3.705a7.427,7.427,0,0,1-.137,1.427Z" transform="translate(23.299 16.677)" fill="#e0e0e0"/>
      <path id="Path_345" data-name="Path 345" d="M195.42,123.31c-15.276,21.092-32.829,40.862-48.09,61.953" transform="translate(4.502 2.179)" fill="#fff"/>
      <path id="Path_346" data-name="Path 346" d="M147.34,185.264a4.737,4.737,0,0,1,.395-.7l1.291-1.883c1.124-1.64,2.809-3.963,4.935-6.8,4.237-5.709,10.3-13.423,17.1-21.851s12.922-16.081,17.265-21.684l5.148-6.636,1.412-1.807c.334-.395.516-.607.547-.592a3.613,3.613,0,0,1-.41.7l-1.291,1.883c-1.124,1.64-2.809,3.963-4.935,6.818-4.237,5.694-10.3,13.408-17.1,21.836s-12.907,16.081-17.265,21.684l-5.148,6.651-1.412,1.792A3.416,3.416,0,0,1,147.34,185.264Z" transform="translate(4.507 2.179)" fill="#e0e0e0"/>
      <line id="Line_1" data-name="Line 1" x2="49.305" y2="62.06" transform="translate(151.847 125.383)" fill="#fff"/>
      <path id="Path_347" data-name="Path 347" d="M196.635,185.3c-.182.137-11.373-13.666-24.979-30.764s-24.508-31.144-24.3-31.3,11.358,13.666,24.979,30.779S196.818,185.133,196.635,185.3Z" transform="translate(4.516 2.142)" fill="#e0e0e0"/>
      <path id="Path_348" data-name="Path 348" d="M146.658,125.964a7.714,7.714,0,1,1-7.714-7.714A7.714,7.714,0,0,1,146.658,125.964Z" transform="translate(-3.846 -0.444)" fill="#e0e0e0"/>
      <path id="Path_349" data-name="Path 349" d="M229.748,113.634a7.714,7.714,0,1,1-7.714-7.714A7.714,7.714,0,0,1,229.748,113.634Z" transform="translate(39.234 -6.837)" fill="#e0e0e0"/>
      <rect id="Rectangle_14" data-name="Rectangle 14" width="88.891" height="128.857" transform="translate(481.84 160.52)" fill="#e0e0e0"/>
      <rect id="Rectangle_15" data-name="Rectangle 15" width="88.891" height="128.857" transform="translate(477.391 160.52)" fill="#f5f5f5"/>
      <rect id="Rectangle_16" data-name="Rectangle 16" width="66.813" height="100.948" transform="translate(488.43 174.475)" fill="#fff"/>
      <path id="Path_350" data-name="Path 350" d="M435.875,256.668V228.409c0-17.8,0-43-.106-72.689l.228.228H369.062l.243-.243V256.653l-.2-.2,48.591.106h.122l-48.743.091h-.2V155.28h67.207v.213c0,29.747-.076,55-.106,72.886v27.636Z" transform="translate(119.368 18.755)" fill="#e0e0e0"/>
      <path id="Path_351" data-name="Path 351" d="M424.541,146.38a13.934,13.934,0,0,1-1.518,2.308c-1.033,1.382-2.505,3.25-4.176,5.284s-3.234,3.827-4.388,5.117a14.938,14.938,0,0,1-1.959,1.989,17.41,17.41,0,0,1,1.7-2.217l4.282-5.193,4.267-5.193A18.849,18.849,0,0,1,424.541,146.38Z" transform="translate(141.984 14.14)" fill="#e0e0e0"/>
      <path id="Path_352" data-name="Path 352" d="M413.22,221.83a82.239,82.239,0,0,0,11.647,14.577" transform="translate(142.357 53.259)" fill="#fff"/>
      <path id="Path_353" data-name="Path 353" d="M424.867,236.407a12.42,12.42,0,0,1-2.02-1.853,63.769,63.769,0,0,1-4.4-4.95,65.668,65.668,0,0,1-3.872-5.375,12.939,12.939,0,0,1-1.351-2.4,19.743,19.743,0,0,1,1.64,2.2c.972,1.382,2.354,3.25,3.963,5.269s3.143,3.766,4.267,5.026a17.534,17.534,0,0,1,1.777,2.08Z" transform="translate(142.357 53.259)" fill="#e0e0e0"/>
      <path id="Path_354" data-name="Path 354" d="M361.72,236.075l11.647-14.365" transform="translate(115.656 53.196)" fill="#fff"/>
      <path id="Path_355" data-name="Path 355" d="M373.387,221.71c.091,0-2.43,3.371-5.633,7.334a87.783,87.783,0,0,1-6.074,7.031,175.987,175.987,0,0,1,11.647-14.365Z" transform="translate(115.635 53.196)" fill="#e0e0e0"/>
      <path id="Path_356" data-name="Path 356" d="M361.73,146.38a87.62,87.62,0,0,1,5.649,6.757,79.664,79.664,0,0,1,5.269,7.061A83.726,83.726,0,0,1,367,153.4,76.152,76.152,0,0,1,361.73,146.38Z" transform="translate(115.661 14.14)" fill="#e0e0e0"/>
      <rect id="Rectangle_17" data-name="Rectangle 17" width="22.367" height="63.517" transform="translate(512.058 194.974)" fill="#e0e0e0"/>
      <rect id="Rectangle_18" data-name="Rectangle 18" width="12.725" height="63.32" transform="matrix(1, -0.005, 0.005, 1, 537.523, 23.672)" fill="#e0e0e0"/>
      <rect id="Rectangle_19" data-name="Rectangle 19" width="32.951" height="34.955" transform="matrix(1, -0.005, 0.005, 1, 427.284, 23.95)" fill="#ebebeb"/>
      <rect id="Rectangle_20" data-name="Rectangle 20" width="32.951" height="34.955" transform="matrix(1, -0.005, 0.005, 1, 460.067, 23.788)" fill="#f5f5f5"/>
      <path id="Path_357" data-name="Path 357" d="M328.864,63.177c21.9.182,43.853,0,65.75-.3a.349.349,0,0,0,0-.7q-32.875-.182-65.75.395a.3.3,0,1,0,0,.607Z" transform="translate(98.463 -29.54)" fill="#e0e0e0"/>
      <rect id="Rectangle_21" data-name="Rectangle 21" width="59.873" height="28.486" transform="matrix(1, -0.005, 0.005, 1, 406.729, 58.485)" fill="#ebebeb"/>
      <rect id="Rectangle_22" data-name="Rectangle 22" width="59.873" height="28.486" transform="matrix(1, -0.005, 0.005, 1, 466.326, 58.163)" fill="#f5f5f5"/>
      <path id="Path_358" data-name="Path 358" d="M315.324,84.888c39.784.456,79.689,0,119.458-.592a.349.349,0,1,0,0-.7c-39.784-.213-79.689-.182-119.458.683a.3.3,0,1,0,0,.607Z" transform="translate(91.443 -18.467)" fill="#e0e0e0"/>
      <rect id="Rectangle_23" data-name="Rectangle 23" width="231.961" height="10.204" transform="translate(384.385 86.981)" fill="#e0e0e0"/>
      <rect id="Rectangle_24" data-name="Rectangle 24" width="9.414" height="34.818" transform="translate(422.362 91.886)" fill="#e0e0e0"/>
      <rect id="Rectangle_25" data-name="Rectangle 25" width="9.414" height="34.818" transform="translate(562.926 91.886)" fill="#e0e0e0"/>
      <rect id="Rectangle_26" data-name="Rectangle 26" width="12.725" height="87.084" transform="matrix(1, -0.005, 0.005, 1, 549.937, 0.069)" fill="#ebebeb"/>
      <rect id="Rectangle_27" data-name="Rectangle 27" width="19.77" height="70.578" transform="matrix(1, -0.005, 0.005, 1, 562.78, 16.323)" fill="#f5f5f5"/>
      <path id="Path_359" data-name="Path 359" d="M437.63,60.424a140.077,140.077,0,0,1-19.74,0,146.428,146.428,0,0,1,19.74,0Z" transform="translate(144.778 -30.598)" fill="#e0e0e0"/>
      <path id="Path_360" data-name="Path 360" d="M437.63,58.474a140.076,140.076,0,0,1-19.74,0A146.427,146.427,0,0,1,437.63,58.474Z" transform="translate(144.778 -31.609)" fill="#e0e0e0"/>
      <path id="Path_361" data-name="Path 361" d="M437.63,90.954a140.077,140.077,0,0,1-19.74,0A146.427,146.427,0,0,1,437.63,90.954Z" transform="translate(144.778 -14.769)" fill="#e0e0e0"/>
      <path id="Path_362" data-name="Path 362" d="M437.63,89a140.072,140.072,0,0,1-19.74,0A146.427,146.427,0,0,1,437.63,89Z" transform="translate(144.778 -15.78)" fill="#e0e0e0"/>
      <path id="Path_363" data-name="Path 363" d="M424.709,95.487c-.2,0-.349-7.122-.349-15.9s.152-15.9.349-15.9.334,7.122.334,15.9S424.891,95.487,424.709,95.487Z" transform="translate(148.133 -28.732)" fill="#e0e0e0"/>
      <rect id="Rectangle_28" data-name="Rectangle 28" width="21.517" height="53.268" transform="translate(582.621 33.561)" fill="#ebebeb"/>
      <path id="Path_364" data-name="Path 364" d="M440.166,91.627a4.555,4.555,0,0,1-4.813-4.8,4.16,4.16,0,0,1,1.746-3.6l.486.683a3.447,3.447,0,0,0-1.412,2.915,3.994,3.994,0,0,0,7.987,0,3.416,3.416,0,0,0-1.427-2.915l.5-.683a4.221,4.221,0,0,1,1.731,3.6,4.555,4.555,0,0,1-4.8,4.8Z" transform="translate(153.828 -18.601)" fill="#fafafa"/>
      <path id="Path_365" data-name="Path 365" d="M443.747,84.932l-.714-.41a5.588,5.588,0,0,0,1.139-3.417c0-1.989-.714-2.794-1.777-2.794-2.764,0-.729,6.286-4.449,6.286-1.427,0-2.6-1.2-2.6-3.6a5.831,5.831,0,0,1,.926-3.25l.729.425a4.859,4.859,0,0,0-.85,2.84c0,1.853.759,2.673,1.777,2.673,2.839,0,.835-6.286,4.449-6.286,1.518,0,2.581,1.336,2.581,3.751A5.877,5.877,0,0,1,443.747,84.932Z" transform="translate(153.83 -21.624)" fill="#fafafa"/>
      <path id="Path_366" data-name="Path 366" d="M443.747,79.222l-.714-.41a5.588,5.588,0,0,0,1.139-3.417c0-1.989-.714-2.794-1.777-2.794-2.764,0-.729,6.271-4.449,6.271-1.427,0-2.6-1.184-2.6-3.584a5.831,5.831,0,0,1,.926-3.25l.729.41a4.935,4.935,0,0,0-.85,2.855c0,1.853.759,2.673,1.777,2.673,2.839,0,.835-6.286,4.449-6.286,1.518,0,2.581,1.321,2.581,3.735a5.892,5.892,0,0,1-1.215,3.8Z" transform="translate(153.83 -24.584)" fill="#fafafa"/>
      <circle id="Ellipse_1" data-name="Ellipse 1" cx="3.66" cy="3.66" r="3.66" transform="translate(552.449 11.24)" fill="#e0e0e0"/>
      <rect id="Rectangle_29" data-name="Rectangle 29" width="2.263" height="51.81" transform="translate(554.969 24.951)" fill="#e0e0e0"/>
    </g>
    <g id="freepik--Floor--inject-2" transform="translate(39.884 667.904)">
      <path id="Path_367" data-name="Path 367" d="M694.5,454.135c0,.213-146.669.395-327.549.395s-327.579-.152-327.579-.395,146.638-.395,327.579-.395S694.5,453.953,694.5,454.135Z" transform="translate(-39.37 -453.74)" fill="#263238"/>
    </g>
    <g id="freepik--Hourglass--inject-2" transform="translate(188.794 127.314)">
      <path id="Path_368" data-name="Path 368" d="M165.8,110.245c-24.371,38.326-22.777,91.472,3.857,128.265,17.751,24.538,44.37,41,65.507,62.652s37.2,53.617,26.042,81.769c-11.358,28.653-44.628,40.3-69.531,58.461a131.408,131.408,0,0,0-31.706,179.513H418.748s45.463-86.629-12.983-152.667-89.833-67.1-87.676-110.408,32.465-57.353,49.791-73.6,101.737-54.1,51.947-174Z" transform="translate(-137.34 -91.249)" fill="#fafafa"/>
      <path id="Path_369" data-name="Path 369" d="M165.9,110.287h68.073l185.952-.137h.2v.182a238.383,238.383,0,0,1,9.718,27.864,162.064,162.064,0,0,1,5.5,30.369,120.311,120.311,0,0,1-1.64,32.146A103.362,103.362,0,0,1,422,231.961a112,112,0,0,1-9.749,14.137,129.172,129.172,0,0,1-11.92,12.755,172.7,172.7,0,0,1-13.53,11.464c-4.707,3.644-9.627,7.076-14.425,10.72-2.4,1.807-4.555,3.842-6.894,5.876s-4.662,3.933-7.061,5.846c-4.783,3.827-9.612,7.592-14.167,11.829A75.771,75.771,0,0,0,323,335.081a74.4,74.4,0,0,0-4.009,18.708c-.137,1.519-.349,3.189-.41,4.8a42.694,42.694,0,0,0,0,4.829,53.892,53.892,0,0,0,.972,9.627,43.929,43.929,0,0,0,7.683,17.8,97.7,97.7,0,0,0,13.408,14.532c9.825,8.974,20.256,17.553,30.233,26.816s19.74,18.92,29.155,29.139a172.781,172.781,0,0,1,13.454,16,111.487,111.487,0,0,1,10.857,18.085,118.958,118.958,0,0,1,11.146,41,150.463,150.463,0,0,1-2.521,43.124,177.163,177.163,0,0,1-5.558,21.167,155.66,155.66,0,0,1-8.2,20.423l-.106.213H159.854l-.106-.167a133.4,133.4,0,0,1-21.669-61.088,128.8,128.8,0,0,1,8.959-61.65,134.232,134.232,0,0,1,34.2-48.864,155.731,155.731,0,0,1,23.354-17.037c8.078-5.011,16.232-9.657,23.931-14.729A110,110,0,0,0,249.6,400.678a57.794,57.794,0,0,0,13.028-22.595,56.335,56.335,0,0,0,1.033-25.222,82.562,82.562,0,0,0-8-23.187,113.156,113.156,0,0,0-13.028-19.74,155.946,155.946,0,0,0-15.762-16.445c-10.948-10.083-22.17-18.9-32.252-27.97-5.056-4.555-9.84-9.111-14.258-13.772a130.207,130.207,0,0,1-11.814-14.562A111.577,111.577,0,0,1,153.735,206.5a115.114,115.114,0,0,1-5.041-29.079c-.213-2.247-.121-4.464-.121-6.636s0-4.282.2-6.332.3-4.054.456-6.074.562-3.827.82-5.664a108.084,108.084,0,0,1,10.143-32.161A40.663,40.663,0,0,1,162.527,116l1.868-3.174c.987-1.686,1.518-2.536,1.518-2.536l-1.518,2.581L162.588,116a45.778,45.778,0,0,0-2.308,4.555,108.615,108.615,0,0,0-10.022,32.207c-.258,1.822-.562,3.705-.79,5.634s-.3,3.948-.456,6-.152,4.161-.167,6.317a64.76,64.76,0,0,0,.137,6.621,114.172,114.172,0,0,0,5.087,28.972,110.847,110.847,0,0,0,14.79,30.567,127.7,127.7,0,0,0,11.8,14.486c4.4,4.677,9.187,9.232,14.243,13.666,10.083,9.111,21.259,17.842,32.283,27.94a156.944,156.944,0,0,1,15.883,16.566,114.263,114.263,0,0,1,13.1,19.877,82.879,82.879,0,0,1,8.078,23.339,56.9,56.9,0,0,1-1.033,25.5,58.157,58.157,0,0,1-13.15,22.853,111.427,111.427,0,0,1-21.167,17.25c-7.729,5.087-15.883,9.733-23.946,14.744a156.07,156.07,0,0,0-23.263,16.977,133.716,133.716,0,0,0-34,48.591,128.052,128.052,0,0,0-8.883,61.331,132.8,132.8,0,0,0,21.562,60.739l-.3-.167H418.844l-.349.213a153.381,153.381,0,0,0,8.169-20.378,176.382,176.382,0,0,0,5.527-21.076A149.539,149.539,0,0,0,434.7,536.4a117.71,117.71,0,0,0-11.07-40.771,111.628,111.628,0,0,0-10.766-17.963,177.116,177.116,0,0,0-13.393-15.944q-14.046-15.291-29.109-29.094C360.4,423.379,350,414.815,340.142,405.8a99.487,99.487,0,0,1-13.53-14.638,44.811,44.811,0,0,1-7.881-18.024,57.22,57.22,0,0,1-.987-9.764c-.076-1.625,0-3.25,0-4.874s.273-3.234.395-4.844a75.438,75.438,0,0,1,4.1-18.814A76.3,76.3,0,0,1,343.7,304.089c4.555-4.221,9.43-8.048,14.213-11.859,2.4-1.913,4.753-3.842,7.046-5.816s4.555-4.1,6.924-5.922c4.829-3.644,9.733-7.076,14.425-10.705a174.876,174.876,0,0,0,13.5-11.4A131.3,131.3,0,0,0,411.662,245.7a115.25,115.25,0,0,0,9.7-14.061A102.665,102.665,0,0,0,433,200.605a119.563,119.563,0,0,0,1.655-31.888,162.313,162.313,0,0,0-5.451-30.369,241,241,0,0,0-9.6-27.955l.258.167-185.845-.137H170.332Z" transform="translate(-137.437 -91.29)" fill="#263238"/>
      <path id="Path_370" data-name="Path 370" d="M401.242,164.213c38.114,6.271-21.972,73.782-56,100.416-19.74,15.412-40.847,32.146-50.2,55.348-10.629,26.33-2.748,55.91-7.881,82.392a3.675,3.675,0,0,1-7.289-.774c.243-17.386-.213-34.758-3.037-51.871-4.085-24.3-13.408-48.272-30.369-66.053-13.894-14.532-32.1-24.174-46.905-37.749-21.623-19.816-43.838-45.372-46.01-74.618,0,0,41.515-33.406,64.565-29.23,26.938,4.935,53.45,46.5,95.178,41.743C342.326,180.491,357.04,156.954,401.242,164.213Z" transform="translate(-129.082 -74.926)" fill="#ff725e"/>
      <path id="Path_371" data-name="Path 371" d="M408.225,409.784c-.957-9.536-3.508-20.317-11.966-24.812-5.117-2.733-11.358-2.43-16.976-.957s-10.887,4.039-16.445,5.694a53.86,53.86,0,0,1-33.664-1.078c-10.341-3.8-19.209-10.629-28.851-16.065s-20.833-9.414-31.523-6.757c-18.434,4.555-28.031,26.786-46.253,32.146-8.109,2.369-16.809,1.033-25.04-.82s-16.506-4.267-24.933-3.948c-6.621.243-13.5,2.536-18.131,7.061h0l-.121.137a17.949,17.949,0,0,0-2.1,2.46c-5.649,7.592-6.56,17.66-4.814,26.862,1.944,10.31,6.757,19.831,11.92,28.957,6.074,10.751,13,21.441,23.05,28.608,12.421,8.853,28.016,2.748,43.216,3.948,35.426,2.794,73.539,4.692,108.98,1.959,18.723-1.518,36.261.577,51.112-10.918,10.447-8.078,17.25-20.256,20.53-33.042S409.546,422.918,408.225,409.784Z" transform="translate(-132.678 40.822)" fill="#ff725e"/>
      <g id="Group_22" data-name="Group 22" transform="translate(203.091 432.354)" opacity="0.24">
        <path id="Path_372" data-name="Path 372" d="M276.766,382.46c-1.989,3.037-2.855,7.167-.926,10.265s4.555,5.937,5.375,9.506c1.321,5.588-2.05,11.054-4.555,16.232a51.7,51.7,0,0,0-5.026,29.959A40.756,40.756,0,0,0,286.5,474.586c3.6,2.779,8.276,4.935,12.618,3.568,4.085-1.276,6.712-5.421,7.592-9.627s.137-8.534-.395-12.77a198.375,198.375,0,0,1,1.518-59.342c.577-3.265,1.124-7-.941-9.6a11.115,11.115,0,0,0-5.451-3.037c-7.9-2.627-16.415.289-24.6-1.26" transform="translate(-271.184 -382.46)"/>
      </g>
      <path id="Path_373" data-name="Path 373" d="M139.832,460.595s-.714-11.874,14.775-18.495H426.792s14.2,7.2,15.944,18.222Z" transform="translate(-136.197 80.815)" fill="#263238"/>
      <path id="Path_374" data-name="Path 374" d="M414.581,118.169l-.44.2L158.2,116.726s-.911-.577-2.263-1.655a9.7,9.7,0,0,1,6.074-17.341l248.421,2C420.655,99.826,423.874,113.8,414.581,118.169Z" transform="translate(-129.772 -97.73)" fill="#263238"/>
      <g id="Group_23" data-name="Group 23" transform="translate(74.182 114.849)" opacity="0.24">
        <path id="Path_375" data-name="Path 375" d="M355.918,176.592c.516.987-1.412,3.037-5.072,6.378s-9.111,7.729-15.883,13.241a208.481,208.481,0,0,1-25.814,18.222,103.577,103.577,0,0,1-17.675,8.124,83.693,83.693,0,0,1-10.159,2.809,69.3,69.3,0,0,1-10.979,1.427,58.613,58.613,0,0,1-22.063-3.037,79.5,79.5,0,0,1-17.736-9.111c-5.1-3.371-9.49-6.712-13.666-9.916s-7.9-6.286-11.267-9.2c-13.438-11.647-20.514-20.211-19.148-21.866s10.933,3.735,25.814,12.846l12.148,7.44c4.358,2.642,9.02,5.573,13.788,8.276a77.2,77.2,0,0,0,14.957,6.757,48.03,48.03,0,0,0,16.46,1.944c11.662-.607,22.974-4.707,32.769-9.445s18.662-10.265,26.345-14.577a132.735,132.735,0,0,1,19.011-9.263C352.562,175.954,355.478,175.635,355.918,176.592Z" transform="translate(-186.29 -173.364)"/>
      </g>
      <path id="Path_376" data-name="Path 376" d="M237.808,334.367a4.4,4.4,0,1,1-.213.091" transform="translate(-86.837 24.797)" fill="#ff725e"/>
      <path id="Path_377" data-name="Path 377" d="M188.878,242.882a6.576,6.576,0,0,1-.911-.911l-2.475-2.7c-1.048-1.2-2.43-2.6-3.842-4.373l-4.829-6.074c-1.655-2.338-3.523-4.859-5.406-7.592l-2.779-4.419c-.471-.759-.972-1.518-1.427-2.323l-1.336-2.46a102.649,102.649,0,0,1-9.43-22.7,95.664,95.664,0,0,1-3.584-24.3c0-1.9.106-3.735.137-5.542a19.021,19.021,0,0,1,.121-2.642c.121-.866.182-1.716.273-2.551.2-1.67.319-3.3.547-4.844s.547-3.037.8-4.419c.425-2.84,1.184-5.315,1.716-7.592.289-1.093.516-2.126.8-3.037l.835-2.536,1.169-3.477a6.469,6.469,0,0,1,.456-1.2,6.909,6.909,0,0,1-.3,1.245c-.258.881-.592,2.05-1.033,3.523l-.759,2.536c-.258.926-.471,1.959-.744,3.037a66.232,66.232,0,0,0-1.518,7.592c-.243,1.4-.486,2.87-.744,4.4s-.319,3.143-.5,4.814a24.746,24.746,0,0,1-.258,2.536c-.091.866,0,1.746-.091,2.627,0,1.792-.121,3.614-.106,5.5a96.179,96.179,0,0,0,3.538,24.159,104.5,104.5,0,0,0,9.308,22.564c.44.82.881,1.64,1.306,2.46s.957,1.518,1.412,2.308l2.733,4.419c1.853,2.794,3.69,5.315,5.3,7.592L182,234.576c1.367,1.807,2.718,3.219,3.72,4.464l2.369,2.809A10.327,10.327,0,0,1,188.878,242.882Z" transform="translate(-129.44 -82.456)" fill="#263238"/>
      <path id="Path_378" data-name="Path 378" d="M167.09,411.875a3.034,3.034,0,0,1,.273-.5l.911-1.427c.41-.638.911-1.4,1.518-2.308l.957-1.518c.38-.5.82-1,1.26-1.518l3.037-3.644c1.169-1.26,2.505-2.566,3.918-3.994a102.765,102.765,0,0,1,10.417-8.777c8.063-6.074,18.465-12.148,29.732-19.269a170.05,170.05,0,0,0,17.052-12.011,79.552,79.552,0,0,0,15.291-16.157,76.485,76.485,0,0,0,12.375-40.74A96.376,96.376,0,0,0,258,265.388a129.221,129.221,0,0,0-10.052-21.562c-1.412-2.445-2.566-4.3-3.356-5.558l-.9-1.427c-.2-.319-.289-.5-.289-.5a2.248,2.248,0,0,1,.349.456l.972,1.4c.835,1.215,2.035,3.037,3.477,5.482a123.245,123.245,0,0,1,10.326,21.532,96.287,96.287,0,0,1,6.074,34.818,82,82,0,0,1-.835,10.234,74.782,74.782,0,0,1-2.232,10.493,71.1,71.1,0,0,1-9.551,20.454,80.068,80.068,0,0,1-15.458,16.324,172.245,172.245,0,0,1-17.143,12.026c-11.313,7.061-21.729,13.074-29.792,19.1a106.92,106.92,0,0,0-10.447,8.64c-1.412,1.412-2.764,2.688-3.948,3.933l-3.037,3.568c-.456.547-.9,1.048-1.276,1.518l-.987,1.443-1.518,2.263-.972,1.382A3.541,3.541,0,0,1,167.09,411.875Z" transform="translate(-122.062 -25.865)" fill="#263238"/>
      <path id="Path_379" data-name="Path 379" d="M162.2,369.61a4.8,4.8,0,0,1-.334.714l-1.093,1.928c-.486.82-1.063,1.853-1.655,3.037s-1.351,2.581-1.989,4.176c-.334.79-.7,1.61-1.063,2.46s-.668,1.792-1.033,2.733c-.729,1.883-1.306,3.948-1.974,6.074a82.514,82.514,0,0,0-2.688,29.276c.258,2.247.44,4.4.835,6.378.167.987.3,1.959.5,2.87s.41,1.792.607,2.627c.334,1.685.835,3.158,1.2,4.464s.729,2.43,1.063,3.341l.714,2.1a2.6,2.6,0,0,1,.2.744,2.884,2.884,0,0,1-.349-.683c-.228-.562-.5-1.23-.85-2.05a32.747,32.747,0,0,1-1.2-3.31c-.41-1.306-.941-2.779-1.321-4.464-.213-.835-.425-1.716-.653-2.627s-.364-1.9-.562-2.885c-.425-2-.638-4.161-.911-6.423a79.476,79.476,0,0,1,2.7-29.458c.683-2.187,1.291-4.267,2.065-6.15.38-.941.683-1.868,1.078-2.733l1.124-2.475c.668-1.518,1.518-2.931,2.111-4.145a31.48,31.48,0,0,1,1.777-3.037l1.215-1.868C162.02,369.808,162.172,369.6,162.2,369.61Z" transform="translate(-131.296 43.231)" fill="#263238"/>
      <path id="Path_380" data-name="Path 380" d="M329.461,393.651l-.3.213-.941.592-3.69,2.217-2.672,1.518c-1,.562-2.111,1.078-3.3,1.67-2.4,1.154-5.041,2.627-8.169,3.811l-4.859,1.989c-1.685.668-3.523,1.2-5.375,1.837-3.69,1.352-7.79,2.323-12.057,3.432a141.354,141.354,0,0,1-57.11,1.518c-4.343-.881-8.473-1.64-12.239-2.794-1.883-.547-3.735-.972-5.466-1.518l-4.95-1.807c-3.174-1.017-5.907-2.338-8.352-3.371-1.215-.531-2.354-1-3.371-1.518L193.847,400l-3.8-2.02-.972-.547-.319-.2a.8.8,0,0,1,.364.137l1,.471,3.857,1.883,2.779,1.367c1.033.486,2.187.926,3.4,1.443,2.445.972,5.178,2.263,8.367,3.234l4.889,1.777c1.731.577,3.584.987,5.466,1.518,3.751,1.124,7.866,1.837,12.148,2.7a144.344,144.344,0,0,0,56.821-1.518c4.252-1.093,8.336-2.02,12.026-3.341,1.853-.623,3.675-1.124,5.36-1.792l4.859-1.928c3.128-1.154,5.785-2.581,8.185-3.69,1.184-.577,2.308-1.078,3.31-1.518l2.7-1.518,3.751-2.1.987-.516C329.34,393.681,329.461,393.636,329.461,393.651Z" transform="translate(-110.827 55.694)" fill="#263238"/>
      <path id="Path_381" data-name="Path 381" d="M342.172,182a1.612,1.612,0,0,1-.319.289l-1,.82c-.926.744-2.217,1.792-3.872,3.037-3.371,2.673-8.26,6.545-14.441,11.161a208.79,208.79,0,0,1-22.58,15.063,101.739,101.739,0,0,1-14.547,6.7,66.309,66.309,0,0,1-16.794,3.735,63.775,63.775,0,0,1-32.252-6.712,109.427,109.427,0,0,1-12.467-7.41c-3.705-2.612-7.091-5.148-10.083-7.592-6.074-4.829-10.72-8.913-14-11.707l-3.751-3.25-.957-.85-.319-.319s.137,0,.364.243l1.017.8,3.842,3.128c3.341,2.733,8.109,6.742,14.152,11.51,3.037,2.384,6.393,4.889,10.113,7.471a110.85,110.85,0,0,0,12.406,7.289,63.548,63.548,0,0,0,31.888,6.575,65.841,65.841,0,0,0,16.6-3.675,101.845,101.845,0,0,0,14.456-6.605,218.36,218.36,0,0,0,22.61-14.744c6.2-4.555,11.13-8.352,14.577-10.948l3.963-3.037,1.048-.759A1.365,1.365,0,0,1,342.172,182Z" transform="translate(-107.701 -54.038)" fill="#263238"/>
      <g id="Group_24" data-name="Group 24" transform="translate(97.521 457.081)" opacity="0.24">
        <path id="Path_382" data-name="Path 382" d="M201.66,403.764c7.2-5.558,17.311-4.221,26.209-2.338s17.857,4.9,26.862,3.644c6.788-.957,13.013-4.282,19.74-5.74s14.82-.38,18.54,5.375a144.254,144.254,0,0,1-91.305-.941" transform="translate(-201.66 -398.745)"/>
      </g>
    </g>
    <g id="freepik--Character--inject-2" transform="translate(394.112 344.058)">
      <path id="Path_383" data-name="Path 383" d="M412.161,412.639l-32.647-36.61-.334,44.506,9.84,28.547L291.2,466.043l-4.145-77.184-7.046-59.22a16.1,16.1,0,0,1,10.083-16.87l26.923-10.629,37.962,6.955,15.261,5.8a41.9,41.9,0,0,1,16.612,11.555l45.919,52.509" transform="translate(-268.893 -208.494)" fill="#ff725e"/>
      <path id="Path_384" data-name="Path 384" d="M344,352.793a47.8,47.8,0,0,0,5.512-.395A22.367,22.367,0,0,0,367.9,335.452a50.772,50.772,0,0,0,.835-5.482,4.981,4.981,0,0,1,.137,1.518,18.512,18.512,0,0,1-.425,4.1A21.927,21.927,0,0,1,349.6,352.975a19.374,19.374,0,0,1-4.115.091A4.722,4.722,0,0,1,344,352.793Z" transform="translate(-235.657 -194.065)" fill="#fff"/>
      <path id="Path_385" data-name="Path 385" d="M346.137,402.372c.228,0,.289-15.428.137-34.439s-.471-34.424-.7-34.424-.289,15.412-.137,34.439S345.909,402.372,346.137,402.372Z" transform="translate(-234.955 -192.229)" fill="#263238"/>
      <path id="Path_386" data-name="Path 386" d="M380.249,426.341l-59.1-23.794a13.515,13.515,0,0,1-8.427-11.495l-4.328-56.669s.516-24.113-14.547-25.282l-8.519,3.371c-11.07,5.876-13.8,22-12.3,34.439,2.141,17.675,3.037,42.7,5.421,58.036,1.974,12.558,9.111,23.6,21.441,26.831l72.8,15.762Z" transform="translate(-272.65 -204.885)" fill="#ff725e"/>
      <path id="Path_387" data-name="Path 387" d="M296.75,331.44a7.34,7.34,0,0,1,.182,1.291c.091.926.228,2.171.38,3.735.3,3.325.729,8,1.245,13.742s1.093,12.74,1.761,20.393c.152,1.928.319,3.887.486,5.892a45.787,45.787,0,0,0,.759,6.074,10.037,10.037,0,0,0,2.946,5.3,19.74,19.74,0,0,0,5.451,3.4c16.293,7.046,31.311,12.877,42.213,16.961L365.127,413l3.523,1.291a8.479,8.479,0,0,1,1.2.5,7.289,7.289,0,0,1-1.26-.349l-3.568-1.154c-3.037-1.033-7.592-2.566-13.028-4.555-10.979-3.948-26.011-9.688-42.365-16.7a20.665,20.665,0,0,1-5.664-3.553,10.827,10.827,0,0,1-3.158-5.709,44.286,44.286,0,0,1-.744-6.165c-.167-2.02-.319-3.978-.471-5.907-.592-7.592-1.139-14.577-1.518-20.408s-.759-10.432-1-13.757c-.106-1.518-.182-2.824-.228-3.751a7.728,7.728,0,0,1-.091-1.336Z" transform="translate(-260.155 -193.303)" fill="#263238"/>
      <path id="Path_388" data-name="Path 388" d="M274.47,351.73a3.8,3.8,0,0,1,.106.759l.2,2.187c.182,2.02.41,4.738.7,8.048s.744,7.425,1.336,11.89a115.02,115.02,0,0,0,2.657,14.35,21.607,21.607,0,0,0,2.885,6.848,41.785,41.785,0,0,0,4.419,5.421,37.962,37.962,0,0,0,9.46,7.091,35.684,35.684,0,0,0,10.386,3.4,3.039,3.039,0,0,1-.774,0,17.044,17.044,0,0,1-2.187-.289,28.713,28.713,0,0,1-7.683-2.6,37.035,37.035,0,0,1-9.718-7.076,40.273,40.273,0,0,1-4.555-5.512,22.05,22.05,0,0,1-3.037-7.061,107.42,107.42,0,0,1-2.627-14.471c-.547-4.555-.911-8.534-1.154-11.935s-.38-6.165-.456-8.078v-2.2A2.446,2.446,0,0,1,274.47,351.73Z" transform="translate(-271.736 -182.783)" fill="#263238"/>
      <path id="Path_389" data-name="Path 389" d="M291.09,382.606a8.746,8.746,0,0,1,1.078-3.143,20.378,20.378,0,0,1,12-10.25,8.578,8.578,0,0,1,3.28-.562q-1.491.621-3.037,1.093a23.232,23.232,0,0,0-6.7,3.994,23.524,23.524,0,0,0-5,5.983C291.652,381.467,291.211,382.651,291.09,382.606Z" transform="translate(-263.089 -174.011)" fill="#263238"/>
      <path id="Path_390" data-name="Path 390" d="M298.75,369.457a1.4,1.4,0,0,1,.364.167l1.063.562a38.536,38.536,0,0,0,4.221,1.777,33.406,33.406,0,0,0,16.567,1.427,32.707,32.707,0,0,0,20.59-12.8,27.2,27.2,0,0,0,5.391-13.393,18.22,18.22,0,0,0-.79-7.592,15.489,15.489,0,0,0-4.252-6.514,13.043,13.043,0,0,0-6.939-3.371,8.276,8.276,0,0,0-6.955,1.959,4.556,4.556,0,0,0-1.367,3.143,5.5,5.5,0,0,0,1.154,3.249,8.868,8.868,0,0,0,6.074,3.143A24.337,24.337,0,0,0,360.4,324.146a26.438,26.438,0,0,0,1.124-7.122,27.176,27.176,0,0,0-.334-4.555c-.091-.471-.167-.865-.213-1.169a2.135,2.135,0,0,1,0-.41,19.21,19.21,0,0,1,.911,6.074,25.511,25.511,0,0,1-1,7.243,24.994,24.994,0,0,1-27.074,17.66,9.551,9.551,0,0,1-6.5-3.4,6.21,6.21,0,0,1-1.306-3.705,5.254,5.254,0,0,1,1.518-3.69,9.111,9.111,0,0,1,7.592-2.187,13.667,13.667,0,0,1,7.365,3.568,16,16,0,0,1,4.464,6.848,18.982,18.982,0,0,1,.82,7.9,27.8,27.8,0,0,1-5.573,13.666A32.632,32.632,0,0,1,304.338,372.1a23.507,23.507,0,0,1-5.588-2.642Z" transform="translate(-259.118 -203.957)" fill="#fff"/>
      <path id="Path_391" data-name="Path 391" d="M273.25,342.509a4.844,4.844,0,0,1,.972-1.215,21.836,21.836,0,0,1,3.189-2.779,26.816,26.816,0,0,1,13.074-4.631,25.271,25.271,0,0,1,7.714.319,23.473,23.473,0,0,1,5.937,2.1,27.338,27.338,0,0,1,3.614,2.187,5.1,5.1,0,0,1,1.184,1c-.091.121-1.852-1.215-5.041-2.688a24.752,24.752,0,0,0-13.317-2.126,28.031,28.031,0,0,0-12.846,4.3C274.8,340.93,273.356,342.615,273.25,342.509Z" transform="translate(-272.339 -192.118)" fill="#fff"/>
      <path id="Path_392" data-name="Path 392" d="M279.48,316.838a23.367,23.367,0,0,0,4.783,3.477,17.037,17.037,0,0,0,6.074,1.792,16.187,16.187,0,0,0,7.592-1.063A15.944,15.944,0,0,0,304,316.489a17.462,17.462,0,0,0,3.037-5.573,24.294,24.294,0,0,0,.926-5.846,5.313,5.313,0,0,1,.2,1.61,14.788,14.788,0,0,1-.592,4.4,16.976,16.976,0,0,1-3.037,5.861,15.519,15.519,0,0,1-14.425,5.952,16.855,16.855,0,0,1-6.271-2,14.62,14.62,0,0,1-3.523-2.7,4.344,4.344,0,0,1-.835-1.351Z" transform="translate(-269.109 -206.975)" fill="#fff"/>
      <path id="Path_393" data-name="Path 393" d="M313.4,381.867a5.635,5.635,0,0,1,.121-1.124,12.062,12.062,0,0,1,1.048-3.037,16.824,16.824,0,0,1,8.837-7.683,25.89,25.89,0,0,1,17.386-.623c3.128.926,6.712,2.08,9.111,5.132a5.451,5.451,0,0,1,.668,5.558,8.807,8.807,0,0,1-4.206,3.963,13.514,13.514,0,0,1-5.6,1.4,8.215,8.215,0,0,1-5.375-1.67,6.864,6.864,0,0,1-2.4-4.874,12.254,12.254,0,0,1,.8-5.117,22.99,22.99,0,0,1,12.148-12.33,23.992,23.992,0,0,1,11.631-2,16.539,16.539,0,0,1,4.252.9c0,.106-1.518-.395-4.282-.592a24.3,24.3,0,0,0-18.039,6.636,21.26,21.26,0,0,0-5.087,7.592,11.5,11.5,0,0,0-.744,4.814,6.074,6.074,0,0,0,2.156,4.328,7.38,7.38,0,0,0,4.859,1.518,12.542,12.542,0,0,0,5.254-1.306,8.109,8.109,0,0,0,3.857-3.6,4.722,4.722,0,0,0-.577-4.783,10.947,10.947,0,0,0-3.963-3.128,28.4,28.4,0,0,0-4.662-1.746,25.541,25.541,0,0,0-16.976.44,16.794,16.794,0,0,0-8.777,7.3,16.229,16.229,0,0,0-1.443,4.039Z" transform="translate(-251.522 -178.816)" fill="#fff"/>
      <path id="Path_394" data-name="Path 394" d="M287.48,397.6c0-.152,2.247-.334,5.664-1.518a28.319,28.319,0,0,0,18.13-20.1c.866-3.523.835-5.816.987-5.8a5.254,5.254,0,0,1,.076,1.594,23.033,23.033,0,0,1-.516,4.328,27.241,27.241,0,0,1-18.495,20.454,23.364,23.364,0,0,1-4.252.957,5.543,5.543,0,0,1-1.594.091Z" transform="translate(-264.961 -173.217)" fill="#fff"/>
      <path id="Path_395" data-name="Path 395" d="M274.86,360.55a3.035,3.035,0,0,1,.714-.289c.486-.152,1.184-.364,2.111-.607a26.087,26.087,0,0,1,8.063-.82,16.946,16.946,0,0,1,5.466,1.351,12.68,12.68,0,0,1,5.1,4.009,10.477,10.477,0,0,1,1.989,6.894,8.473,8.473,0,0,1-1.169,3.705,5.862,5.862,0,0,1-3.037,2.581,4.07,4.07,0,0,1-3.994-.79,5.33,5.33,0,0,1-1.382-3.675,15.822,15.822,0,0,1,1.4-7.031,15.413,15.413,0,0,1,16.7-8.974,12.39,12.39,0,0,1,2.141.531c.471.182.714.289.7.319a24.371,24.371,0,0,0-2.885-.547,15.975,15.975,0,0,0-7.79,1,14.926,14.926,0,0,0-8.154,7.957,15.336,15.336,0,0,0-1.291,6.7,4.556,4.556,0,0,0,1.154,3.158,3.3,3.3,0,0,0,3.2.607,5.162,5.162,0,0,0,2.672-2.247,7.836,7.836,0,0,0,1.063-3.356,9.855,9.855,0,0,0-1.807-6.408,11.889,11.889,0,0,0-4.783-3.826,16.413,16.413,0,0,0-5.254-1.4,27.454,27.454,0,0,0-7.926.562C275.908,360.338,274.89,360.611,274.86,360.55Z" transform="translate(-271.504 -180.215)" fill="#fff"/>
      <g id="Group_25" data-name="Group 25" transform="translate(38.524 154.992)" opacity="0.3">
        <path id="Path_396" data-name="Path 396" d="M350.1,402.246c-6.317-3.568-12.5-6.317-19.1-9.308s-13.089-6.863-17.417-12.694c-8.154-10.994-7.228-26.862-15.564-37.7q.82,10.933,1.625,21.881c.5,6.681-.516,13.3,3.781,17.842,3.629,3.827,10.705,6.757,15.716,8.412,10.067,3.325,20.909,8.26,30.962,11.571" transform="translate(-298.02 -342.54)"/>
      </g>
      <path id="Path_397" data-name="Path 397" d="M403.909,436.71s49.456,13.666,51.446,14.4c3.037,1.048,2.475,11.966-2.156,11.783-2.2-.076-37.962,1.336-42.517,1.063s-18.222-5.664-18.222-5.664Z" transform="translate(-210.532 -138.724)" fill="#ff725e"/>
      <path id="Path_398" data-name="Path 398" d="M413.531,452.51a43.564,43.564,0,0,1,2.187-5.315,44.331,44.331,0,0,1,3.492-4.555,10.933,10.933,0,0,0-5.679,9.855Z" transform="translate(-199.609 -135.649)" fill="#263238"/>
      <path id="Path_399" data-name="Path 399" d="M410.13,450.82c.243,0,.744-2.293,2.065-4.874s2.87-4.388,2.7-4.555a12.375,12.375,0,0,0-4.768,9.445Z" transform="translate(-201.371 -136.297)" fill="#263238"/>
      <path id="Path_400" data-name="Path 400" d="M407.087,450.115a32.988,32.988,0,0,1,1.154-5.224,34.72,34.72,0,0,1,2.688-4.631,9.278,9.278,0,0,0-3.842,9.855Z" transform="translate(-203.081 -136.883)" fill="#263238"/>
      <path id="Path_401" data-name="Path 401" d="M408.857,446.461a8.822,8.822,0,0,0,.531-3.675,18.216,18.216,0,0,0-.5-4.039,16.085,16.085,0,0,0-.744-2.293,2.612,2.612,0,0,0-.79-1.215,1.336,1.336,0,0,0-1.7.091,2.141,2.141,0,0,0-.653,1.4,7.586,7.586,0,0,0,0,1.306,10.2,10.2,0,0,0,.3,2.414,14.73,14.73,0,0,0,1.518,3.781,10.175,10.175,0,0,0,2.217,3.037c.121,0-.714-1.23-1.7-3.25a16.156,16.156,0,0,1-1.291-3.675,10.868,10.868,0,0,1-.243-2.262c0-.759,0-1.7.455-2.065a.486.486,0,0,1,.653,0,2.233,2.233,0,0,1,.547.866,19.594,19.594,0,0,1,.744,2.187,19.3,19.3,0,0,1,.653,3.857C408.948,445.049,408.72,446.446,408.857,446.461Z" transform="translate(-204.046 -139.622)" fill="#263238"/>
      <path id="Path_402" data-name="Path 402" d="M410.862,442.393a6.938,6.938,0,0,0-3.189-.516,14.651,14.651,0,0,0-3.508.425,8.515,8.515,0,0,0-2.035.744,2.1,2.1,0,0,0-1.108,2.263,2.506,2.506,0,0,0,1.777,1.777,4.554,4.554,0,0,0,2.217,0,8.29,8.29,0,0,0,3.219-1.519,8.6,8.6,0,0,0,2.293-2.263,24.292,24.292,0,0,0-2.627,1.777,8.715,8.715,0,0,1-3.037,1.321,3.766,3.766,0,0,1-1.837,0,1.67,1.67,0,0,1-1.2-1.169,1.291,1.291,0,0,1,.729-1.382,7.316,7.316,0,0,1,1.792-.7,15.92,15.92,0,0,1,3.341-.577C409.617,442.332,410.832,442.529,410.862,442.393Z" transform="translate(-206.112 -136.055)" fill="#263238"/>
      <path id="Path_403" data-name="Path 403" d="M418.637,452.336a29.251,29.251,0,0,1,.987-4.464A26.993,26.993,0,0,1,422.038,444,7.122,7.122,0,0,0,418.637,452.336Z" transform="translate(-197.123 -134.944)" fill="#263238"/>
      <path id="Path_404" data-name="Path 404" d="M395.81,451.005a8.865,8.865,0,0,0,1.913.911,45.872,45.872,0,0,0,5.5,1.7,79.114,79.114,0,0,0,18.89,1.792c7.41-.091,14.091-.425,18.935-.623l5.725-.3a12.51,12.51,0,0,0,2.1-.213,10.02,10.02,0,0,0-2.111-.106H441.03l-18.92.364a88.536,88.536,0,0,1-18.753-1.518C398.619,452.053,395.871,450.838,395.81,451.005Z" transform="translate(-208.795 -131.32)" fill="#263238"/>
      <path id="Path_405" data-name="Path 405" d="M394.85,453.144c0,.106,1.412-.683,3.705-1.685a17.128,17.128,0,0,1,9.354-1.518,14.881,14.881,0,0,1,8.093,4.8,29.107,29.107,0,0,0,2.84,2.915,15.186,15.186,0,0,0-2.414-3.31,19.743,19.743,0,0,0-3.28-3.037,11.754,11.754,0,0,0-5.117-2.156,16.384,16.384,0,0,0-9.733,1.837A12.649,12.649,0,0,0,394.85,453.144Z" transform="translate(-209.293 -132.335)" fill="#263238"/>
      <path id="Path_406" data-name="Path 406" d="M382.26,427.72s-46.8,30.643-48.469,31.888c-2.521,1.9.364,10.963,4.738,9.4,2.065-.744,41.333-11.677,45.554-13.317s15.595-10.842,15.595-10.842Z" transform="translate(-241.437 -143.385)" fill="#ff725e"/>
      <path id="Path_407" data-name="Path 407" d="M359.112,446.3a10.948,10.948,0,0,0-8.412-7.668,43.031,43.031,0,0,1,4.722,3.28A45.961,45.961,0,0,1,359.112,446.3Z" transform="translate(-232.184 -137.728)" fill="#263238"/>
      <path id="Path_408" data-name="Path 408" d="M361.527,443.772a12.406,12.406,0,0,0-7.395-7.592c-.121.213,1.928,1.518,3.948,3.523S361.314,443.894,361.527,443.772Z" transform="translate(-230.407 -138.998)" fill="#263238"/>
      <path id="Path_409" data-name="Path 409" d="M364.03,442.195a9.22,9.22,0,0,0-6.59-8.185,36.034,36.034,0,0,1,3.963,3.6A33.285,33.285,0,0,1,364.03,442.195Z" transform="translate(-228.689 -140.123)" fill="#263238"/>
      <path id="Path_410" data-name="Path 410" d="M360.842,439.568c.121,0-.516-1.321-1.048-3.508a19.068,19.068,0,0,1-.562-3.872,17.064,17.064,0,0,1,0-2.308,1.9,1.9,0,0,1,.258-.987.471.471,0,0,1,.638-.152c.531.213.8,1.124,1.063,1.853a11.737,11.737,0,0,1,.456,2.217,16.158,16.158,0,0,1-.121,3.9c-.319,2.217-.759,3.568-.638,3.614A9.84,9.84,0,0,0,362.1,436.8a14.489,14.489,0,0,0,.3-4.054,11.446,11.446,0,0,0-.44-2.4,10.071,10.071,0,0,0-.456-1.23,2.187,2.187,0,0,0-1.063-1.139,1.321,1.321,0,0,0-1.64.44,2.7,2.7,0,0,0-.38,1.4,17.036,17.036,0,0,0,.729,6.408A8.929,8.929,0,0,0,360.842,439.568Z" transform="translate(-228.203 -143.313)" fill="#263238"/>
      <path id="Path_411" data-name="Path 411" d="M359.89,435.941c0,.121,1.154-.425,3.037-.9a16.918,16.918,0,0,1,3.356-.455,7.41,7.41,0,0,1,1.928.121,1.321,1.321,0,0,1,1.124,1.093,1.7,1.7,0,0,1-.8,1.518,3.842,3.842,0,0,1-1.731.577,8.4,8.4,0,0,1-3.3-.334,22.142,22.142,0,0,0-3.037-.9,8.655,8.655,0,0,0,2.885,1.518,8.321,8.321,0,0,0,3.538.531,4.4,4.4,0,0,0,2.111-.668,2.46,2.46,0,0,0,1.169-2.217,2.1,2.1,0,0,0-1.746-1.822,8.127,8.127,0,0,0-2.156-.091,14.923,14.923,0,0,0-3.477.653,7.031,7.031,0,0,0-2.9,1.367Z" transform="translate(-227.419 -140.187)" fill="#263238"/>
      <path id="Path_412" data-name="Path 412" d="M342.2,457.746c0,.076.79-.471,1.154-1.807a7.015,7.015,0,0,0-.881-5.087,19.54,19.54,0,0,0-1.518-2.338,9.107,9.107,0,0,0-1.594-1.7,2.762,2.762,0,0,0-1.518-.623c-.395,0-.592.076-.592.122a3.428,3.428,0,0,1,1.7.957,10.054,10.054,0,0,1,1.351,1.7,26.773,26.773,0,0,1,1.518,2.278,7.228,7.228,0,0,1,1.033,4.555A16.941,16.941,0,0,1,342.2,457.746Z" transform="translate(-239.157 -133.809)" fill="#263238"/>
      <path id="Path_413" data-name="Path 413" d="M353.55,447.884A5.725,5.725,0,0,0,351.9,443.4a5.634,5.634,0,0,0-4.115-2.414,26.664,26.664,0,0,1,3.477,2.946A27.1,27.1,0,0,1,353.55,447.884Z" transform="translate(-233.697 -136.505)" fill="#263238"/>
      <path id="Path_414" data-name="Path 414" d="M393.874,440.07a14.338,14.338,0,0,0-2.065,1.4,59.558,59.558,0,0,1-5.77,3.538,75.514,75.514,0,0,1-9.111,4.085c-3.553,1.321-7.592,2.566-11.723,3.781-8.427,2.43-16.05,4.646-21.547,6.3l-6.545,2.05a14.332,14.332,0,0,0-2.354.85,15.849,15.849,0,0,0,2.445-.531l6.575-1.837c5.542-1.518,13.18-3.644,21.608-6.074,4.206-1.23,8.2-2.505,11.753-3.872a69.571,69.571,0,0,0,9.187-4.282,46.289,46.289,0,0,0,5.679-3.8,14.857,14.857,0,0,0,1.868-1.61Z" transform="translate(-240.448 -136.982)" fill="#263238"/>
      <path id="Path_415" data-name="Path 415" d="M382.156,440.937a13.484,13.484,0,0,0-3.963-1.063,16.46,16.46,0,0,0-9.84,1.215,11.616,11.616,0,0,0-4.161,3.675,19.742,19.742,0,0,0-2.2,3.918,14.747,14.747,0,0,0-1.291,3.887,30.673,30.673,0,0,0,1.822-3.644,14.866,14.866,0,0,1,6.256-7.046,17.174,17.174,0,0,1,9.384-1.352C380.592,440.724,382.126,441.058,382.156,440.937Z" transform="translate(-226.999 -137.226)" fill="#263238"/>
      <path id="Path_416" data-name="Path 416" d="M474.9,379.367S488.95,384.378,489,400.124c.121,30.142-60.921,63.381-60.921,63.381l-81.238-53.815-5.087-2.065S451.459,366.445,474.9,379.367Z" transform="translate(-236.824 -169.755)" fill="#263238"/>
      <path id="Path_417" data-name="Path 417" d="M372.2,430.814a15.016,15.016,0,0,0,2.126-1.427c1.321-.972,3.219-2.4,5.542-4.206,4.662-3.584,10.979-8.686,17.8-14.532s12.8-11.328,17.052-15.382c2.126-2.02,3.827-3.69,5-4.859a14.321,14.321,0,0,0,1.731-1.868,14.84,14.84,0,0,0-1.959,1.64l-5.163,4.662c-4.358,3.933-10.4,9.354-17.2,15.185s-13.059,10.994-17.6,14.7l-5.391,4.4a16.075,16.075,0,0,0-1.929,1.686Z" transform="translate(-221.036 -163.698)" fill="#455a64"/>
      <path id="Path_418" data-name="Path 418" d="M419.39,385.968a20.181,20.181,0,0,0-14.79,4.358c.137.228,3.037-1.67,7.2-2.855S419.39,386.226,419.39,385.968Z" transform="translate(-204.238 -165.09)" fill="#455a64"/>
      <path id="Path_419" data-name="Path 419" d="M412.239,382.8a12.421,12.421,0,0,0-7.349,9.111c.243,0,1.124-2.445,3.174-4.95S412.376,383.013,412.239,382.8Z" transform="translate(-204.088 -166.674)" fill="#455a64"/>
      <path id="Path_420" data-name="Path 420" d="M433.929,445.708c0-.091-.972-.289-2.1.638a7.47,7.47,0,0,0-2.338,4.707,9.247,9.247,0,0,0,.729,5.208c.577,1.23,1.215,1.807,1.291,1.746a14.658,14.658,0,0,0-.744-1.974,10.493,10.493,0,0,1-.456-4.859,8.139,8.139,0,0,1,1.913-4.4C433.094,445.875,433.944,445.845,433.929,445.708Z" transform="translate(-191.384 -134.101)" fill="#263238"/>
      <path id="Path_421" data-name="Path 421" d="M470.325,346.06,441.4,419.4l-124.56,2.035-2.308-6.742,43.656-1.579,20.985-65.066Z" transform="translate(-250.936 -185.723)" fill="#455a64"/>
      <path id="Path_422" data-name="Path 422" d="M379.633,367.2a5.557,5.557,0,0,1,6,.653,4.814,4.814,0,0,1,1.169,5.3,5.239,5.239,0,0,1-4.555,3.143,4.738,4.738,0,0,1-4.768-3.143,5.36,5.36,0,0,1,2.1-5.952" transform="translate(-218.417 -175.068)" fill="#ebebeb"/>
      <path id="Path_423" data-name="Path 423" d="M464.618,464.846S349.852,389.56,345.176,388s-16.065-9-27.408-5.876-21.547,13.317-26.634,28.2c-2.915,8.5-4.282,23-4.935,33.892a50.337,50.337,0,0,0,11.768,35.836,32.025,32.025,0,0,0,14.3,10.159c1.2.38,2.445.7,3.72.972,21.7,4.707,44.036-5.041,56.183-23.6l2.673-4.069s75.088,27.575,76.257,27.2Z" transform="translate(-265.684 -167.421)" fill="#263238"/>
      <path id="Path_424" data-name="Path 424" d="M310.16,442.407a6.4,6.4,0,0,0,.623.273l1.883.744,7.273,2.809,27.044,10.189c11.48,4.282,25.237,9.384,40.68,15s32.541,11.768,50.823,17.948l.319.121.167-.319,8.974-17.128,4.555-8.731.167-.334-.319-.2-87.54-55.576-26.3-16.582-7.137-4.464-1.868-1.139c-.425-.258-.653-.364-.653-.364l.607.44,1.822,1.2,7.061,4.555,26.239,16.84,87.4,55.789-.152-.547c-1.443,2.779-3.037,5.74-4.555,8.731L438.319,488.8l.5-.2c-18.222-6.165-35.38-12.3-50.838-17.872l-40.74-14.82-27.2-9.992-7.319-2.672-1.913-.668Z" transform="translate(-253.202 -165.71)" fill="#455a64"/>
      <path id="Path_425" data-name="Path 425" d="M325.146,249.84c1.959-5.3,6.286-7.592,11.768-8.913a17.584,17.584,0,0,1,15.746,4.054c2.779,2.536,4.814,6.074,8.245,7.592,5.664,2.566,12.907-1.184,18.222,1.959a8.018,8.018,0,0,1-5.163,14.851c3.69,1.731,4.373,7.289,1.837,10.477s-7.228,4.054-11.161,2.946a22.534,22.534,0,0,1-9.946-6.848c-2.764-3.037-5.193-6.3-8.2-9.111a17.447,17.447,0,0,0-10.811-5.132c-5.512-.213-10.629,3.508-13.5,8.2s-3.978,10.265-4.783,15.731-1.412,11.024-3.523,16.126c-.243.607-.607,1.26-1.23,1.4-.926.2-1.594-.82-1.959-1.685a80.887,80.887,0,0,1-6.469-30.825c-.076-6.074.623-11.89,4.434-16.7s12.6-7.8,16.445-4.191" transform="translate(-256.284 -240.468)" fill="#263238"/>
      <path id="Path_426" data-name="Path 426" d="M312.421,271.855l-8.443,61.316a18.419,18.419,0,0,0,16.7,20.849h0a18.434,18.434,0,0,0,19.862-15.868c.623-4.555,1.154-8.458,1.26-8.929,0,0,15.807.683,19.057-14.608,1.518-7.395,3.568-22.883,5.224-36.914a29.124,29.124,0,0,0-23.233-31.888l-1.518-.289C325.161,243.216,314.228,255.668,312.421,271.855Z" transform="translate(-256.495 -237.99)" fill="#ffbe9d"/>
      <path id="Path_427" data-name="Path 427" d="M335.254,303.733A36.443,36.443,0,0,1,316.41,294s2.521,11.966,18.085,13.666Z" transform="translate(-249.962 -212.714)" fill="#eb996e"/>
      <path id="Path_428" data-name="Path 428" d="M341.982,273.64a2.217,2.217,0,0,1-2.551,1.777A2.111,2.111,0,0,1,337.578,273a2.217,2.217,0,0,1,2.551-1.792,2.126,2.126,0,0,1,1.853,2.43Z" transform="translate(-238.999 -224.546)" fill="#263238"/>
      <path id="Path_429" data-name="Path 429" d="M344.584,272.269c-.334.243-1.746-1.321-4.1-1.792s-4.328.38-4.555,0,.289-.607,1.154-1a5.952,5.952,0,0,1,3.675-.38,5.816,5.816,0,0,1,3.189,1.777C344.6,271.6,344.735,272.178,344.584,272.269Z" transform="translate(-239.87 -225.696)" fill="#263238"/>
      <path id="Path_430" data-name="Path 430" d="M326.665,271.118a2.217,2.217,0,0,1-2.551,1.792,2.156,2.156,0,0,1-1.868-2.43,2.262,2.262,0,0,1,2.551-1.792,2.141,2.141,0,0,1,1.868,2.43Z" transform="translate(-246.946 -225.85)" fill="#263238"/>
      <path id="Path_431" data-name="Path 431" d="M329.274,269.523c-.334.228-1.746-1.336-4.1-1.807s-4.328.38-4.555,0,.289-.607,1.154-1a6.133,6.133,0,0,1,6.879,1.4C329.289,268.93,329.425,269.416,329.274,269.523Z" transform="translate(-247.808 -227.125)" fill="#263238"/>
      <path id="Path_432" data-name="Path 432" d="M329.63,287.776a15.263,15.263,0,0,1,3.963.076c.623,0,1.215,0,1.4-.349a3.037,3.037,0,0,0,0-1.853c-.273-1.518-.562-3.219-.866-4.95-1.169-7.015-1.883-12.725-1.61-12.77s1.518,5.6,2.627,12.618c.273,1.731.547,3.371.79,4.95a3.492,3.492,0,0,1-.167,2.43,1.518,1.518,0,0,1-1.154.668,3.737,3.737,0,0,1-1.048,0,16.125,16.125,0,0,1-3.933-.82Z" transform="translate(-243.108 -226.231)" fill="#263238"/>
      <path id="Path_433" data-name="Path 433" d="M325.095,281.181c.395,0-.121,2.612,1.7,4.859s4.555,2.521,4.555,2.885-.7.364-1.853.167a6.545,6.545,0,0,1-3.842-2.247,5.694,5.694,0,0,1-1.26-4.054C324.518,281.7,324.928,281.121,325.095,281.181Z" transform="translate(-245.831 -219.362)" fill="#263238"/>
      <path id="Path_434" data-name="Path 434" d="M331.653,263.358c-.349.607-2.642-.167-5.482-.395s-5.208.091-5.466-.562c-.106-.3.41-.82,1.427-1.26a9.263,9.263,0,0,1,4.252-.607,9.111,9.111,0,0,1,4.1,1.336C331.41,262.477,331.789,263.084,331.653,263.358Z" transform="translate(-247.742 -230.086)" fill="#263238"/>
      <path id="Path_435" data-name="Path 435" d="M344.639,267.7c-.516.456-2.02-.425-3.978-.85s-3.675-.349-3.933-.987c-.121-.3.243-.79,1.078-1.154a5.633,5.633,0,0,1,3.417-.228,5.481,5.481,0,0,1,2.961,1.716C344.745,266.875,344.882,267.468,344.639,267.7Z" transform="translate(-239.439 -228.106)" fill="#263238"/>
      <path id="Path_436" data-name="Path 436" d="M312.862,270.873c-.243-.167-9.916-5.224-11.677,5.33s9.2,10.143,9.263,9.84S312.862,270.873,312.862,270.873Z" transform="translate(-257.955 -225.408)" fill="#ffbe9d"/>
      <path id="Path_437" data-name="Path 437" d="M306.986,280.391a2.75,2.75,0,0,1-.531.2,1.9,1.9,0,0,1-1.382-.2,4.555,4.555,0,0,1-1.427-4.434,6.075,6.075,0,0,1,.957-2.551,2.171,2.171,0,0,1,1.564-1.23.957.957,0,0,1,1,.7.886.886,0,0,1,0,.531c0,.015.258-.137.243-.577a1.2,1.2,0,0,0-.3-.729,1.336,1.336,0,0,0-.972-.44,2.612,2.612,0,0,0-2.187,1.306,6.407,6.407,0,0,0-1.139,2.839c-.289,2.141.471,4.313,1.928,5a1.989,1.989,0,0,0,1.731,0C306.926,280.649,307.017,280.422,306.986,280.391Z" transform="translate(-257.044 -224.297)" fill="#eb996e"/>
      <path id="Path_438" data-name="Path 438" d="M367.733,276a22.6,22.6,0,0,1-18.783-8.352c-3.037-3.918-5.056-9.035-9.445-11.4a12.74,12.74,0,0,0-9.794-.607,24.736,24.736,0,0,0-8.534,5.193c1.4,8.382-2.323,16.7-5.952,24.3a4.237,4.237,0,0,1-1.716,2.171c-1.427.714-3.128-.41-3.994-1.761A13.241,13.241,0,0,1,308,278.137a44.2,44.2,0,0,1,3.492-16.976,29.959,29.959,0,0,1,11.039-13.211,28.38,28.38,0,0,1,20.97-3.477,34.925,34.925,0,0,1,18.389,11.039,20.514,20.514,0,0,1,4.965,8.7" transform="translate(-254.349 -238.746)" fill="#263238"/>
    </g>
    <g id="freepik--Plant--inject-2" transform="translate(38.379 372.031)">
      <path id="Path_439" data-name="Path 439" d="M76.2,515.45a3.039,3.039,0,0,1,.273-.638l.85-1.837a46.917,46.917,0,0,0,2.536-7.349c1.67-6.529,2.247-16.506-.228-28.35a150.434,150.434,0,0,0-5.254-19.057c-2.232-6.757-4.814-13.924-6.924-21.684A84.093,84.093,0,0,1,64.04,411.6c.319-8.822,2.931-17.629,5.8-26.391s5.831-17.356,6.712-25.981A39.48,39.48,0,0,0,71.8,335.239c-3.811-7.015-8.579-13-12.148-19.209a66.812,66.812,0,0,1-7.319-18.449,68.862,68.862,0,0,1-.456-28.593,54.041,54.041,0,0,1,3.037-10.1,4.023,4.023,0,0,1-.167.683L54.14,261.5a68.255,68.255,0,0,0-1.108,35.927,65.962,65.962,0,0,0,7.334,18.222c3.568,6.074,8.367,12.148,12.239,19.178a40.452,40.452,0,0,1,4.844,24.447c-.9,8.777-3.887,17.417-6.742,26.178s-5.451,17.462-5.77,26.133a83.515,83.515,0,0,0,3.325,24.69c2.08,7.714,4.647,14.881,6.833,21.668a149.388,149.388,0,0,1,5.178,19.163c2.414,11.935,1.716,22.018,0,28.562a41.7,41.7,0,0,1-2.7,7.334c-.395.759-.714,1.351-.941,1.807a3.978,3.978,0,0,1-.425.638Z" transform="translate(-32.046 -258.89)" fill="#263238"/>
      <path id="Path_440" data-name="Path 440" d="M60.44,313.216s-7.273-23.233,5.77-36.838a.8.8,0,0,1,1.382.395C68.291,280.615,69.156,292.307,60.44,313.216Z" transform="translate(-27.99 -249.957)" fill="#ff725e"/>
      <path id="Path_441" data-name="Path 441" d="M64.2,281.39a21.684,21.684,0,0,1-.5,4.282c-.471,3.037-1.033,6.423-1.655,10.25s-1.154,7.3-1.625,10.25a22.775,22.775,0,0,1-.774,4.252,18.632,18.632,0,0,1,.137-4.328c.243-2.657.714-6.3,1.367-10.31s1.351-7.592,1.928-10.219A18.829,18.829,0,0,1,64.2,281.39Z" transform="translate(-27.39 -247.225)" fill="#263238"/>
      <path id="Path_442" data-name="Path 442" d="M65.37,346.853s4.449-23.946,22.337-29.838a.8.8,0,0,1,1.033,1C87.585,321.692,82.863,332.443,65.37,346.853Z" transform="translate(-24.386 -228.777)" fill="#ff725e"/>
      <path id="Path_443" data-name="Path 443" d="M82.9,321.05a21.637,21.637,0,0,1-2.445,3.553c-1.792,2.4-3.918,5.193-6.256,8.291L67.913,341.2a23.427,23.427,0,0,1-2.672,3.386,18.6,18.6,0,0,1,2.141-3.766c1.518-2.232,3.568-5.239,6.074-8.473s4.768-6.074,6.484-8.139A18.769,18.769,0,0,1,82.9,321.05Z" transform="translate(-24.453 -226.662)" fill="#263238"/>
      <path id="Path_444" data-name="Path 444" d="M62.252,388.229s-2.7-24.2,12.694-35.077a.8.8,0,0,1,1.275.668C76.177,357.707,74.795,369.354,62.252,388.229Z" transform="translate(-26.097 -210.097)" fill="#ff725e"/>
      <path id="Path_445" data-name="Path 445" d="M72.056,357.93a20.437,20.437,0,0,1-1.306,4.115c-1.033,2.809-2.232,6.074-3.584,9.749l-3.538,9.749a22.474,22.474,0,0,1-1.518,4.024,19.437,19.437,0,0,1,.957-4.221c.744-2.566,1.9-6.074,3.31-9.87s2.794-7.213,3.842-9.657a19,19,0,0,1,1.837-3.887Z" transform="translate(-26.076 -207.541)" fill="#263238"/>
      <path id="Path_446" data-name="Path 446" d="M71.082,427.859s-1.837-24.3,13.94-34.591a.8.8,0,0,1,1.26.7C86.085,397.839,84.293,409.425,71.082,427.859Z" transform="translate(-21.458 -189.293)" fill="#ff725e"/>
      <path id="Path_447" data-name="Path 447" d="M81.9,398a21.032,21.032,0,0,1-1.518,4.069c-1.139,2.764-2.46,6.074-3.933,9.6l-3.9,9.627A23.159,23.159,0,0,1,71,425.18,18.39,18.39,0,0,1,72.108,421c.82-2.536,2.111-5.983,3.66-9.733s3.037-7.122,4.176-9.521A19.254,19.254,0,0,1,81.9,398Z" transform="translate(-21.467 -186.766)" fill="#263238"/>
      <path id="Path_448" data-name="Path 448" d="M60.383,297.678s-21.577-11.267-22-30.111a.8.8,0,0,1,1.26-.7C42.845,269.085,51.728,276.723,60.383,297.678Z" transform="translate(-38.379 -254.827)" fill="#ff725e"/>
      <path id="Path_449" data-name="Path 449" d="M41.33,271.54a21.108,21.108,0,0,1,2.688,3.371l6.074,8.412,6.074,8.4a23.794,23.794,0,0,1,2.46,3.538,17.2,17.2,0,0,1-3.037-3.143c-1.716-2.035-3.978-4.95-6.347-8.245s-4.434-6.347-5.876-8.595a18.645,18.645,0,0,1-2.035-3.735Z" transform="translate(-36.85 -252.331)" fill="#263238"/>
      <path id="Path_450" data-name="Path 450" d="M76.255,330.1s-22.215-9.931-23.794-28.714a.8.8,0,0,1,1.215-.759C57.016,302.588,66.355,309.679,76.255,330.1Z" transform="translate(-31.08 -237.309)" fill="#ff725e"/>
      <path id="Path_451" data-name="Path 451" d="M55.67,305.14a21.6,21.6,0,0,1,2.885,3.2l6.59,8.033,6.605,8a22.018,22.018,0,0,1,2.642,3.325,19.553,19.553,0,0,1-3.143-3.037c-1.837-1.944-4.267-4.707-6.833-7.851s-4.814-6.074-6.378-8.215A18.556,18.556,0,0,1,55.67,305.14Z" transform="translate(-29.415 -234.911)" fill="#263238"/>
      <path id="Path_452" data-name="Path 452" d="M63.127,369.257s-15.261-18.981-8.093-36.443a.8.8,0,0,1,1.427-.137C58.511,336.033,63.568,346.586,63.127,369.257Z" transform="translate(-30.738 -220.827)" fill="#ff725e"/>
      <path id="Path_453" data-name="Path 453" d="M55.37,337.75a21.046,21.046,0,0,1,1.108,4.161c.638,2.931,1.382,6.362,2.217,10.159s1.518,7.213,2.232,10.128a23.8,23.8,0,0,1,.835,4.237,17.387,17.387,0,0,1-1.518-4.069c-.759-2.566-1.655-6.074-2.505-10.113s-1.518-7.592-1.944-10.2A19.742,19.742,0,0,1,55.37,337.75Z" transform="translate(-29.571 -218.004)" fill="#263238"/>
      <path id="Path_454" data-name="Path 454" d="M77.629,410.017s-22.063-10.3-23.308-29.124a.8.8,0,0,1,1.215-.744C58.846,382.229,68.063,389.472,77.629,410.017Z" transform="translate(-30.115 -196.08)" fill="#ff725e"/>
      <path id="Path_455" data-name="Path 455" d="M57.45,384.73a21.258,21.258,0,0,1,2.84,3.25c1.853,2.354,4.039,5.1,6.453,8.139l6.469,8.124a23.811,23.811,0,0,1,2.612,3.432,18.02,18.02,0,0,1-3.037-3.037c-1.792-1.959-4.176-4.768-6.681-7.957s-4.783-6.135-6.3-8.306a20.255,20.255,0,0,1-2.354-3.644Z" transform="translate(-28.492 -193.646)" fill="#263238"/>
      <path id="Path_456" data-name="Path 456" d="M112.982,336.73a2.354,2.354,0,0,1,0,.547c0,.425,0,.926,0,1.518,0,1.518-.152,3.447-.258,5.907-.289,5.193-.683,12.421-1.154,21.091h0c-1.518,8.807-6.074,18.571-12.148,28.046-4.419,6.985-9.111,13.347-13.044,19.254a135.991,135.991,0,0,0-9.794,16.172,67.891,67.891,0,0,0-4.555,11.875c-.395,1.443-.683,2.581-.85,3.356a6.074,6.074,0,0,1-.319,1.169,5.967,5.967,0,0,1,.137-1.2c.106-.79.349-1.944.683-3.417A63.35,63.35,0,0,1,76.023,428.9,130.409,130.409,0,0,1,85.7,412.547c3.963-5.952,8.579-12.315,12.983-19.254,6.074-9.445,10.447-19.057,12.148-27.727h0c.607-8.64,1.108-15.868,1.518-21.061.2-2.46.364-4.434.471-5.892a11.247,11.247,0,0,1,.167-1.518,1.7,1.7,0,0,1,0-.364Z" transform="translate(-21.539 -218.533)" fill="#263238"/>
      <path id="Path_457" data-name="Path 457" d="M91.689,386.015s9.339-22.489-2.414-37.218a.8.8,0,0,0-1.412.273C86.754,352.836,84.826,364.453,91.689,386.015Z" transform="translate(-13.305 -212.439)" fill="#ff725e"/>
      <path id="Path_458" data-name="Path 458" d="M88.85,353.86a19.739,19.739,0,0,1,.744,4.252c.334,2.642.7,6.3.987,10.356s.425,7.729.425,10.386a17.386,17.386,0,0,1-.258,4.312,22.337,22.337,0,0,1-.38-4.282c-.2-3.037-.44-6.484-.7-10.356s-.516-7.38-.714-10.356A21.926,21.926,0,0,1,88.85,353.86Z" transform="translate(-12.243 -209.651)" fill="#263238"/>
      <g id="Group_26" data-name="Group 26" transform="translate(73.437 136.045)" opacity="0.3">
        <path id="Path_459" data-name="Path 459" d="M91.689,386.015s9.339-22.489-2.414-37.218a.8.8,0,0,0-1.412.273C86.754,352.836,84.826,364.453,91.689,386.015Z" transform="translate(-86.742 -348.484)"/>
      </g>
      <path id="Path_460" data-name="Path 460" d="M73.383,421.563s7.486-23.157-5.421-36.884a.8.8,0,0,0-1.382.38C65.836,388.885,64.864,400.563,73.383,421.563Z" transform="translate(-24.001 -193.808)" fill="#ff725e"/>
      <path id="Path_461" data-name="Path 461" d="M68.21,389.69a19.223,19.223,0,0,1,1.078,4.191c.547,2.6,1.215,6.211,1.837,10.235s1.048,7.668,1.26,10.326a17.8,17.8,0,0,1,.091,4.328,24.053,24.053,0,0,1-.729-4.252c-.44-3.037-.957-6.423-1.518-10.265s-1.108-7.3-1.518-10.265a21.987,21.987,0,0,1-.5-4.3Z" transform="translate(-22.913 -191.074)" fill="#263238"/>
      <g id="Group_27" data-name="Group 27" transform="translate(42.11 190.61)" opacity="0.3">
        <path id="Path_462" data-name="Path 462" d="M73.383,421.563s7.486-23.157-5.421-36.884a.8.8,0,0,0-1.382.38C65.836,388.885,64.864,400.563,73.383,421.563Z" transform="translate(-66.111 -384.418)"/>
      </g>
      <path id="Path_463" data-name="Path 463" d="M97.78,366.529s19.953-13.97,17.933-32.708a.8.8,0,0,0-1.336-.531C111.492,335.992,103.656,344.632,97.78,366.529Z" transform="translate(-7.582 -220.422)" fill="#ff725e"/>
      <g id="Group_28" data-name="Group 28" transform="translate(90.198 112.664)" opacity="0.3">
        <path id="Path_464" data-name="Path 464" d="M97.78,366.529s19.953-13.97,17.933-32.708a.8.8,0,0,0-1.336-.531C111.492,335.992,103.656,344.632,97.78,366.529Z" transform="translate(-97.78 -333.086)"/>
      </g>
      <path id="Path_465" data-name="Path 465" d="M112.047,338.18a19.5,19.5,0,0,1-1.655,3.978c-1.139,2.414-2.794,5.694-4.722,9.278s-3.781,6.757-5.224,9a16.6,16.6,0,0,1-2.536,3.492,24.176,24.176,0,0,1,1.989-3.826L104.865,351l4.95-9.111a21,21,0,0,1,2.232-3.705Z" transform="translate(-7.515 -217.781)" fill="#263238"/>
      <path id="Path_466" data-name="Path 466" d="M76.19,401.459S100.2,397.709,106.7,380a.8.8,0,0,0-.972-1.063C101.974,380,91.086,384.392,76.19,401.459Z" transform="translate(-18.776 -196.664)" fill="#ff725e"/>
      <g id="Group_29" data-name="Group 29" transform="translate(57.414 182.246)" opacity="0.3">
        <path id="Path_467" data-name="Path 467" d="M76.19,401.459S100.2,397.709,106.7,380a.8.8,0,0,0-.972-1.063C101.974,380,91.086,384.392,76.19,401.459Z" transform="translate(-76.19 -378.91)"/>
      </g>
      <path id="Path_468" data-name="Path 468" d="M100.317,382.72a20.345,20.345,0,0,1-3.219,2.84c-2.08,1.67-5.011,3.887-8.321,6.241s-6.378,4.4-8.64,5.8a17.966,17.966,0,0,1-3.827,2.02,23.736,23.736,0,0,1,3.462-2.566l8.488-5.983L96.718,385A20.524,20.524,0,0,1,100.317,382.72Z" transform="translate(-18.714 -194.688)" fill="#263238"/>
      <path id="Path_469" data-name="Path 469" d="M63.475,422.92,56.46,470.144h43.732L94.513,422.92Z" transform="translate(-29.005 -173.846)" fill="#455a64"/>
      <path id="Path_470" data-name="Path 470" d="M94.724,432.724c0,.258-7.9.456-17.645.456s-17.629-.2-17.629-.456a173.973,173.973,0,0,1,17.629-.456A174.183,174.183,0,0,1,94.724,432.724Z" transform="translate(-27.455 -169.027)" fill="#263238"/>
      <path id="Path_471" data-name="Path 471" d="M95.693,435.156c0,.243-8.154.456-18.222.456s-18.222-.213-18.222-.456,8.154-.456,18.222-.456S95.693,434.943,95.693,435.156Z" transform="translate(-27.559 -167.738)" fill="#263238"/>
    </g>
  </g>
</svg>
